<?xml version="1.0" encoding="UTF-8"?>
<svg width="1072px" height="289px" viewBox="0 0 1072 289" version="1.1" xmlns="http://www.w3.org/2000/svg" xmlns:xlink="http://www.w3.org/1999/xlink">
    <title>Group</title>
    <g id="Page-1" stroke="none" stroke-width="1" fill="none" fill-rule="evenodd">
        <g id="Frame" transform="translate(-866, -126)" fill="#ffffff">
            <g id="Group" transform="translate(866, 125.9134)">
                <path d="M1016.07824,129.949816 C1005.27964,129.938114 995.549311,123.428131 991.418383,113.450889 C987.287455,103.473646 989.56808,91.9907077 997.19824,84.3493339 L1042.79836,38.7493339 L1042.79836,103.229334 C1042.81971,110.336365 1040.00047,117.15734 1034.96751,122.175276 C1029.93455,127.193212 1023.10518,129.992051 1015.99824,129.949816 L1016.07824,129.949816 Z M969.03824,82.9893339 C954.281191,82.9893339 942.31824,71.0263824 942.31824,56.2693339 C942.31824,41.5122854 954.281191,29.5493339 969.03824,29.5493339 L1033.43824,29.5493339 L987.83824,75.1493339 C982.63824,80.3493339 975.83824,82.9893339 968.95824,82.9893339 L969.03824,82.9893339 Z M1054.63824,40.4293339 C1052.16333,38.1333614 1051.14469,34.666326 1051.98433,31.3965156 C1052.82397,28.1267051 1055.38701,25.5793921 1058.66192,24.7598902 C1061.93684,23.9403883 1065.39754,24.9803447 1067.67824,27.4693339 C1071.01284,31.1084764 1070.88149,36.7306334 1067.38057,40.2100733 C1063.87965,43.6895132 1058.25679,43.7862672 1054.63824,40.4293339 L1054.63824,40.4293339 Z M1031.83824,17.6293339 C1028.32209,14.0248014 1028.32209,8.27386637 1031.83824,4.66933388 C1035.42518,1.11022204 1041.2113,1.11022204 1044.79824,4.66933388 C1048.39824,8.18933388 1048.39824,14.0293339 1044.79824,17.6293339 C1041.27824,21.2293339 1035.43824,21.2293339 1031.83824,17.6293339 L1031.83824,17.6293339 Z" id="Shape-Copy-6" fill-rule="nonzero" transform="translate(1006.2067, 65.9751) rotate(179) translate(-1006.2067, -65.9751)"></path>
                <path d="M859.214592,129.949816 C848.41599,129.938114 838.685663,123.428131 834.554735,113.450889 C830.423807,103.473646 832.704432,91.9907077 840.334592,84.3493339 L885.934714,38.7493339 L885.934714,103.229334 C885.956063,110.336365 883.136819,117.15734 878.10386,122.175276 C873.0709,127.193212 866.241527,129.992051 859.134592,129.949816 L859.214592,129.949816 Z M812.174592,82.9893339 C797.417543,82.9893339 785.454592,71.0263824 785.454592,56.2693339 C785.454592,41.5122854 797.417543,29.5493339 812.174592,29.5493339 L876.574592,29.5493339 L830.974592,75.1493339 C825.774592,80.3493339 818.974592,82.9893339 812.094592,82.9893339 L812.174592,82.9893339 Z M897.774592,40.4293339 C895.299685,38.1333614 894.281044,34.666326 895.120684,31.3965156 C895.960324,28.1267051 898.523361,25.5793921 901.798276,24.7598902 C905.073192,23.9403883 908.533893,24.9803447 910.814592,27.4693339 C914.149194,31.1084764 914.01784,36.7306334 910.516922,40.2100733 C907.016004,43.6895132 901.393145,43.7862672 897.774592,40.4293339 L897.774592,40.4293339 Z M874.974592,17.6293339 C871.458446,14.0248014 871.458446,8.27386637 874.974592,4.66933388 C878.561532,1.11022204 884.347652,1.11022204 887.934592,4.66933388 C891.534592,8.18933388 891.534592,14.0293339 887.934592,17.6293339 C884.414592,21.2293339 878.574592,21.2293339 874.974592,17.6293339 L874.974592,17.6293339 Z" id="Shape-Copy-5" fill-rule="nonzero" transform="translate(849.3431, 65.9751) rotate(90) translate(-849.3431, -65.9751)"></path>
                <path d="M702.350944,129.949816 C691.552342,129.938114 681.822016,123.428131 677.691087,113.450889 C673.560159,103.473646 675.840784,91.9907077 683.470944,84.3493339 L729.071066,38.7493339 L729.071066,103.229334 C729.092415,110.336365 726.273171,117.15734 721.240212,122.175276 C716.207252,127.193212 709.377879,129.992051 702.270944,129.949816 L702.350944,129.949816 Z M655.310944,82.9893339 C640.553895,82.9893339 628.590944,71.0263824 628.590944,56.2693339 C628.590944,41.5122854 640.553895,29.5493339 655.310944,29.5493339 L719.710944,29.5493339 L674.110944,75.1493339 C668.910944,80.3493339 662.110944,82.9893339 655.230944,82.9893339 L655.310944,82.9893339 Z M740.910944,40.4293339 C738.436037,38.1333614 737.417396,34.666326 738.257036,31.3965156 C739.096676,28.1267051 741.659713,25.5793921 744.934628,24.7598902 C748.209544,23.9403883 751.670245,24.9803447 753.950944,27.4693339 C757.285546,31.1084764 757.154192,36.7306334 753.653274,40.2100733 C750.152356,43.6895132 744.529497,43.7862672 740.910944,40.4293339 L740.910944,40.4293339 Z M718.110944,17.6293339 C714.594798,14.0248014 714.594798,8.27386637 718.110944,4.66933388 C721.697884,1.11022204 727.484004,1.11022204 731.070944,4.66933388 C734.670944,8.18933388 734.670944,14.0293339 731.070944,17.6293339 C727.550944,21.2293339 721.710944,21.2293339 718.110944,17.6293339 L718.110944,17.6293339 Z" id="Shape-Copy-4" fill-rule="nonzero"></path>
                <path d="M545.487296,129.949816 C534.688694,129.938114 524.958368,123.428131 520.827439,113.450889 C516.696511,103.473646 518.977136,91.9907077 526.607296,84.3493339 L572.207418,38.7493339 L572.207418,103.229334 C572.228767,110.336365 569.409523,117.15734 564.376564,122.175276 C559.343604,127.193212 552.514232,129.992051 545.407296,129.949816 L545.487296,129.949816 Z M498.447296,82.9893339 C483.690247,82.9893339 471.727296,71.0263824 471.727296,56.2693339 C471.727296,41.5122854 483.690247,29.5493339 498.447296,29.5493339 L562.847296,29.5493339 L517.247296,75.1493339 C512.047296,80.3493339 505.247296,82.9893339 498.367296,82.9893339 L498.447296,82.9893339 Z M584.047296,40.4293339 C581.572389,38.1333614 580.553748,34.666326 581.393388,31.3965156 C582.233028,28.1267051 584.796065,25.5793921 588.07098,24.7598902 C591.345896,23.9403883 594.806597,24.9803447 597.087296,27.4693339 C600.421898,31.1084764 600.290544,36.7306334 596.789626,40.2100733 C593.288708,43.6895132 587.665849,43.7862672 584.047296,40.4293339 L584.047296,40.4293339 Z M561.247296,17.6293339 C557.731151,14.0248014 557.731151,8.27386637 561.247296,4.66933388 C564.834236,1.11022204 570.620356,1.11022204 574.207296,4.66933388 C577.807296,8.18933388 577.807296,14.0293339 574.207296,17.6293339 C570.687296,21.2293339 564.847296,21.2293339 561.247296,17.6293339 L561.247296,17.6293339 Z" id="Shape-Copy-3" fill-rule="nonzero" transform="translate(535.6158, 65.9751) rotate(270) translate(-535.6158, -65.9751)"></path>
                <path d="M388.623648,129.949816 C377.825046,129.938114 368.09472,123.428131 363.963791,113.450889 C359.832863,103.473646 362.113488,91.9907077 369.743648,84.3493339 L415.34377,38.7493339 L415.34377,103.229334 C415.365119,110.336365 412.545875,117.15734 407.512916,122.175276 C402.479956,127.193212 395.650584,129.992051 388.543648,129.949816 L388.623648,129.949816 Z M341.583648,82.9893339 C326.826599,82.9893339 314.863648,71.0263824 314.863648,56.2693339 C314.863648,41.5122854 326.826599,29.5493339 341.583648,29.5493339 L405.983648,29.5493339 L360.383648,75.1493339 C355.183648,80.3493339 348.383648,82.9893339 341.503648,82.9893339 L341.583648,82.9893339 Z M427.183648,40.4293339 C424.708741,38.1333614 423.690101,34.666326 424.52974,31.3965156 C425.36938,28.1267051 427.932417,25.5793921 431.207332,24.7598902 C434.482248,23.9403883 437.942949,24.9803447 440.223648,27.4693339 C443.55825,31.1084764 443.426896,36.7306334 439.925978,40.2100733 C436.42506,43.6895132 430.802201,43.7862672 427.183648,40.4293339 L427.183648,40.4293339 Z M404.383648,17.6293339 C400.867503,14.0248014 400.867503,8.27386637 404.383648,4.66933388 C407.970588,1.11022204 413.756708,1.11022204 417.343648,4.66933388 C420.943648,8.18933388 420.943648,14.0293339 417.343648,17.6293339 C413.823648,21.2293339 407.983648,21.2293339 404.383648,17.6293339 L404.383648,17.6293339 Z" id="Shape-Copy-2" fill-rule="nonzero" transform="translate(378.7522, 65.9751) rotate(180) translate(-378.7522, -65.9751)"></path>
                <path d="M231.76,129.949816 C220.961398,129.938114 211.231072,123.428131 207.100143,113.450889 C202.969215,103.473646 205.24984,91.9907077 212.88,84.3493339 L258.480122,38.7493339 L258.480122,103.229334 C258.501471,110.336365 255.682227,117.15734 250.649268,122.175276 C245.616308,127.193212 238.786936,129.992051 231.68,129.949816 L231.76,129.949816 Z M184.72,82.9893339 C169.962951,82.9893339 158,71.0263824 158,56.2693339 C158,41.5122854 169.962951,29.5493339 184.72,29.5493339 L249.12,29.5493339 L203.52,75.1493339 C198.32,80.3493339 191.52,82.9893339 184.64,82.9893339 L184.72,82.9893339 Z M270.32,40.4293339 C267.845093,38.1333614 266.826453,34.666326 267.666092,31.3965156 C268.505732,28.1267051 271.068769,25.5793921 274.343684,24.7598902 C277.6186,23.9403883 281.079301,24.9803447 283.36,27.4693339 C286.694602,31.1084764 286.563248,36.7306334 283.06233,40.2100733 C279.561412,43.6895132 273.938553,43.7862672 270.32,40.4293339 L270.32,40.4293339 Z M247.52,17.6293339 C244.003855,14.0248014 244.003855,8.27386637 247.52,4.66933388 C251.10694,1.11022204 256.89306,1.11022204 260.48,4.66933388 C264.08,8.18933388 264.08,14.0293339 260.48,17.6293339 C256.96,21.2293339 251.12,21.2293339 247.52,17.6293339 L247.52,17.6293339 Z" id="Shape-Copy" fill-rule="nonzero" transform="translate(221.8885, 65.9751) rotate(90) translate(-221.8885, -65.9751)"></path>
                <g id="bee" transform="translate(1, 2.0866)" fill-rule="nonzero">
                    <path d="M73.76,128.000482 C62.9613978,127.98878 53.2310716,121.478797 49.1001432,111.501555 C44.9692147,101.524312 47.24984,90.0413738 54.88,82.4 L100.480122,36.8 L100.480122,101.28 C100.501471,108.387032 97.6822271,115.208007 92.6492678,120.225942 C87.6163084,125.243878 80.7869356,128.042718 73.68,128.000482 L73.76,128.000482 Z M26.72,81.04 C11.9629515,81.04 0,69.0770485 0,54.32 C0,39.5629515 11.9629515,27.6 26.72,27.6 L91.12,27.6 L45.52,73.2 C40.32,78.4 33.52,81.04 26.64,81.04 L26.72,81.04 Z M112.32,38.48 C109.845093,36.1840276 108.826453,32.7169921 109.666092,29.4471817 C110.505732,26.1773713 113.068769,23.6300583 116.343684,22.8105563 C119.6186,21.9910544 123.079301,23.0310108 125.36,25.52 C128.694602,29.1591425 128.563248,34.7812996 125.06233,38.2607394 C121.561412,41.7401793 115.938553,41.8369333 112.32,38.48 L112.32,38.48 Z M89.52,15.68 C86.0038546,12.0754675 86.0038546,6.32453249 89.52,2.72 C93.10694,-0.839111837 98.89306,-0.839111837 102.48,2.72 C106.08,6.24 106.08,12.08 102.48,15.68 C98.96,19.28 93.12,19.28 89.52,15.68 L89.52,15.68 Z" id="Shape"></path>
                </g>
                <path d="M859.07824,287.949816 C848.279638,287.938114 838.549311,281.428131 834.418383,271.450889 C830.287455,261.473646 832.56808,249.990708 840.19824,242.349334 L885.798362,196.749334 L885.798362,261.229334 C885.819711,268.336365 883.000467,275.15734 877.967508,280.175276 C872.934548,285.193212 866.105175,287.992051 858.99824,287.949816 L859.07824,287.949816 Z M812.03824,240.989334 C797.281191,240.989334 785.31824,229.026382 785.31824,214.269334 C785.31824,199.512285 797.281191,187.549334 812.03824,187.549334 L876.43824,187.549334 L830.83824,233.149334 C825.63824,238.349334 818.83824,240.989334 811.95824,240.989334 L812.03824,240.989334 Z M897.63824,198.429334 C895.163333,196.133361 894.144692,192.666326 894.984332,189.396516 C895.823972,186.126705 898.387009,183.579392 901.661924,182.75989 C904.93684,181.940388 908.397541,182.980345 910.67824,185.469334 C914.012842,189.108476 913.881488,194.730633 910.38057,198.210073 C906.879652,201.689513 901.256793,201.786267 897.63824,198.429334 L897.63824,198.429334 Z M874.83824,175.629334 C871.322094,172.024801 871.322094,166.273866 874.83824,162.669334 C878.42518,159.110222 884.2113,159.110222 887.79824,162.669334 C891.39824,166.189334 891.39824,172.029334 887.79824,175.629334 C884.27824,179.229334 878.43824,179.229334 874.83824,175.629334 L874.83824,175.629334 Z" id="Shape-Copy-12" fill-rule="nonzero" transform="translate(849.2067, 223.9751) rotate(179) translate(-849.2067, -223.9751)"></path>
                <path d="M702.214592,287.949816 C691.41599,287.938114 681.685663,281.428131 677.554735,271.450889 C673.423807,261.473646 675.704432,249.990708 683.334592,242.349334 L728.934714,196.749334 L728.934714,261.229334 C728.956063,268.336365 726.136819,275.15734 721.10386,280.175276 C716.0709,285.193212 709.241527,287.992051 702.134592,287.949816 L702.214592,287.949816 Z M655.174592,240.989334 C640.417543,240.989334 628.454592,229.026382 628.454592,214.269334 C628.454592,199.512285 640.417543,187.549334 655.174592,187.549334 L719.574592,187.549334 L673.974592,233.149334 C668.774592,238.349334 661.974592,240.989334 655.094592,240.989334 L655.174592,240.989334 Z M740.774592,198.429334 C738.299685,196.133361 737.281044,192.666326 738.120684,189.396516 C738.960324,186.126705 741.523361,183.579392 744.798276,182.75989 C748.073192,181.940388 751.533893,182.980345 753.814592,185.469334 C757.149194,189.108476 757.01784,194.730633 753.516922,198.210073 C750.016004,201.689513 744.393145,201.786267 740.774592,198.429334 L740.774592,198.429334 Z M717.974592,175.629334 C714.458446,172.024801 714.458446,166.273866 717.974592,162.669334 C721.561532,159.110222 727.347652,159.110222 730.934592,162.669334 C734.534592,166.189334 734.534592,172.029334 730.934592,175.629334 C727.414592,179.229334 721.574592,179.229334 717.974592,175.629334 L717.974592,175.629334 Z" id="Shape-Copy-11" fill-rule="nonzero" transform="translate(692.3431, 223.9751) rotate(90) translate(-692.3431, -223.9751)"></path>
                <path d="M545.350944,287.949816 C534.552342,287.938114 524.822016,281.428131 520.691087,271.450889 C516.560159,261.473646 518.840784,249.990708 526.470944,242.349334 L572.071066,196.749334 L572.071066,261.229334 C572.092415,268.336365 569.273171,275.15734 564.240212,280.175276 C559.207252,285.193212 552.377879,287.992051 545.270944,287.949816 L545.350944,287.949816 Z M498.310944,240.989334 C483.553895,240.989334 471.590944,229.026382 471.590944,214.269334 C471.590944,199.512285 483.553895,187.549334 498.310944,187.549334 L562.710944,187.549334 L517.110944,233.149334 C511.910944,238.349334 505.110944,240.989334 498.230944,240.989334 L498.310944,240.989334 Z M583.910944,198.429334 C581.436037,196.133361 580.417396,192.666326 581.257036,189.396516 C582.096676,186.126705 584.659713,183.579392 587.934628,182.75989 C591.209544,181.940388 594.670245,182.980345 596.950944,185.469334 C600.285546,189.108476 600.154192,194.730633 596.653274,198.210073 C593.152356,201.689513 587.529497,201.786267 583.910944,198.429334 L583.910944,198.429334 Z M561.110944,175.629334 C557.594798,172.024801 557.594798,166.273866 561.110944,162.669334 C564.697884,159.110222 570.484004,159.110222 574.070944,162.669334 C577.670944,166.189334 577.670944,172.029334 574.070944,175.629334 C570.550944,179.229334 564.710944,179.229334 561.110944,175.629334 L561.110944,175.629334 Z" id="Shape-Copy-10" fill-rule="nonzero"></path>
                <path d="M388.487296,287.949816 C377.688694,287.938114 367.958368,281.428131 363.827439,271.450889 C359.696511,261.473646 361.977136,249.990708 369.607296,242.349334 L415.207418,196.749334 L415.207418,261.229334 C415.228767,268.336365 412.409523,275.15734 407.376564,280.175276 C402.343604,285.193212 395.514232,287.992051 388.407296,287.949816 L388.487296,287.949816 Z M341.447296,240.989334 C326.690247,240.989334 314.727296,229.026382 314.727296,214.269334 C314.727296,199.512285 326.690247,187.549334 341.447296,187.549334 L405.847296,187.549334 L360.247296,233.149334 C355.047296,238.349334 348.247296,240.989334 341.367296,240.989334 L341.447296,240.989334 Z M427.047296,198.429334 C424.572389,196.133361 423.553748,192.666326 424.393388,189.396516 C425.233028,186.126705 427.796065,183.579392 431.07098,182.75989 C434.345896,181.940388 437.806597,182.980345 440.087296,185.469334 C443.421898,189.108476 443.290544,194.730633 439.789626,198.210073 C436.288708,201.689513 430.665849,201.786267 427.047296,198.429334 L427.047296,198.429334 Z M404.247296,175.629334 C400.731151,172.024801 400.731151,166.273866 404.247296,162.669334 C407.834236,159.110222 413.620356,159.110222 417.207296,162.669334 C420.807296,166.189334 420.807296,172.029334 417.207296,175.629334 C413.687296,179.229334 407.847296,179.229334 404.247296,175.629334 L404.247296,175.629334 Z" id="Shape-Copy-9" fill-rule="nonzero" transform="translate(378.6158, 223.9751) rotate(270) translate(-378.6158, -223.9751)"></path>
                <path d="M231.623648,287.949816 C220.825046,287.938114 211.09472,281.428131 206.963791,271.450889 C202.832863,261.473646 205.113488,249.990708 212.743648,242.349334 L258.34377,196.749334 L258.34377,261.229334 C258.365119,268.336365 255.545875,275.15734 250.512916,280.175276 C245.479956,285.193212 238.650584,287.992051 231.543648,287.949816 L231.623648,287.949816 Z M184.583648,240.989334 C169.826599,240.989334 157.863648,229.026382 157.863648,214.269334 C157.863648,199.512285 169.826599,187.549334 184.583648,187.549334 L248.983648,187.549334 L203.383648,233.149334 C198.183648,238.349334 191.383648,240.989334 184.503648,240.989334 L184.583648,240.989334 Z M270.183648,198.429334 C267.708741,196.133361 266.690101,192.666326 267.52974,189.396516 C268.36938,186.126705 270.932417,183.579392 274.207332,182.75989 C277.482248,181.940388 280.942949,182.980345 283.223648,185.469334 C286.55825,189.108476 286.426896,194.730633 282.925978,198.210073 C279.42506,201.689513 273.802201,201.786267 270.183648,198.429334 L270.183648,198.429334 Z M247.383648,175.629334 C243.867503,172.024801 243.867503,166.273866 247.383648,162.669334 C250.970588,159.110222 256.756708,159.110222 260.343648,162.669334 C263.943648,166.189334 263.943648,172.029334 260.343648,175.629334 C256.823648,179.229334 250.983648,179.229334 247.383648,175.629334 L247.383648,175.629334 Z" id="Shape-Copy-8" fill-rule="nonzero"></path>
                <path d="M74.76,287.949816 C63.9613978,287.938114 54.2310716,281.428131 50.1001432,271.450889 C45.9692147,261.473646 48.24984,249.990708 55.88,242.349334 L101.480122,196.749334 L101.480122,261.229334 C101.501471,268.336365 98.6822271,275.15734 93.6492678,280.175276 C88.6163084,285.193212 81.7869356,287.992051 74.68,287.949816 L74.76,287.949816 Z M27.72,240.989334 C12.9629515,240.989334 1,229.026382 1,214.269334 C1,199.512285 12.9629515,187.549334 27.72,187.549334 L92.12,187.549334 L46.52,233.149334 C41.32,238.349334 34.52,240.989334 27.64,240.989334 L27.72,240.989334 Z M113.32,198.429334 C110.845093,196.133361 109.826453,192.666326 110.666092,189.396516 C111.505732,186.126705 114.068769,183.579392 117.343684,182.75989 C120.6186,181.940388 124.079301,182.980345 126.36,185.469334 C129.694602,189.108476 129.563248,194.730633 126.06233,198.210073 C122.561412,201.689513 116.938553,201.786267 113.32,198.429334 L113.32,198.429334 Z M90.52,175.629334 C87.0038546,172.024801 87.0038546,166.273866 90.52,162.669334 C94.10694,159.110222 99.89306,159.110222 103.48,162.669334 C107.08,166.189334 107.08,172.029334 103.48,175.629334 C99.96,179.229334 94.12,179.229334 90.52,175.629334 L90.52,175.629334 Z" id="Shape-Copy-7" fill-rule="nonzero" transform="translate(64.8885, 223.9751) rotate(90) translate(-64.8885, -223.9751)"></path>
                <g id="bee-copy" transform="translate(943, 159.0866)" fill-rule="nonzero">
                    <path d="M73.76,128.000482 C62.9613978,127.98878 53.2310716,121.478797 49.1001432,111.501555 C44.9692147,101.524312 47.24984,90.0413738 54.88,82.4 L100.480122,36.8 L100.480122,101.28 C100.501471,108.387032 97.6822271,115.208007 92.6492678,120.225942 C87.6163084,125.243878 80.7869356,128.042718 73.68,128.000482 L73.76,128.000482 Z M26.72,81.04 C11.9629515,81.04 0,69.0770485 0,54.32 C0,39.5629515 11.9629515,27.6 26.72,27.6 L91.12,27.6 L45.52,73.2 C40.32,78.4 33.52,81.04 26.64,81.04 L26.72,81.04 Z M112.32,38.48 C109.845093,36.1840276 108.826453,32.7169921 109.666092,29.4471817 C110.505732,26.1773713 113.068769,23.6300583 116.343684,22.8105563 C119.6186,21.9910544 123.079301,23.0310108 125.36,25.52 C128.694602,29.1591425 128.563248,34.7812996 125.06233,38.2607394 C121.561412,41.7401793 115.938553,41.8369333 112.32,38.48 L112.32,38.48 Z M89.52,15.68 C86.0038546,12.0754675 86.0038546,6.32453249 89.52,2.72 C93.10694,-0.839111837 98.89306,-0.839111837 102.48,2.72 C106.08,6.24 106.08,12.08 102.48,15.68 C98.96,19.28 93.12,19.28 89.52,15.68 L89.52,15.68 Z" id="Shape"></path>
                </g>
            </g>
        </g>
    </g>
</svg>