<?xml version="1.0" encoding="UTF-8"?>
<svg id="Layer_1" xmlns="http://www.w3.org/2000/svg" version="1.1" viewBox="0 0 370 230">
  <!-- Generator: Adobe Illustrator 29.6.1, SVG Export Plug-In . SVG Version: 2.1.1 Build 9)  -->
  <defs>
    <style>
      .st0 {
        fill: #231f20;
      }
    </style>
  </defs>
  <g id="mask0_8000_19381">
    <path class="st0" d="M294.2,77.8c4,0,7.2,3.2,7.2,7.2s-3.2,7.2-7.2,7.2-7.2-3.2-7.2-7.2,3.2-7.2,7.2-7.2Z"/>
    <path class="st0" d="M315.7,77.8c4,0,7.2,3.2,7.2,7.2s-3.2,7.2-7.2,7.2-7.2-3.2-7.2-7.2,3.2-7.2,7.2-7.2Z"/>
    <path class="st0" d="M314.1,11.6c3.4-3.4,8.1-5.6,13.2-5.6s9.8,2.1,13.2,5.6c1.8,1.8,3.1,3.8,4,6,1,2.3,1.5,4.8,1.5,7.4,0,4.8-1.8,9.7-5.5,13.4l-32,32.3V25c0-5.2,2.1-9.9,5.5-13.4h0Z"/>
    <path class="st0" d="M301.4,25v45.7l-32-32.3c-3.7-3.7-5.5-8.5-5.5-13.4s.5-5.1,1.5-7.4c.9-2.2,2.2-4.2,4-6,3.4-3.4,8.1-5.5,13.2-5.5s9.8,2.1,13.2,5.6c3.4,3.4,5.5,8.1,5.5,13.4h0Z"/>
    <path class="st0" d="M247.8,89.4c0-4,3.2-7.2,7.2-7.2s7.2,3.2,7.2,7.2-3.2,7.2-7.2,7.2-7.2-3.2-7.2-7.2h0Z"/>
    <path class="st0" d="M247.8,68c0-3.9,3.2-7.1,7.1-7.1s7.1,3.2,7.1,7.1-3.2,7.1-7.1,7.1-7.1-3.2-7.1-7.1h0Z"/>
    <path class="st0" d="M240.6,75.3v-14.4h-64.6v14.4h64.6Z"/>
    <path class="st0" d="M240.6,96.8v-14.4h-64.6v14.4h64.6Z"/>
    <path class="st0" d="M201.3,50c-2.3-2.3-3.7-5.5-3.7-8.9s1.4-6.6,3.7-8.9c1.2-1.2,2.5-2.1,4-2.7s3.2-1,5-1c3.2,0,6.5,1.2,8.9,3.7l21.6,21.6h-30.5c-3.5,0-6.6-1.4-8.9-3.7h-.1Z"/>
    <path class="st0" d="M210.4,129c-3.2,0-6.4-1.2-8.8-3.7-2.4-2.4-3.7-5.6-3.7-8.8s.3-3.2.9-4.7c.6-1.5,1.5-2.9,2.8-4.2,2.3-2.3,5.4-3.7,8.8-3.7h30.2l-21.3,21.3c-2.4,2.4-5.6,3.7-8.8,3.7h0Z"/>
    <path class="st0" d="M124,130.8c0,4-3.2,7.2-7.2,7.2s-7.2-3.2-7.2-7.2,3.2-7.2,7.2-7.2,7.2,3.2,7.2,7.2Z"/>
    <path class="st0" d="M124,152.2c0,3.9-3.2,7.1-7.1,7.1s-7.1-3.2-7.1-7.1,3.2-7.1,7.1-7.1,7.1,3.2,7.1,7.1Z"/>
    <path class="st0" d="M195.9,173.7v14.3l-64.6-35.9v-14.3l64.6,35.9h0Z"/>
    <path class="st0" d="M161.6,105.7c3.2,0,6.4,1.2,8.8,3.7,2.4,2.4,3.7,5.6,3.7,8.8s-.3,3.2-.9,4.7c-.6,1.5-1.5,2.9-2.8,4.2-2.3,2.3-5.4,3.7-8.8,3.7h-30.2l21.3-21.3c2.4-2.4,5.6-3.7,8.8-3.7h0Z"/>
    <path class="st0" d="M131.3,190v-30.2l21.3,21.3c2.4,2.4,3.7,5.6,3.7,8.8s-.4,3.4-1,4.9c-.6,1.4-1.5,2.8-2.7,3.9-2.3,2.3-5.4,3.7-8.8,3.7s-6.6-1.4-8.8-3.7c-2.3-2.3-3.7-5.4-3.7-8.8h0Z"/>
    <path class="st0" d="M319.3,143.9c0,4-3.2,7.2-7.2,7.2s-7.2-3.2-7.2-7.2,3.2-7.2,7.2-7.2,7.2,3.2,7.2,7.2Z"/>
    <path class="st0" d="M319.3,122.3c0,4-3.2,7.2-7.2,7.2s-7.2-3.2-7.2-7.2,3.2-7.2,7.2-7.2,7.2,3.2,7.2,7.2Z"/>
    <path class="st0" d="M330.1,165.6v-25.3l17.9,17.9c2,2,3,4.7,3,7.4s-.3,2.8-.8,4.1c-.5,1.2-1.3,2.3-2.2,3.3-1.9,1.9-4.5,3.1-7.4,3.1s-5.5-1.2-7.4-3.1c-1.9-1.9-3.1-4.5-3.1-7.4Z"/>
    <path class="st0" d="M352.1,154.1l-17.9-17.9h25.3c2.9,0,5.5,1.2,7.4,3.1,1,1,1.8,2.2,2.3,3.5.5,1.2.8,2.5.8,3.9,0,2.7-1,5.3-3,7.4-2,2-4.7,3-7.4,3s-5.3-1-7.4-3h0Z"/>
    <path class="st0" d="M359,129.5h-25.3l17.9-17.9c2-2,4.7-3.1,7.4-3.1s2.8.3,4.1.8c1.2.5,2.3,1.3,3.3,2.2,1.9,1.9,3,4.5,3,7.4s-1.2,5.5-3.1,7.4c-1.9,1.9-4.5,3.1-7.4,3.1h.1Z"/>
    <path class="st0" d="M347.5,107.5l-17.9,17.9v-25.3c0-2.9,1.2-5.5,3.1-7.4,1-1,2.2-1.8,3.5-2.3,1.2-.5,2.5-.8,3.9-.8,2.7,0,5.3,1,7.4,3,2,2,3,4.7,3,7.4s-1,5.3-3,7.4h0Z"/>
    <path class="st0" d="M297.8,108.3h-14.4v49.9h14.4v-49.9Z"/>
    <path class="st0" d="M231.7,207.1c4.1,0,7.4,3.3,7.4,7.4s-3.3,7.4-7.4,7.4-7.4-3.3-7.4-7.4,3.3-7.4,7.4-7.4Z"/>
    <path class="st0" d="M253.9,207.1c4,0,7.3,3.3,7.3,7.3s-3.3,7.3-7.3,7.3-7.3-3.3-7.3-7.3,3.3-7.3,7.3-7.3h0Z"/>
    <path class="st0" d="M224.2,184.7v14.8h37.1v-14.8h-37.1,0Z"/>
    <path class="st0" d="M224.3,162.4v14.8h37.1v-14.8h-37.1,0Z"/>
    <path class="st0" d="M224.3,140.2v14.8h37.1v-14.8h-37.1,0Z"/>
    <path class="st0" d="M295,216.3c0,3.3-1.3,6.7-3.8,9.2s-5.9,3.8-9.2,3.8-3.4-.3-4.9-.9c-1.6-.6-3.1-1.6-4.4-2.9-2.4-2.4-3.8-5.6-3.8-9.2v-31.5l22.3,22.3c2.6,2.6,3.8,5.9,3.8,9.2h0Z"/>
    <path class="st0" d="M194.8,207l22.1-22.1v31.2c0,3.6-1.4,6.8-3.8,9.1-1.3,1.3-2.7,2.2-4.3,2.9-1.5.6-3.1.9-4.8.9-3.3,0-6.6-1.3-9.1-3.8s-3.8-5.8-3.8-9.1,1.3-6.6,3.8-9.1h0Z"/>
    <path class="st0" d="M102.1,52.9c0-4.2,3.4-7.6,7.6-7.6s7.6,3.4,7.6,7.6-3.4,7.6-7.6,7.6-7.6-3.4-7.6-7.6Z"/>
    <path class="st0" d="M102.7,102.5c-2,2-4.8,3.3-7.8,3.3s-5.8-1.2-7.8-3.3c-1-1-1.8-2.2-2.3-3.5-.6-1.3-.9-2.8-.9-4.3,0-2.8,1.1-5.6,3.2-7.8l18.8-18.8v26.7c0,3-1.2,5.8-3.3,7.8h.1Z"/>
    <path class="st0" d="M113.5,94.7v-26.7l18.8,18.8c2.2,2.2,3.2,5,3.2,7.8s-.3,3-.9,4.3c-.5,1.2-1.3,2.5-2.3,3.5-2,2-4.8,3.3-7.8,3.3s-5.8-1.2-7.8-3.3c-2-2-3.3-4.8-3.3-7.8h.1Z"/>
    <path class="st0" d="M105.9,11v26.7l-18.8-18.8c-2.2-2.2-3.2-5-3.2-7.8s.3-3,.9-4.3c.5-1.2,1.3-2.5,2.3-3.5,2-2.1,4.8-3.3,7.8-3.3s5.8,1.2,7.8,3.3c2,2,3.3,4.8,3.3,7.8h-.1Z"/>
    <path class="st0" d="M116.8,3.3c2-2.1,4.7-3.3,7.8-3.3s5.8,1.2,7.8,3.3c1,1,1.8,2.2,2.3,3.5.6,1.3.9,2.8.9,4.3,0,2.8-1.1,5.6-3.2,7.8l-18.8,18.8V11c0-3,1.2-5.8,3.3-7.8h0Z"/>
    <path class="st0" d="M60.1,45.8c-2-2-3.3-4.8-3.3-7.8s1.2-5.8,3.3-7.8c1-1,2.2-1.8,3.5-2.3,1.3-.6,2.8-.9,4.3-.9,2.8,0,5.6,1.1,7.8,3.2l18.8,18.8h-26.7c-3,0-5.8-1.2-7.8-3.3h0Z"/>
    <path class="st0" d="M67.9,56.7h26.7l-18.8,18.8c-2.2,2.2-5,3.2-7.8,3.2s-3-.3-4.3-.9c-1.2-.5-2.5-1.3-3.5-2.3-2-2-3.2-4.8-3.2-7.8s1.2-5.8,3.3-7.8c2-2,4.8-3.3,7.8-3.3h-.2Z"/>
    <path class="st0" d="M151.5,49.1h-26.7l18.8-18.8c2.2-2.2,5-3.2,7.8-3.2s3,.3,4.3.9c1.2.5,2.5,1.3,3.5,2.3,2,2,3.2,4.8,3.2,7.8s-1.2,5.8-3.3,7.8c-2,2-4.8,3.3-7.8,3.3h.2Z"/>
    <path class="st0" d="M159.4,59.9c2,2,3.3,4.8,3.3,7.8s-1.2,5.8-3.3,7.8c-1,1-2.2,1.8-3.5,2.3-1.3.6-2.8.9-4.4.9-2.8,0-5.6-1.1-7.8-3.2l-18.8-18.8h26.7c3,0,5.8,1.2,7.8,3.3h0Z"/>
    <path class="st0" d="M77.1,137.7c-4,0-7.3-3.2-7.3-7.3s3.2-7.3,7.3-7.3,7.3,3.2,7.3,7.3-3.2,7.3-7.3,7.3Z"/>
    <path class="st0" d="M55.4,137.7c-4,0-7.2-3.2-7.2-7.2s3.2-7.2,7.2-7.2,7.2,3.2,7.2,7.2-3.2,7.2-7.2,7.2Z"/>
    <path class="st0" d="M62.6,210.6h-14.5l21.8-65.6h14.5s-21.8,65.6-21.8,65.6Z"/>
    <path class="st0" d="M40.7,210.6h-14.5l21.8-65.6h14.5l-21.8,65.6Z"/>
    <path class="st0" d="M7.9,128.7c0-3.3,1.2-6.6,3.8-9.1,2.5-2.5,5.8-3.8,9.1-3.8s3.3.3,4.8.9c1.6.6,3,1.6,4.3,2.8,2.3,2.3,3.8,5.5,3.8,9.1v31l-21.9-21.9c-2.5-2.5-3.8-5.8-3.8-9.1h0Z"/>
    <path class="st0" d="M110.1,205.1c0,3.3-1.2,6.6-3.8,9.1-2.5,2.5-5.8,3.8-9.1,3.8s-3.3-.3-4.8-.9c-1.6-.6-3-1.6-4.3-2.8-2.3-2.3-3.8-5.5-3.8-9.1v-31l21.9,21.9c2.5,2.5,3.8,5.8,3.8,9.1h.1Z"/>
  </g>
</svg>