<svg width="481" height="412" viewBox="0 0 481 412" fill="none" xmlns="http://www.w3.org/2000/svg">
  <path d="M8.20089 16V4.832H9.99289L13.1929 10.848H13.2729L16.4889 4.832H18.2169V16H16.9049V6.592H16.8249L15.8809 8.464L13.2089 13.328L10.5369 8.464L9.59289 6.592H9.51289V16H8.20089ZM28.2236 16H27.5036C26.5596 16 26.1756 15.424 26.0796 14.656H25.9996C25.6476 15.664 24.7676 16.192 23.6156 16.192C21.8716 16.192 20.8476 15.232 20.8476 13.696C20.8476 12.144 21.9676 11.28 24.3676 11.28H25.9996V10.464C25.9996 9.296 25.3596 8.656 24.0476 8.656C23.0556 8.656 22.3996 9.136 21.9516 9.888L21.1836 9.168C21.6316 8.288 22.6236 7.552 24.1116 7.552C26.0956 7.552 27.2796 8.592 27.2796 10.336V14.88H28.2236V16ZM23.8236 15.104C25.0876 15.104 25.9996 14.448 25.9996 13.6V12.24H24.3036C22.8476 12.24 22.1916 12.688 22.1916 13.488V13.824C22.1916 14.64 22.8316 15.104 23.8236 15.104ZM31.7769 16H30.4969V7.744H31.7769V9.264H31.8569C32.1449 8.48 32.8969 7.744 34.2409 7.744H34.7369V9.024H33.9849C32.6089 9.024 31.7769 9.616 31.7769 10.4V16ZM36.8183 16V4.16H38.0983V11.664H38.1623L39.4263 10.256L41.7623 7.744H43.3143L40.2583 11.008L43.6183 16H42.0663L39.3303 11.792L38.0983 13.056V16H36.8183ZM48.5405 16.192C46.3005 16.192 44.8285 14.496 44.8285 11.872C44.8285 9.248 46.3005 7.552 48.5405 7.552C50.7485 7.552 52.1085 9.248 52.1085 11.584V12.192H46.1725V12.576C46.1725 14 47.0845 15.072 48.6205 15.072C49.6605 15.072 50.4605 14.56 50.8925 13.648L51.8045 14.304C51.2765 15.424 50.0925 16.192 48.5405 16.192ZM48.5405 8.624C47.1485 8.624 46.1725 9.68 46.1725 11.12V11.232H50.7325V11.056C50.7325 9.6 49.8525 8.624 48.5405 8.624ZM58.0882 16H56.4882C55.6082 16 55.1282 15.44 55.1282 14.64V8.864H53.7682V7.744H54.5362C55.0802 7.744 55.2562 7.552 55.2562 6.992V5.456H56.4082V7.744H58.2162V8.864H56.4082V14.88H58.0882V16ZM73.4756 16H72.0676L70.9476 12.704H66.4356L65.3156 16H63.9556L67.8596 4.832H69.5716L73.4756 16ZM70.6116 11.52L68.7236 6.08H68.6436L66.7556 11.52H70.6116ZM76.9239 16H75.6439V7.744H76.9239V9.088H76.9879C77.3879 8.16 78.0919 7.552 79.3239 7.552C81.0199 7.552 82.0919 8.704 82.0919 10.704V16H80.8119V10.928C80.8119 9.456 80.1719 8.704 78.9399 8.704C77.9159 8.704 76.9239 9.216 76.9239 10.272V16ZM91.9041 16H91.1841C90.2401 16 89.8561 15.424 89.7601 14.656H89.6801C89.3281 15.664 88.4481 16.192 87.2961 16.192C85.5521 16.192 84.5281 15.232 84.5281 13.696C84.5281 12.144 85.6481 11.28 88.0481 11.28H89.6801V10.464C89.6801 9.296 89.0401 8.656 87.7281 8.656C86.7361 8.656 86.0801 9.136 85.6321 9.888L84.8641 9.168C85.3121 8.288 86.3041 7.552 87.7921 7.552C89.7761 7.552 90.9601 8.592 90.9601 10.336V14.88H91.9041V16ZM87.5041 15.104C88.7681 15.104 89.6801 14.448 89.6801 13.6V12.24H87.9841C86.5281 12.24 85.8721 12.688 85.8721 13.488V13.824C85.8721 14.64 86.5121 15.104 87.5041 15.104ZM96.6733 16H95.5373C94.6573 16 94.1773 15.44 94.1773 14.672V4.16H95.4573V14.88H96.6733V16ZM101.915 13.36L103.915 7.744H105.179L101.483 17.92C101.115 18.912 100.779 19.2 99.5628 19.2H98.9068V18.08H100.203L100.827 16.32L97.7388 7.744H99.0188L101.003 13.36L101.387 14.704H101.467L101.915 13.36ZM109.675 16.192C108.155 16.192 107.147 15.552 106.411 14.576L107.323 13.84C107.963 14.64 108.731 15.104 109.771 15.104C110.859 15.104 111.499 14.608 111.499 13.76C111.499 13.12 111.147 12.624 110.059 12.464L109.403 12.368C107.883 12.144 106.747 11.52 106.747 9.984C106.747 8.352 108.011 7.552 109.691 7.552C111.019 7.552 111.899 8.048 112.571 8.88L111.723 9.648C111.355 9.136 110.651 8.64 109.595 8.64C108.539 8.64 107.979 9.136 107.979 9.92C107.979 10.72 108.539 11.04 109.563 11.2L110.203 11.296C112.027 11.568 112.731 12.368 112.731 13.616C112.731 15.216 111.563 16.192 109.675 16.192ZM116.078 5.808C115.534 5.808 115.294 5.52 115.294 5.088V4.88C115.294 4.448 115.534 4.16 116.078 4.16C116.622 4.16 116.862 4.448 116.862 4.88V5.088C116.862 5.52 116.622 5.808 116.078 5.808ZM115.438 16V7.744H116.718V16H115.438ZM122.365 16.192C120.845 16.192 119.837 15.552 119.101 14.576L120.013 13.84C120.653 14.64 121.421 15.104 122.461 15.104C123.549 15.104 124.189 14.608 124.189 13.76C124.189 13.12 123.837 12.624 122.749 12.464L122.093 12.368C120.573 12.144 119.437 11.52 119.437 9.984C119.437 8.352 120.701 7.552 122.381 7.552C123.709 7.552 124.589 8.048 125.261 8.88L124.413 9.648C124.045 9.136 123.341 8.64 122.285 8.64C121.229 8.64 120.669 9.136 120.669 9.92C120.669 10.72 121.229 11.04 122.253 11.2L122.893 11.296C124.717 11.568 125.421 12.368 125.421 13.616C125.421 15.216 124.253 16.192 122.365 16.192ZM12.3769 36.192C9.49689 36.192 7.64089 34.16 7.64089 30.416C7.64089 26.672 9.49689 24.64 12.3769 24.64C15.2569 24.64 17.1129 26.672 17.1129 30.416C17.1129 34.16 15.2569 36.192 12.3769 36.192ZM12.3769 34.992C14.3129 34.992 15.6729 33.552 15.6729 31.344V29.488C15.6729 27.28 14.3129 25.84 12.3769 25.84C10.4409 25.84 9.08089 27.28 9.08089 29.488V31.344C9.08089 33.552 10.4409 34.992 12.3769 34.992ZM21.1274 36H19.8474V27.744H21.1274V29.264H21.2074C21.4954 28.48 22.2474 27.744 23.5914 27.744H24.0874V29.024H23.3354C21.9594 29.024 21.1274 29.616 21.1274 30.4V36ZM29.1627 36.192C26.8427 36.192 25.4827 34.512 25.4827 31.872C25.4827 29.232 26.8427 27.552 29.1627 27.552C30.7947 27.552 31.7707 28.352 32.2507 29.488L31.1787 30.032C30.8747 29.184 30.1707 28.688 29.1627 28.688C27.6427 28.688 26.8587 29.728 26.8587 31.168V32.576C26.8587 34.016 27.6427 35.056 29.1627 35.056C30.2027 35.056 30.9547 34.56 31.4027 33.616L32.3307 34.24C31.8027 35.424 30.7307 36.192 29.1627 36.192ZM34.5839 36V24.16H35.8639V29.088H35.9279C36.3279 28.16 37.0319 27.552 38.2639 27.552C39.9599 27.552 41.0319 28.704 41.0319 30.704V36H39.7519V30.928C39.7519 29.456 39.1119 28.704 37.8799 28.704C36.8559 28.704 35.8639 29.216 35.8639 30.272V36H34.5839ZM47.228 36.192C44.988 36.192 43.516 34.496 43.516 31.872C43.516 29.248 44.988 27.552 47.228 27.552C49.436 27.552 50.796 29.248 50.796 31.584V32.192H44.86V32.576C44.86 34 45.772 35.072 47.308 35.072C48.348 35.072 49.148 34.56 49.58 33.648L50.492 34.304C49.964 35.424 48.78 36.192 47.228 36.192ZM47.228 28.624C45.836 28.624 44.86 29.68 44.86 31.12V31.232H49.42V31.056C49.42 29.6 48.54 28.624 47.228 28.624ZM55.8317 36.192C54.3117 36.192 53.3037 35.552 52.5677 34.576L53.4797 33.84C54.1197 34.64 54.8877 35.104 55.9277 35.104C57.0157 35.104 57.6557 34.608 57.6557 33.76C57.6557 33.12 57.3037 32.624 56.2157 32.464L55.5597 32.368C54.0397 32.144 52.9037 31.52 52.9037 29.984C52.9037 28.352 54.1677 27.552 55.8477 27.552C57.1757 27.552 58.0557 28.048 58.7277 28.88L57.8797 29.648C57.5117 29.136 56.8077 28.64 55.7517 28.64C54.6957 28.64 54.1357 29.136 54.1357 29.92C54.1357 30.72 54.6957 31.04 55.7197 31.2L56.3597 31.296C58.1837 31.568 58.8877 32.368 58.8877 33.616C58.8877 35.216 57.7197 36.192 55.8317 36.192ZM64.9095 36H63.3095C62.4295 36 61.9495 35.44 61.9495 34.64V28.864H60.5895V27.744H61.3575C61.9015 27.744 62.0775 27.552 62.0775 26.992V25.456H63.2295V27.744H65.0375V28.864H63.2295V34.88H64.9095V36ZM68.8213 36H67.5413V27.744H68.8213V29.264H68.9013C69.1893 28.48 69.9413 27.744 71.2853 27.744H71.7813V29.024H71.0293C69.6533 29.024 68.8213 29.616 68.8213 30.4V36ZM80.5202 36H79.8002C78.8562 36 78.4722 35.424 78.3762 34.656H78.2962C77.9442 35.664 77.0642 36.192 75.9122 36.192C74.1682 36.192 73.1442 35.232 73.1442 33.696C73.1442 32.144 74.2642 31.28 76.6642 31.28H78.2962V30.464C78.2962 29.296 77.6562 28.656 76.3442 28.656C75.3522 28.656 74.6962 29.136 74.2482 29.888L73.4802 29.168C73.9282 28.288 74.9202 27.552 76.4082 27.552C78.3922 27.552 79.5762 28.592 79.5762 30.336V34.88H80.5202V36ZM76.1202 35.104C77.3842 35.104 78.2962 34.448 78.2962 33.6V32.24H76.6002C75.1442 32.24 74.4882 32.688 74.4882 33.488V33.824C74.4882 34.64 75.1282 35.104 76.1202 35.104ZM86.2174 36H84.6174C83.7374 36 83.2574 35.44 83.2574 34.64V28.864H81.8974V27.744H82.6654C83.2094 27.744 83.3854 27.552 83.3854 26.992V25.456H84.5374V27.744H86.3454V28.864H84.5374V34.88H86.2174V36ZM91.9067 36.192C89.6987 36.192 88.1787 34.496 88.1787 31.872C88.1787 29.248 89.6987 27.552 91.9067 27.552C94.1147 27.552 95.6347 29.248 95.6347 31.872C95.6347 34.496 94.1147 36.192 91.9067 36.192ZM91.9067 35.056C93.2827 35.056 94.2587 34.208 94.2587 32.464V31.28C94.2587 29.536 93.2827 28.688 91.9067 28.688C90.5307 28.688 89.5547 29.536 89.5547 31.28V32.464C89.5547 34.208 90.5307 35.056 91.9067 35.056ZM99.4662 36H98.1862V27.744H99.4662V29.264H99.5462C99.8342 28.48 100.586 27.744 101.93 27.744H102.426V29.024H101.674C100.298 29.024 99.4662 29.616 99.4662 30.4V36Z" fill="black"/>
  <path d="M41.5 250.5H40.5V251.5H41.5V250.5ZM434 250.5V251.5H435V250.5H434ZM434.707 126.763C434.317 126.372 433.683 126.372 433.293 126.763L426.929 133.126C426.538 133.517 426.538 134.15 426.929 134.541C427.319 134.931 427.953 134.931 428.343 134.541L434 128.884L439.657 134.541C440.047 134.931 440.681 134.931 441.071 134.541C441.462 134.15 441.462 133.517 441.071 133.126L434.707 126.763ZM41.5 119H40.5V121.989H41.5H42.5V119H41.5ZM41.5 127.966H40.5V133.943H41.5H42.5V127.966H41.5ZM41.5 139.92H40.5V145.898H41.5H42.5V139.92H41.5ZM41.5 151.875H40.5V157.852H41.5H42.5V151.875H41.5ZM41.5 163.83H40.5V169.807H41.5H42.5V163.83H41.5ZM41.5 175.784H40.5V181.761H41.5H42.5V175.784H41.5ZM41.5 187.739H40.5V193.716H41.5H42.5V187.739H41.5ZM41.5 199.693H40.5V205.67H41.5H42.5V199.693H41.5ZM41.5 211.648H40.5V217.625H41.5H42.5V211.648H41.5ZM41.5 223.602H40.5V229.58H41.5H42.5V223.602H41.5ZM41.5 235.557H40.5V241.534H41.5H42.5V235.557H41.5ZM41.5 247.511H40.5V250.5H41.5H42.5V247.511H41.5ZM41.5 250.5V251.5H44.4735V250.5V249.5H41.5V250.5ZM50.4205 250.5V251.5H56.3674V250.5V249.5H50.4205V250.5ZM62.3144 250.5V251.5H68.2614V250.5V249.5H62.3144V250.5ZM74.2083 250.5V251.5H80.1553V250.5V249.5H74.2083V250.5ZM86.1023 250.5V251.5H92.0492V250.5V249.5H86.1023V250.5ZM97.9962 250.5V251.5H103.943V250.5V249.5H97.9962V250.5ZM109.89 250.5V251.5H115.837V250.5V249.5H109.89V250.5ZM121.784 250.5V251.5H127.731V250.5V249.5H121.784V250.5ZM133.678 250.5V251.5H139.625V250.5V249.5H133.678V250.5ZM145.572 250.5V251.5H151.519V250.5V249.5H145.572V250.5ZM157.466 250.5V251.5H163.413V250.5V249.5H157.466V250.5ZM169.36 250.5V251.5H175.307V250.5V249.5H169.36V250.5ZM181.254 250.5V251.5H187.201V250.5V249.5H181.254V250.5ZM193.148 250.5V251.5H199.095V250.5V249.5H193.148V250.5ZM205.042 250.5V251.5H210.989V250.5V249.5H205.042V250.5ZM216.936 250.5V251.5H222.883V250.5V249.5H216.936V250.5ZM228.83 250.5V251.5H234.777V250.5V249.5H228.83V250.5ZM240.724 250.5V251.5H246.67V250.5V249.5H240.724V250.5ZM252.617 250.5V251.5H258.564V250.5V249.5H252.617V250.5ZM264.511 250.5V251.5H270.458V250.5V249.5H264.511V250.5ZM276.405 250.5V251.5H282.352V250.5V249.5H276.405V250.5ZM288.299 250.5V251.5H294.246V250.5V249.5H288.299V250.5ZM300.193 250.5V251.5H306.14V250.5V249.5H300.193V250.5ZM312.087 250.5V251.5H318.034V250.5V249.5H312.087V250.5ZM323.981 250.5V251.5H329.928V250.5V249.5H323.981V250.5ZM335.875 250.5V251.5H341.822V250.5V249.5H335.875V250.5ZM347.769 250.5V251.5H353.716V250.5V249.5H347.769V250.5ZM359.663 250.5V251.5H365.61V250.5V249.5H359.663V250.5ZM371.557 250.5V251.5H377.504V250.5V249.5H371.557V250.5ZM383.451 250.5V251.5H389.398V250.5V249.5H383.451V250.5ZM395.345 250.5V251.5H401.292V250.5V249.5H395.345V250.5ZM407.239 250.5V251.5H413.186V250.5V249.5H407.239V250.5ZM419.132 250.5V251.5H425.079V250.5V249.5H419.132V250.5ZM431.026 250.5V251.5H434V250.5V249.5H431.026V250.5ZM434 250.5H435V247.424H434H433V250.5H434ZM434 241.273H435V235.121H434H433V241.273H434ZM434 228.97H435V222.818H434H433V228.97H434ZM434 216.667H435V210.515H434H433V216.667H434ZM434 204.364H435V198.212H434H433V204.364H434ZM434 192.061H435V185.909H434H433V192.061H434ZM434 179.758H435V173.606H434H433V179.758H434ZM434 167.454H435V161.303H434H433V167.454H434ZM434 155.151H435V149H434H433V155.151H434ZM434 142.848H435V136.697H434H433V142.848H434ZM434 130.545H435V127.47H434H433V130.545H434Z" fill="#878D96"/>
  <path d="M217.888 308H216.48L215.36 304.704H210.848L209.728 308H208.368L212.272 296.832H213.984L217.888 308ZM215.024 303.52L213.136 298.08H213.056L211.168 303.52H215.024ZM221.336 308H220.056V299.744H221.336V301.088H221.4C221.8 300.16 222.504 299.552 223.736 299.552C225.432 299.552 226.504 300.704 226.504 302.704V308H225.224V302.928C225.224 301.456 224.584 300.704 223.352 300.704C222.328 300.704 221.336 301.216 221.336 302.272V308ZM236.317 308H235.597C234.653 308 234.269 307.424 234.173 306.656H234.093C233.741 307.664 232.861 308.192 231.709 308.192C229.965 308.192 228.941 307.232 228.941 305.696C228.941 304.144 230.061 303.28 232.461 303.28H234.093V302.464C234.093 301.296 233.453 300.656 232.141 300.656C231.149 300.656 230.493 301.136 230.045 301.888L229.277 301.168C229.725 300.288 230.717 299.552 232.205 299.552C234.189 299.552 235.373 300.592 235.373 302.336V306.88H236.317V308ZM231.917 307.104C233.181 307.104 234.093 306.448 234.093 305.6V304.24H232.397C230.941 304.24 230.285 304.688 230.285 305.488V305.824C230.285 306.64 230.925 307.104 231.917 307.104ZM241.086 308H239.95C239.07 308 238.59 307.44 238.59 306.672V296.16H239.87V306.88H241.086V308ZM246.327 305.36L248.327 299.744H249.591L245.895 309.92C245.527 310.912 245.191 311.2 243.975 311.2H243.319V310.08H244.615L245.239 308.32L242.151 299.744H243.431L245.415 305.36L245.799 306.704H245.879L246.327 305.36ZM254.088 308.192C252.568 308.192 251.56 307.552 250.824 306.576L251.736 305.84C252.376 306.64 253.144 307.104 254.184 307.104C255.272 307.104 255.912 306.608 255.912 305.76C255.912 305.12 255.56 304.624 254.472 304.464L253.816 304.368C252.296 304.144 251.16 303.52 251.16 301.984C251.16 300.352 252.424 299.552 254.104 299.552C255.432 299.552 256.312 300.048 256.984 300.88L256.136 301.648C255.768 301.136 255.064 300.64 254.008 300.64C252.952 300.64 252.392 301.136 252.392 301.92C252.392 302.72 252.952 303.04 253.976 303.2L254.616 303.296C256.44 303.568 257.144 304.368 257.144 305.616C257.144 307.216 255.976 308.192 254.088 308.192ZM263.165 308H261.565C260.685 308 260.205 307.44 260.205 306.64V300.864H258.845V299.744H259.613C260.157 299.744 260.333 299.552 260.333 298.992V297.456H261.485V299.744H263.293V300.864H261.485V306.88H263.165V308Z" fill="black"/>
  <circle cx="237.539" cy="250.539" r="33.5387" fill="#DDE1E6"/>
  <g >
    <path d="M238.015 253.784C236.419 253.784 235.14 252.504 235.14 250.909C235.14 249.313 236.419 248.034 238.015 248.034C239.61 248.034 240.89 249.313 240.89 250.909C240.89 252.504 239.61 253.784 238.015 253.784Z" fill="black"/>
    <path d="M256.874 253.554C257.636 254.316 258.11 255.365 258.11 256.515C258.11 257.665 257.636 258.715 256.874 259.477C256.486 259.865 256.04 260.167 255.551 260.368C255.048 260.583 254.488 260.698 253.898 260.698C252.82 260.698 251.756 260.282 250.937 259.477L243.778 252.318H253.913C255.063 252.318 256.112 252.792 256.874 253.554Z" fill="black"/>
    <path d="M253.899 249.442H243.765L250.923 242.283C251.743 241.464 252.821 241.061 253.885 241.061C254.474 241.061 255.02 241.176 255.538 241.392C256.012 241.593 256.472 241.895 256.86 242.283C257.622 243.045 258.097 244.094 258.097 245.244C258.097 246.394 257.622 247.444 256.86 248.205C256.098 248.967 255.049 249.442 253.899 249.442Z" fill="black"/>
    <path d="M222.115 252.332H232.25L225.091 259.491C224.272 260.31 223.194 260.713 222.13 260.713C221.54 260.713 220.994 260.598 220.477 260.382C220.002 260.181 219.542 259.879 219.154 259.491C218.392 258.729 217.918 257.68 217.918 256.53C217.918 255.38 218.392 254.33 219.154 253.568C219.916 252.806 220.965 252.332 222.115 252.332Z" fill="black"/>
    <path d="M219.154 248.205C218.392 247.444 217.918 246.394 217.918 245.244C217.918 244.094 218.392 243.045 219.154 242.283C219.542 241.895 219.988 241.593 220.477 241.392C220.98 241.176 221.54 241.061 222.13 241.061C223.208 241.061 224.272 241.478 225.091 242.283L232.25 249.442H222.115C220.965 249.442 219.916 248.967 219.154 248.205Z" fill="black"/>
    <path d="M235.341 269.739C234.579 270.501 233.529 270.975 232.379 270.975C231.229 270.975 230.18 270.501 229.418 269.739C229.03 269.351 228.728 268.905 228.527 268.416C228.311 267.913 228.196 267.352 228.196 266.763C228.196 265.685 228.599 264.621 229.418 263.802L236.577 256.643V266.777C236.577 267.927 236.103 268.977 235.341 269.739Z" fill="black"/>
    <path d="M239.452 266.777V256.643L246.611 263.802C247.43 264.621 247.833 265.699 247.833 266.763C247.833 267.352 247.718 267.899 247.502 268.416C247.301 268.891 246.999 269.351 246.611 269.739C245.849 270.501 244.8 270.961 243.65 270.961C242.5 270.961 241.45 270.486 240.688 269.724C239.927 268.962 239.452 267.913 239.452 266.763V266.777Z" fill="black"/>
    <path d="M236.562 234.994V245.129L229.404 237.97C228.584 237.15 228.182 236.072 228.182 235.009C228.182 234.419 228.297 233.873 228.512 233.355C228.714 232.881 229.015 232.421 229.404 232.033C230.165 231.271 231.215 230.811 232.365 230.811C233.515 230.811 234.564 231.285 235.326 232.047C236.088 232.809 236.562 233.859 236.562 235.009V234.994Z" fill="black"/>
    <path d="M240.688 232.018C241.45 231.257 242.5 230.782 243.65 230.782C244.8 230.782 245.849 231.257 246.611 232.018C246.999 232.407 247.301 232.852 247.502 233.341C247.718 233.844 247.833 234.405 247.833 234.994C247.833 236.072 247.43 237.136 246.611 237.955L239.452 245.114V234.98C239.452 233.83 239.927 232.78 240.688 232.018Z" fill="black"/>
  </g>
  <path d="M411.528 308H410.04L407.32 296.832H408.744L409.944 302.208L410.872 306.384H410.904L411.944 302.208L413.352 296.832H414.888L416.248 302.208L417.288 306.368H417.336L418.296 302.208L419.56 296.832H420.936L418.072 308H416.584L415.128 302.432L414.104 298.336H414.072L413.016 302.432L411.528 308ZM424.18 308H422.9V299.744H424.18V301.264H424.26C424.548 300.48 425.3 299.744 426.644 299.744H427.14V301.024H426.388C425.012 301.024 424.18 301.616 424.18 302.4V308ZM429.862 297.808C429.318 297.808 429.078 297.52 429.078 297.088V296.88C429.078 296.448 429.318 296.16 429.862 296.16C430.406 296.16 430.646 296.448 430.646 296.88V297.088C430.646 297.52 430.406 297.808 429.862 297.808ZM429.222 308V299.744H430.502V308H429.222ZM437.092 308H435.492C434.612 308 434.132 307.44 434.132 306.64V300.864H432.772V299.744H433.54C434.084 299.744 434.26 299.552 434.26 298.992V297.456H435.412V299.744H437.22V300.864H435.412V306.88H437.092V308ZM442.765 308.192C440.525 308.192 439.053 306.496 439.053 303.872C439.053 301.248 440.525 299.552 442.765 299.552C444.973 299.552 446.333 301.248 446.333 303.584V304.192H440.397V304.576C440.397 306 441.309 307.072 442.845 307.072C443.885 307.072 444.685 306.56 445.117 305.648L446.029 306.304C445.501 307.424 444.317 308.192 442.765 308.192ZM442.765 300.624C441.373 300.624 440.397 301.68 440.397 303.12V303.232H444.957V303.056C444.957 301.6 444.077 300.624 442.765 300.624ZM450.169 308H448.889V299.744H450.169V301.264H450.249C450.537 300.48 451.289 299.744 452.633 299.744H453.129V301.024H452.377C451.001 301.024 450.169 301.616 450.169 302.4V308Z" fill="black"/>
  <circle cx="430.539" cy="250.539" r="33.5387" fill="#DDE1E6"/>
  <g >
    <path d="M439.375 239.365C437.78 239.365 436.501 238.085 436.501 236.49C436.501 234.894 437.78 233.615 439.375 233.615C440.97 233.615 442.249 234.894 442.249 236.49C442.249 238.085 440.97 239.365 439.375 239.365Z" fill="black"/>
    <path d="M430.796 239.364C429.229 239.364 427.95 238.099 427.95 236.518C427.95 234.936 429.215 233.671 430.796 233.671C432.376 233.671 433.641 234.936 433.641 236.518C433.641 238.099 432.376 239.364 430.796 239.364Z" fill="black"/>
    <path d="M422.173 268.16H416.425L430.795 242.285H436.544L422.173 268.16Z" fill="black"/>
    <path d="M449.42 254.431C449.42 255.711 448.931 256.99 447.954 257.967C446.977 258.945 445.698 259.434 444.419 259.434C443.758 259.434 443.126 259.304 442.551 259.074C441.947 258.83 441.372 258.456 440.884 257.967C439.978 257.062 439.418 255.811 439.418 254.431V242.342L447.968 250.895C448.946 251.872 449.434 253.152 449.434 254.431H449.42Z" fill="black"/>
    <path d="M415.635 242.268H427.721L419.171 250.821C418.193 251.798 416.914 252.287 415.635 252.287C414.931 252.287 414.27 252.143 413.667 251.884C413.092 251.64 412.56 251.281 412.086 250.821C411.181 249.915 410.62 248.664 410.62 247.284C410.62 245.904 411.181 244.654 412.086 243.748C412.991 242.843 414.241 242.282 415.621 242.282L415.635 242.268Z" fill="black"/>
  </g>
  <rect x="187" y="328" width="102" height="84" rx="11.1595" fill="#F2F4F8"/>
  <rect x="275.57" y="341.949" width="2.78988" height="19.5291" rx="1.39494" fill="#C1C7CD"/>
  <path d="M202.109 351.503C200.1 351.503 198.805 350.086 198.805 347.474C198.805 344.863 200.1 343.446 202.109 343.446C204.117 343.446 205.412 344.863 205.412 347.474C205.412 350.086 204.117 351.503 202.109 351.503ZM202.109 350.666C203.459 350.666 204.408 349.662 204.408 348.122V346.827C204.408 345.287 203.459 344.283 202.109 344.283C200.758 344.283 199.81 345.287 199.81 346.827V348.122C199.81 349.662 200.758 350.666 202.109 350.666ZM209.195 351.369H208.403C207.789 351.369 207.454 350.979 207.454 350.443V343.111H208.347V350.588H209.195V351.369ZM212.627 351.369H211.835C211.221 351.369 210.887 350.979 210.887 350.443V343.111H211.779V350.588H212.627V351.369ZM219.06 351.369H218.558C217.9 351.369 217.632 350.967 217.565 350.432H217.509C217.264 351.135 216.65 351.503 215.847 351.503C214.63 351.503 213.916 350.833 213.916 349.762C213.916 348.68 214.697 348.077 216.371 348.077H217.509V347.508C217.509 346.693 217.063 346.247 216.148 346.247C215.456 346.247 214.998 346.582 214.686 347.106L214.15 346.604C214.463 345.99 215.155 345.477 216.193 345.477C217.576 345.477 218.402 346.202 218.402 347.419V350.588H219.06V351.369ZM215.992 350.744C216.873 350.744 217.509 350.287 217.509 349.695V348.747H216.326C215.311 348.747 214.853 349.059 214.853 349.617V349.851C214.853 350.421 215.3 350.744 215.992 350.744ZM221.674 351.369H220.781V345.611H221.674V346.548H221.718C221.975 345.957 222.377 345.477 223.27 345.477C224.028 345.477 224.72 345.823 225.033 346.649H225.055C225.267 346.024 225.825 345.477 226.807 345.477C227.979 345.477 228.682 346.28 228.682 347.675V351.369H227.789V347.832C227.789 346.816 227.399 346.28 226.528 346.28C225.825 346.28 225.178 346.638 225.178 347.374V351.369H224.285V347.832C224.285 346.805 223.895 346.28 223.046 346.28C222.343 346.28 221.674 346.638 221.674 347.374V351.369ZM235.657 351.369H235.155C234.497 351.369 234.229 350.967 234.162 350.432H234.106C233.861 351.135 233.247 351.503 232.443 351.503C231.227 351.503 230.513 350.833 230.513 349.762C230.513 348.68 231.294 348.077 232.968 348.077H234.106V347.508C234.106 346.693 233.66 346.247 232.745 346.247C232.053 346.247 231.595 346.582 231.283 347.106L230.747 346.604C231.06 345.99 231.751 345.477 232.789 345.477C234.173 345.477 234.999 346.202 234.999 347.419V350.588H235.657V351.369ZM232.588 350.744C233.47 350.744 234.106 350.287 234.106 349.695V348.747H232.923C231.908 348.747 231.45 349.059 231.45 349.617V349.851C231.45 350.421 231.896 350.744 232.588 350.744Z" fill="#C1C7CD"/>
  <path d="M202.109 366.848C200.1 366.848 198.805 365.431 198.805 362.819C198.805 360.208 200.1 358.791 202.109 358.791C204.117 358.791 205.412 360.208 205.412 362.819C205.412 365.431 204.117 366.848 202.109 366.848ZM202.109 366.011C203.459 366.011 204.408 365.006 204.408 363.466V362.172C204.408 360.632 203.459 359.628 202.109 359.628C200.758 359.628 199.81 360.632 199.81 362.172V363.466C199.81 365.006 200.758 366.011 202.109 366.011ZM207.454 368.946V360.956H208.347V361.893H208.392C208.693 361.168 209.284 360.822 210.077 360.822C211.516 360.822 212.42 361.993 212.42 363.835C212.42 365.676 211.516 366.848 210.077 366.848C209.284 366.848 208.738 366.491 208.392 365.776H208.347V368.946H207.454ZM209.831 366.044C210.835 366.044 211.46 365.352 211.46 364.326V363.344C211.46 362.317 210.835 361.625 209.831 361.625C209.016 361.625 208.347 362.094 208.347 362.73V364.873C208.347 365.62 209.016 366.044 209.831 366.044ZM216.539 366.848C214.977 366.848 213.95 365.665 213.95 363.835C213.95 362.005 214.977 360.822 216.539 360.822C218.079 360.822 219.027 362.005 219.027 363.634V364.058H214.887V364.326C214.887 365.319 215.523 366.067 216.595 366.067C217.32 366.067 217.878 365.71 218.179 365.073L218.815 365.531C218.447 366.312 217.621 366.848 216.539 366.848ZM216.539 361.569C215.568 361.569 214.887 362.306 214.887 363.31V363.388H218.068V363.266C218.068 362.25 217.454 361.569 216.539 361.569ZM221.838 366.714H220.945V360.956H221.838V361.893H221.882C222.161 361.246 222.652 360.822 223.512 360.822C224.695 360.822 225.442 361.625 225.442 363.02V366.714H224.549V363.176C224.549 362.15 224.103 361.625 223.244 361.625C222.53 361.625 221.838 361.982 221.838 362.719V366.714ZM233.682 366.714H232.7L231.919 364.415H228.772L227.991 366.714H227.042L229.765 358.925H230.959L233.682 366.714ZM231.684 363.589L230.368 359.795H230.312L228.995 363.589H231.684ZM238.175 366.714H235.05V365.933H236.144V359.706H235.05V358.925H238.175V359.706H237.081V365.933H238.175V366.714Z" fill="black"/>
  <path d="M200.044 382.059L198.504 376.3H199.375L199.988 378.789L200.602 381.311H200.624L201.328 378.789L202.053 376.3H202.845L203.593 378.789L204.307 381.311H204.329L204.921 378.789L205.546 376.3H206.383L204.854 382.059H203.749L202.946 379.291L202.443 377.539H202.421L201.93 379.291L201.127 382.059H200.044ZM212.708 382.059H212.206C211.547 382.059 211.279 381.657 211.212 381.121H211.157C210.911 381.824 210.297 382.193 209.494 382.193C208.278 382.193 207.563 381.523 207.563 380.452C207.563 379.369 208.344 378.767 210.018 378.767H211.157V378.197C211.157 377.383 210.71 376.936 209.795 376.936C209.103 376.936 208.646 377.271 208.333 377.796L207.798 377.293C208.11 376.68 208.802 376.166 209.84 376.166C211.224 376.166 212.049 376.892 212.049 378.108V381.277H212.708V382.059ZM209.639 381.434C210.521 381.434 211.157 380.976 211.157 380.385V379.436H209.974C208.958 379.436 208.501 379.749 208.501 380.307V380.541C208.501 381.11 208.947 381.434 209.639 381.434ZM216.817 382.059H215.701C215.087 382.059 214.752 381.668 214.752 381.11V377.081H213.803V376.3H214.339C214.719 376.3 214.841 376.166 214.841 375.776V374.704H215.645V376.3H216.906V377.081H215.645V381.277H216.817V382.059ZM220.517 382.193C219.457 382.193 218.754 381.746 218.24 381.065L218.876 380.552C219.323 381.11 219.858 381.434 220.584 381.434C221.343 381.434 221.789 381.088 221.789 380.496C221.789 380.05 221.544 379.704 220.785 379.592L220.327 379.525C219.267 379.369 218.475 378.934 218.475 377.863C218.475 376.724 219.356 376.166 220.528 376.166C221.454 376.166 222.068 376.512 222.537 377.093L221.945 377.628C221.689 377.271 221.198 376.925 220.461 376.925C219.725 376.925 219.334 377.271 219.334 377.818C219.334 378.376 219.725 378.599 220.439 378.711L220.885 378.778C222.157 378.967 222.648 379.525 222.648 380.396C222.648 381.512 221.834 382.193 220.517 382.193ZM226.848 382.193C225.308 382.193 224.248 381.01 224.248 379.179C224.248 377.349 225.308 376.166 226.848 376.166C228.388 376.166 229.448 377.349 229.448 379.179C229.448 381.01 228.388 382.193 226.848 382.193ZM226.848 381.4C227.807 381.4 228.488 380.809 228.488 379.592V378.767C228.488 377.55 227.807 376.959 226.848 376.959C225.888 376.959 225.207 377.55 225.207 378.767V379.592C225.207 380.809 225.888 381.4 226.848 381.4ZM232.255 382.059H231.363V376.3H232.255V377.238H232.3C232.579 376.59 233.07 376.166 233.929 376.166C235.112 376.166 235.86 376.97 235.86 378.365V382.059H234.967V378.521C234.967 377.494 234.521 376.97 233.661 376.97C232.947 376.97 232.255 377.327 232.255 378.063V382.059ZM237.437 382.059L239.569 379.157L237.527 376.3H238.576L240.038 378.443H240.071L241.589 376.3H242.582L240.551 379.09L242.627 382.059H241.578L240.082 379.804H240.049L238.431 382.059H237.437Z" fill="#878D96"/>
  <path d="M205.055 397.402H204.073L203.292 395.103H200.145L199.363 397.402H198.415L201.138 389.613H202.332L205.055 397.402ZM203.057 394.278L201.74 390.483H201.685L200.368 394.278H203.057ZM207.595 397.402H206.702V391.644H207.595V392.581H207.64C207.919 391.934 208.41 391.51 209.269 391.51C210.452 391.51 211.199 392.314 211.199 393.709V397.402H210.307V393.865C210.307 392.838 209.86 392.314 209.001 392.314C208.287 392.314 207.595 392.671 207.595 393.407V397.402ZM215.879 397.402H214.763C214.15 397.402 213.815 397.012 213.815 396.454V392.425H212.866V391.644H213.402C213.781 391.644 213.904 391.51 213.904 391.12V390.048H214.708V391.644H215.969V392.425H214.708V396.621H215.879V397.402ZM217.85 397.402V389.144H218.743V392.581H218.787C219.066 391.934 219.557 391.51 220.417 391.51C221.6 391.51 222.347 392.314 222.347 393.709V397.402H221.454V393.865C221.454 392.838 221.008 392.314 220.149 392.314C219.435 392.314 218.743 392.671 218.743 393.407V397.402H217.85ZM225.532 397.402H224.639V391.644H225.532V392.704H225.588C225.788 392.157 226.313 391.644 227.25 391.644H227.596V392.537H227.072C226.112 392.537 225.532 392.95 225.532 393.497V397.402ZM231.305 397.536C229.765 397.536 228.704 396.353 228.704 394.523C228.704 392.693 229.765 391.51 231.305 391.51C232.845 391.51 233.905 392.693 233.905 394.523C233.905 396.353 232.845 397.536 231.305 397.536ZM231.305 396.744C232.264 396.744 232.945 396.152 232.945 394.936V394.11C232.945 392.894 232.264 392.302 231.305 392.302C230.345 392.302 229.664 392.894 229.664 394.11V394.936C229.664 396.152 230.345 396.744 231.305 396.744ZM235.819 399.634V391.644H236.712V392.581H236.757C237.058 391.856 237.65 391.51 238.442 391.51C239.881 391.51 240.785 392.682 240.785 394.523C240.785 396.365 239.881 397.536 238.442 397.536C237.65 397.536 237.103 397.179 236.757 396.465H236.712V399.634H235.819ZM238.196 396.733C239.201 396.733 239.826 396.041 239.826 395.014V394.032C239.826 393.005 239.201 392.314 238.196 392.314C237.382 392.314 236.712 392.782 236.712 393.418V395.561C236.712 396.309 237.382 396.733 238.196 396.733ZM243.186 390.294C242.806 390.294 242.639 390.093 242.639 389.792V389.646C242.639 389.345 242.806 389.144 243.186 389.144C243.565 389.144 243.732 389.345 243.732 389.646V389.792C243.732 390.093 243.565 390.294 243.186 390.294ZM242.739 397.402V391.644H243.632V397.402H242.739ZM248.118 397.536C246.5 397.536 245.551 396.365 245.551 394.523C245.551 392.682 246.5 391.51 248.118 391.51C249.256 391.51 249.937 392.068 250.272 392.86L249.524 393.24C249.312 392.648 248.821 392.302 248.118 392.302C247.058 392.302 246.511 393.028 246.511 394.032V395.014C246.511 396.019 247.058 396.744 248.118 396.744C248.843 396.744 249.368 396.398 249.68 395.74L250.328 396.175C249.959 397.001 249.212 397.536 248.118 397.536Z" fill="#C1C7CD"/>
  <rect x="379" y="328" width="102" height="84" rx="11.1595" fill="#F2F4F8"/>
  <path d="M392.044 351.37L390.504 345.612H391.375L391.988 348.1L392.602 350.622H392.624L393.328 348.1L394.053 345.612H394.845L395.593 348.1L396.307 350.622H396.329L396.921 348.1L397.546 345.612H398.383L396.854 351.37H395.749L394.946 348.603L394.443 346.851H394.421L393.93 348.603L393.127 351.37H392.044ZM404.708 351.37H404.206C403.547 351.37 403.279 350.968 403.212 350.433H403.157C402.911 351.136 402.297 351.504 401.494 351.504C400.278 351.504 399.563 350.834 399.563 349.763C399.563 348.681 400.344 348.078 402.018 348.078H403.157V347.509C403.157 346.694 402.71 346.248 401.795 346.248C401.103 346.248 400.646 346.583 400.333 347.107L399.798 346.605C400.11 345.991 400.802 345.478 401.84 345.478C403.224 345.478 404.049 346.203 404.049 347.42V350.589H404.708V351.37ZM401.639 350.745C402.521 350.745 403.157 350.288 403.157 349.696V348.748H401.974C400.958 348.748 400.501 349.06 400.501 349.618V349.852C400.501 350.422 400.947 350.745 401.639 350.745ZM408.817 351.37H407.701C407.087 351.37 406.752 350.98 406.752 350.422V346.393H405.803V345.612H406.339C406.719 345.612 406.841 345.478 406.841 345.087V344.016H407.645V345.612H408.906V346.393H407.645V350.589H408.817V351.37ZM412.517 351.504C411.457 351.504 410.754 351.058 410.24 350.377L410.876 349.864C411.323 350.422 411.858 350.745 412.584 350.745C413.343 350.745 413.789 350.399 413.789 349.808C413.789 349.361 413.544 349.015 412.785 348.904L412.327 348.837C411.267 348.681 410.475 348.245 410.475 347.174C410.475 346.036 411.356 345.478 412.528 345.478C413.454 345.478 414.068 345.824 414.537 346.404L413.945 346.94C413.689 346.583 413.198 346.237 412.461 346.237C411.725 346.237 411.334 346.583 411.334 347.13C411.334 347.687 411.725 347.911 412.439 348.022L412.885 348.089C414.157 348.279 414.648 348.837 414.648 349.707C414.648 350.823 413.834 351.504 412.517 351.504ZM418.848 351.504C417.308 351.504 416.248 350.321 416.248 348.491C416.248 346.661 417.308 345.478 418.848 345.478C420.388 345.478 421.448 346.661 421.448 348.491C421.448 350.321 420.388 351.504 418.848 351.504ZM418.848 350.712C419.807 350.712 420.488 350.12 420.488 348.904V348.078C420.488 346.862 419.807 346.27 418.848 346.27C417.888 346.27 417.207 346.862 417.207 348.078V348.904C417.207 350.12 417.888 350.712 418.848 350.712ZM424.255 351.37H423.363V345.612H424.255V346.549H424.3C424.579 345.902 425.07 345.478 425.929 345.478C427.112 345.478 427.86 346.281 427.86 347.676V351.37H426.967V347.833C426.967 346.806 426.521 346.281 425.661 346.281C424.947 346.281 424.255 346.638 424.255 347.375V351.37ZM429.437 351.37L431.569 348.469L429.527 345.612H430.576L432.038 347.754H432.071L433.589 345.612H434.582L432.551 348.402L434.627 351.37H433.578L432.082 349.116H432.049L430.431 351.37H429.437Z" fill="#C1C7CD"/>
  <path d="M397.055 366.714H396.073L395.292 364.415H392.145L391.363 366.714H390.415L393.138 358.925H394.332L397.055 366.714ZM395.057 363.589L393.74 359.795H393.685L392.368 363.589H395.057ZM399.595 366.714H398.702V360.956H399.595V361.893H399.64C399.919 361.246 400.41 360.822 401.269 360.822C402.452 360.822 403.199 361.625 403.199 363.02V366.714H402.307V363.176C402.307 362.15 401.86 361.625 401.001 361.625C400.287 361.625 399.595 361.982 399.595 362.719V366.714ZM407.879 366.714H406.763C406.15 366.714 405.815 366.323 405.815 365.765V361.737H404.866V360.956H405.402C405.781 360.956 405.904 360.822 405.904 360.431V359.36H406.708V360.956H407.969V361.737H406.708V365.933H407.879V366.714ZM409.85 366.714V358.456H410.743V361.893H410.787C411.066 361.246 411.557 360.822 412.417 360.822C413.6 360.822 414.347 361.625 414.347 363.02V366.714H413.454V363.176C413.454 362.15 413.008 361.625 412.149 361.625C411.435 361.625 410.743 361.982 410.743 362.719V366.714H409.85ZM417.532 366.714H416.639V360.956H417.532V362.016H417.588C417.788 361.469 418.313 360.956 419.25 360.956H419.596V361.848H419.072C418.112 361.848 417.532 362.261 417.532 362.808V366.714ZM423.305 366.848C421.765 366.848 420.704 365.665 420.704 363.835C420.704 362.005 421.765 360.822 423.305 360.822C424.845 360.822 425.905 362.005 425.905 363.835C425.905 365.665 424.845 366.848 423.305 366.848ZM423.305 366.055C424.264 366.055 424.945 365.464 424.945 364.248V363.422C424.945 362.205 424.264 361.614 423.305 361.614C422.345 361.614 421.664 362.205 421.664 363.422V364.248C421.664 365.464 422.345 366.055 423.305 366.055ZM427.819 368.946V360.956H428.712V361.893H428.757C429.058 361.168 429.65 360.822 430.442 360.822C431.881 360.822 432.785 361.993 432.785 363.835C432.785 365.676 431.881 366.848 430.442 366.848C429.65 366.848 429.103 366.491 428.757 365.776H428.712V368.946H427.819ZM430.196 366.044C431.201 366.044 431.826 365.352 431.826 364.326V363.344C431.826 362.317 431.201 361.625 430.196 361.625C429.382 361.625 428.712 362.094 428.712 362.73V364.873C428.712 365.62 429.382 366.044 430.196 366.044ZM435.186 359.605C434.806 359.605 434.639 359.404 434.639 359.103V358.958C434.639 358.657 434.806 358.456 435.186 358.456C435.565 358.456 435.732 358.657 435.732 358.958V359.103C435.732 359.404 435.565 359.605 435.186 359.605ZM434.739 366.714V360.956H435.632V366.714H434.739ZM440.118 366.848C438.5 366.848 437.551 365.676 437.551 363.835C437.551 361.993 438.5 360.822 440.118 360.822C441.256 360.822 441.937 361.38 442.272 362.172L441.524 362.551C441.312 361.96 440.821 361.614 440.118 361.614C439.058 361.614 438.511 362.339 438.511 363.344V364.326C438.511 365.33 439.058 366.055 440.118 366.055C440.843 366.055 441.368 365.71 441.68 365.051L442.328 365.486C441.959 366.312 441.212 366.848 440.118 366.848Z" fill="black"/>
  <path d="M393.941 382.193C391.977 382.193 390.805 380.809 390.805 378.209C390.805 375.608 391.977 374.135 393.941 374.135C395.236 374.135 396.129 374.76 396.62 375.843L395.861 376.3C395.548 375.497 394.901 374.972 393.941 374.972C392.602 374.972 391.81 376.032 391.81 377.628V378.789C391.81 380.385 392.602 381.356 393.941 381.356C394.934 381.356 395.615 380.798 395.928 379.949L396.675 380.418C396.184 381.512 395.236 382.193 393.941 382.193ZM400.66 382.193C399.12 382.193 398.06 381.01 398.06 379.179C398.06 377.349 399.12 376.166 400.66 376.166C402.2 376.166 403.261 377.349 403.261 379.179C403.261 381.01 402.2 382.193 400.66 382.193ZM400.66 381.4C401.62 381.4 402.301 380.809 402.301 379.592V378.767C402.301 377.55 401.62 376.959 400.66 376.959C399.701 376.959 399.02 377.55 399.02 378.767V379.592C399.02 380.809 399.701 381.4 400.66 381.4ZM405.175 382.059V373.801H406.068V377.238H406.113C406.392 376.59 406.883 376.166 407.742 376.166C408.925 376.166 409.672 376.97 409.672 378.365V382.059H408.78V378.521C408.78 377.494 408.333 376.97 407.474 376.97C406.76 376.97 406.068 377.327 406.068 378.063V382.059H405.175ZM414.129 382.193C412.567 382.193 411.54 381.01 411.54 379.179C411.54 377.349 412.567 376.166 414.129 376.166C415.669 376.166 416.618 377.349 416.618 378.979V379.403H412.477V379.67C412.477 380.664 413.114 381.411 414.185 381.411C414.91 381.411 415.468 381.054 415.77 380.418L416.406 380.876C416.037 381.657 415.212 382.193 414.129 382.193ZM414.129 376.914C413.158 376.914 412.477 377.651 412.477 378.655V378.733H415.658V378.61C415.658 377.595 415.044 376.914 414.129 376.914ZM419.428 382.059H418.535V376.3H419.428V377.36H419.484C419.685 376.814 420.209 376.3 421.147 376.3H421.492V377.193H420.968C420.008 377.193 419.428 377.606 419.428 378.153V382.059ZM425.19 382.193C423.627 382.193 422.601 381.01 422.601 379.179C422.601 377.349 423.627 376.166 425.19 376.166C426.73 376.166 427.678 377.349 427.678 378.979V379.403H423.538V379.67C423.538 380.664 424.174 381.411 425.245 381.411C425.971 381.411 426.529 381.054 426.83 380.418L427.466 380.876C427.098 381.657 426.272 382.193 425.19 382.193ZM425.19 376.914C424.219 376.914 423.538 377.651 423.538 378.655V378.733H426.719V378.61C426.719 377.595 426.105 376.914 425.19 376.914Z" fill="#878D96"/>
  <path d="M391.196 397.402V389.613H392.446L394.678 393.809H394.734L396.977 389.613H398.182V397.402H397.267V390.841H397.211L396.553 392.146L394.689 395.539L392.825 392.146L392.167 390.841H392.111V397.402H391.196ZM401.056 390.294C400.676 390.294 400.509 390.093 400.509 389.792V389.646C400.509 389.345 400.676 389.144 401.056 389.144C401.435 389.144 401.603 389.345 401.603 389.646V389.792C401.603 390.093 401.435 390.294 401.056 390.294ZM400.609 397.402V391.644H401.502V397.402H400.609ZM405.575 397.536C404.515 397.536 403.812 397.09 403.299 396.409L403.935 395.896C404.381 396.454 404.917 396.777 405.642 396.777C406.401 396.777 406.848 396.431 406.848 395.84C406.848 395.394 406.602 395.048 405.843 394.936L405.386 394.869C404.325 394.713 403.533 394.278 403.533 393.206C403.533 392.068 404.415 391.51 405.586 391.51C406.513 391.51 407.127 391.856 407.595 392.436L407.004 392.972C406.747 392.615 406.256 392.269 405.52 392.269C404.783 392.269 404.392 392.615 404.392 393.162C404.392 393.72 404.783 393.943 405.497 394.054L405.944 394.121C407.216 394.311 407.707 394.869 407.707 395.74C407.707 396.856 406.892 397.536 405.575 397.536ZM412.042 397.402H410.926C410.312 397.402 409.977 397.012 409.977 396.454V392.425H409.029V391.644H409.565C409.944 391.644 410.067 391.51 410.067 391.12V390.048H410.87V391.644H412.131V392.425H410.87V396.621H412.042V397.402ZM414.905 397.402H414.013V391.644H414.905V392.704H414.961C415.162 392.157 415.686 391.644 416.624 391.644H416.97V392.537H416.445C415.486 392.537 414.905 392.95 414.905 393.497V397.402ZM423.2 397.402H422.698C422.039 397.402 421.772 397.001 421.705 396.465H421.649C421.403 397.168 420.79 397.536 419.986 397.536C418.77 397.536 418.055 396.867 418.055 395.795C418.055 394.713 418.837 394.11 420.511 394.11H421.649V393.541C421.649 392.727 421.202 392.28 420.287 392.28C419.595 392.28 419.138 392.615 418.825 393.139L418.29 392.637C418.602 392.023 419.294 391.51 420.332 391.51C421.716 391.51 422.542 392.235 422.542 393.452V396.621H423.2V397.402ZM420.131 396.777C421.013 396.777 421.649 396.32 421.649 395.728V394.78H420.466C419.45 394.78 418.993 395.092 418.993 395.65V395.885C418.993 396.454 419.439 396.777 420.131 396.777ZM426.661 397.402H425.869C425.255 397.402 424.921 397.012 424.921 396.476V389.144H425.813V396.621H426.661V397.402Z" fill="#C1C7CD"/>
  <rect x="468" y="367" width="2.78988" height="19.5291" rx="1.39494" fill="#C1C7CD"/>
  <rect x="385.5" y="0.5" width="90" height="118" rx="10.6595" stroke="#C1C7CD"/>
  <path d="M396.832 23.3592V28.1592H395.488V16.9912H399.936C401.888 16.9912 403.056 18.1272 403.056 20.1592C403.056 21.7912 402.272 22.8952 400.816 23.2312L403.376 28.1592H401.856L399.44 23.3592H396.832ZM396.832 22.2072H399.936C400.992 22.2072 401.616 21.6312 401.616 20.6072V19.7752C401.616 18.7512 400.992 18.1752 399.936 18.1752H396.832V22.2072ZM408.464 28.3512C406.224 28.3512 404.752 26.6552 404.752 24.0312C404.752 21.4072 406.224 19.7112 408.464 19.7112C410.672 19.7112 412.032 21.4072 412.032 23.7432V24.3512H406.096V24.7352C406.096 26.1592 407.008 27.2312 408.544 27.2312C409.584 27.2312 410.384 26.7192 410.816 25.8072L411.728 26.4632C411.2 27.5832 410.016 28.3512 408.464 28.3512ZM408.464 20.7832C407.072 20.7832 406.096 21.8392 406.096 23.2792V23.3912H410.656V23.2152C410.656 21.7592 409.776 20.7832 408.464 20.7832ZM414.141 31.3592V19.9032H415.421V21.2472H415.485C415.917 20.2072 416.765 19.7112 417.901 19.7112C419.965 19.7112 421.261 21.3912 421.261 24.0312C421.261 26.6712 419.965 28.3512 417.901 28.3512C416.765 28.3512 415.981 27.8392 415.485 26.8152H415.421V31.3592H414.141ZM417.549 27.1992C418.989 27.1992 419.885 26.2072 419.885 24.7352V23.3272C419.885 21.8552 418.989 20.8632 417.549 20.8632C416.381 20.8632 415.421 21.5352 415.421 22.4472V25.5192C415.421 26.5912 416.381 27.1992 417.549 27.1992ZM426.543 28.3512C424.335 28.3512 422.815 26.6552 422.815 24.0312C422.815 21.4072 424.335 19.7112 426.543 19.7112C428.751 19.7112 430.271 21.4072 430.271 24.0312C430.271 26.6552 428.751 28.3512 426.543 28.3512ZM426.543 27.2152C427.919 27.2152 428.895 26.3672 428.895 24.6232V23.4392C428.895 21.6952 427.919 20.8472 426.543 20.8472C425.167 20.8472 424.191 21.6952 424.191 23.4392V24.6232C424.191 26.3672 425.167 27.2152 426.543 27.2152ZM433.656 28.1592H432.376V19.9032H433.656V21.4232H433.736C434.024 20.6392 434.776 19.9032 436.12 19.9032H436.616V21.1832H435.864C434.488 21.1832 433.656 21.7752 433.656 22.5592V28.1592ZM441.737 28.1592H440.137C439.257 28.1592 438.777 27.5992 438.777 26.7992V21.0232H437.417V19.9032H438.185C438.729 19.9032 438.905 19.7112 438.905 19.1512V17.6152H440.057V19.9032H441.865V21.0232H440.057V27.0392H441.737V28.1592Z" fill="black"/>
  <rect x="394.02" y="44.6377" width="72.5368" height="5.57976" rx="2.78988" fill="#C1C7CD"/>
  <rect x="394" y="59.9824" width="72.5368" height="5.57976" rx="2.78988" fill="#C1C7CD"/>
  <rect x="394.02" y="75.3262" width="30.6887" height="5.57976" rx="2.78988" fill="#C1C7CD"/>
  <path d="M8.832 303.2V308H7.488V296.832H11.936C13.888 296.832 15.056 297.968 15.056 300C15.056 301.632 14.272 302.736 12.816 303.072L15.376 308H13.856L11.44 303.2H8.832ZM8.832 302.048H11.936C12.992 302.048 13.616 301.472 13.616 300.448V299.616C13.616 298.592 12.992 298.016 11.936 298.016H8.832V302.048ZM20.9104 308.192C18.6704 308.192 17.1984 306.496 17.1984 303.872C17.1984 301.248 18.6704 299.552 20.9104 299.552C23.1184 299.552 24.4784 301.248 24.4784 303.584V304.192H18.5424V304.576C18.5424 306 19.4544 307.072 20.9904 307.072C22.0304 307.072 22.8304 306.56 23.2624 305.648L24.1744 306.304C23.6464 307.424 22.4624 308.192 20.9104 308.192ZM20.9104 300.624C19.5184 300.624 18.5424 301.68 18.5424 303.12V303.232H23.1024V303.056C23.1024 301.6 22.2224 300.624 20.9104 300.624ZM29.514 308.192C27.994 308.192 26.986 307.552 26.25 306.576L27.162 305.84C27.802 306.64 28.57 307.104 29.61 307.104C30.698 307.104 31.338 306.608 31.338 305.76C31.338 305.12 30.986 304.624 29.898 304.464L29.242 304.368C27.722 304.144 26.586 303.52 26.586 301.984C26.586 300.352 27.85 299.552 29.53 299.552C30.858 299.552 31.738 300.048 32.41 300.88L31.562 301.648C31.194 301.136 30.49 300.64 29.434 300.64C28.378 300.64 27.818 301.136 27.818 301.92C27.818 302.72 28.378 303.04 29.402 303.2L30.042 303.296C31.866 303.568 32.57 304.368 32.57 305.616C32.57 307.216 31.402 308.192 29.514 308.192ZM38.3813 308.192C36.1413 308.192 34.6693 306.496 34.6693 303.872C34.6693 301.248 36.1413 299.552 38.3813 299.552C40.5893 299.552 41.9493 301.248 41.9493 303.584V304.192H36.0133V304.576C36.0133 306 36.9253 307.072 38.4613 307.072C39.5013 307.072 40.3013 306.56 40.7333 305.648L41.6453 306.304C41.1173 307.424 39.9333 308.192 38.3813 308.192ZM38.3813 300.624C36.9893 300.624 36.0133 301.68 36.0133 303.12V303.232H40.5733V303.056C40.5733 301.6 39.6933 300.624 38.3813 300.624ZM51.2249 308H50.5049C49.5609 308 49.1769 307.424 49.0809 306.656H49.0009C48.6489 307.664 47.7689 308.192 46.6169 308.192C44.8729 308.192 43.8489 307.232 43.8489 305.696C43.8489 304.144 44.9689 303.28 47.3689 303.28H49.0009V302.464C49.0009 301.296 48.3609 300.656 47.0489 300.656C46.0569 300.656 45.4009 301.136 44.9529 301.888L44.1849 301.168C44.6329 300.288 45.6249 299.552 47.1129 299.552C49.0969 299.552 50.2809 300.592 50.2809 302.336V306.88H51.2249V308ZM46.8249 307.104C48.0889 307.104 49.0009 306.448 49.0009 305.6V304.24H47.3049C45.8489 304.24 45.1929 304.688 45.1929 305.488V305.824C45.1929 306.64 45.8329 307.104 46.8249 307.104ZM54.7782 308H53.4982V299.744H54.7782V301.264H54.8582C55.1462 300.48 55.8982 299.744 57.2422 299.744H57.7382V301.024H56.9862C55.6102 301.024 54.7782 301.616 54.7782 302.4V308ZM62.8134 308.192C60.4934 308.192 59.1334 306.512 59.1334 303.872C59.1334 301.232 60.4934 299.552 62.8134 299.552C64.4454 299.552 65.4214 300.352 65.9014 301.488L64.8294 302.032C64.5254 301.184 63.8214 300.688 62.8134 300.688C61.2934 300.688 60.5094 301.728 60.5094 303.168V304.576C60.5094 306.016 61.2934 307.056 62.8134 307.056C63.8534 307.056 64.6054 306.56 65.0534 305.616L65.9814 306.24C65.4534 307.424 64.3814 308.192 62.8134 308.192ZM68.2347 308V296.16H69.5147V301.088H69.5787C69.9787 300.16 70.6827 299.552 71.9147 299.552C73.6107 299.552 74.6827 300.704 74.6827 302.704V308H73.4027V302.928C73.4027 301.456 72.7627 300.704 71.5307 300.704C70.5067 300.704 69.5147 301.216 69.5147 302.272V308H68.2347ZM80.8788 308.192C78.6388 308.192 77.1668 306.496 77.1668 303.872C77.1668 301.248 78.6388 299.552 80.8788 299.552C83.0868 299.552 84.4468 301.248 84.4468 303.584V304.192H78.5108V304.576C78.5108 306 79.4228 307.072 80.9588 307.072C81.9988 307.072 82.7988 306.56 83.2308 305.648L84.1428 306.304C83.6148 307.424 82.4308 308.192 80.8788 308.192ZM80.8788 300.624C79.4868 300.624 78.5108 301.68 78.5108 303.12V303.232H83.0708V303.056C83.0708 301.6 82.1908 300.624 80.8788 300.624ZM88.2824 308H87.0024V299.744H88.2824V301.264H88.3624C88.6504 300.48 89.4024 299.744 90.7464 299.744H91.2424V301.024H90.4904C89.1144 301.024 88.2824 301.616 88.2824 302.4V308Z" fill="black"/>
  <circle cx="40.5387" cy="250.539" r="33.5387" fill="#DDE1E6"/>
  <g >
    <path d="M45.3848 242.305C43.7891 242.305 42.5098 241.025 42.5098 239.43C42.5098 237.834 43.7891 236.555 45.3848 236.555C46.9804 236.555 48.2598 237.834 48.2598 239.43C48.2598 241.025 46.9804 242.305 45.3848 242.305Z" fill="black"/>
    <path d="M36.7877 242.304C35.2208 242.304 33.9414 241.039 33.9414 239.458C33.9414 237.876 35.2064 236.611 36.7877 236.611C38.3689 236.611 39.6339 237.876 39.6339 239.458C39.6339 241.039 38.3689 242.304 36.7877 242.304Z" fill="black"/>
    <path d="M48.2734 250.973V245.223H33.8841V250.973H48.2734Z" fill="black"/>
    <path d="M48.2598 259.598V253.848H33.8704V259.598H48.2598Z" fill="black"/>
    <path d="M48.2598 268.223V262.473H33.8704V268.223H48.2598Z" fill="black"/>
    <path d="M20.8467 238.725C20.8467 237.431 21.3354 236.137 22.3273 235.145C23.3192 234.153 24.6129 233.665 25.9067 233.665C26.5679 233.665 27.2148 233.794 27.7898 234.024C28.4079 234.268 28.9829 234.642 29.4861 235.145C30.4061 236.065 30.9667 237.33 30.9667 238.725V250.943L22.3273 242.304C21.3354 241.312 20.8467 240.018 20.8467 238.725Z" fill="black"/>
    <path d="M59.6732 242.304L51.1201 250.857V238.753C51.1201 237.373 51.6807 236.123 52.5864 235.217C53.0751 234.728 53.6501 234.355 54.2539 234.11C54.8289 233.88 55.4614 233.751 56.1226 233.751C57.402 233.751 58.6814 234.24 59.6589 235.217C60.6364 236.195 61.1251 237.474 61.1251 238.753C61.1251 240.033 60.6364 241.312 59.6589 242.29L59.6732 242.304Z" fill="black"/>
  </g>
  <rect y="328" width="98" height="28" rx="14" fill="#F2F4F8"/>
  <g >
    <rect width="13.9494" height="13.9494" transform="translate(8 335.025)" fill="white" fill-opacity="0.01"/>
    <path d="M13.2755 335.897C12.4395 335.895 11.621 336.137 10.9215 336.595L13.7114 339.385C13.8043 339.464 13.8804 339.561 13.9352 339.67C13.9901 339.779 14.0225 339.898 14.0306 340.02C14.0388 340.142 14.0224 340.264 13.9826 340.38C13.9427 340.495 13.8802 340.602 13.7986 340.693C13.7077 340.774 13.6014 340.837 13.4859 340.877C13.3705 340.916 13.2482 340.933 13.1263 340.925C13.0045 340.917 12.8855 340.884 12.7763 340.829C12.6672 340.774 12.5701 340.698 12.4908 340.605L9.61377 337.816C9.11634 338.547 8.85749 339.415 8.8727 340.3C8.8773 341.467 9.34263 342.584 10.1673 343.408C10.992 344.233 12.1092 344.698 13.2755 344.703C13.6572 344.705 14.0377 344.661 14.4089 344.572L17.3295 347.493C17.7399 347.903 18.2966 348.134 18.877 348.134C19.4575 348.134 20.0141 347.903 20.4245 347.493C20.835 347.082 21.0655 346.526 21.0655 345.945C21.0655 345.365 20.835 344.808 20.4245 344.398L17.5039 341.477C17.5928 341.106 17.6368 340.726 17.6347 340.344C17.6463 339.764 17.5421 339.188 17.3282 338.649C17.1143 338.11 16.7951 337.619 16.3891 337.205C15.9832 336.791 15.4987 336.462 14.9641 336.237C14.4294 336.013 13.8553 335.897 13.2755 335.897ZM16.7628 340.3C16.7622 340.61 16.7182 340.918 16.6321 341.216L16.5013 341.695L16.85 342.044L19.7707 344.965C19.8951 345.082 19.994 345.224 20.0615 345.382C20.129 345.539 20.1635 345.709 20.163 345.88C20.1679 346.052 20.1354 346.223 20.0676 346.381C19.9999 346.539 19.8985 346.68 19.7707 346.795C19.6526 346.919 19.5106 347.018 19.3532 347.086C19.1959 347.153 19.0264 347.188 18.8552 347.188C18.684 347.188 18.5146 347.153 18.3573 347.086C18.1999 347.018 18.0579 346.919 17.9398 346.795L15.0192 343.875L14.6704 343.526L14.1909 343.657C13.8934 343.743 13.5852 343.787 13.2755 343.788C12.3492 343.785 11.4594 343.426 10.7907 342.785C10.4526 342.467 10.1848 342.081 10.0046 341.653C9.82441 341.225 9.73583 340.765 9.74454 340.3C9.74514 339.976 9.78913 339.654 9.87532 339.341L11.7934 341.259C11.9554 341.436 12.151 341.578 12.3686 341.678C12.5863 341.778 12.8217 341.834 13.061 341.842C13.3004 341.85 13.539 341.81 13.763 341.725C13.9869 341.64 14.1916 341.511 14.3653 341.346C14.5303 341.173 14.659 340.968 14.7441 340.744C14.8291 340.52 14.8687 340.282 14.8606 340.042C14.8525 339.803 14.7968 339.567 14.6968 339.35C14.5968 339.132 14.4545 338.937 14.2781 338.775L12.3601 336.857C12.642 336.767 12.9362 336.723 13.2319 336.726C14.1582 336.728 15.0479 337.087 15.7166 337.728C16.3859 338.417 16.7611 339.34 16.7628 340.3Z" fill="#161616"/>
  </g>
  <path d="M28.1074 345.5H27.0695L25.1724 337.711H26.1656L27.0026 341.46L27.6498 344.373H27.6721L28.3975 341.46L29.3795 337.711H30.4509L31.3994 341.46L32.1248 344.362H32.1583L32.8278 341.46L33.7094 337.711H34.6692L32.6716 345.5H31.6338L30.6183 341.616L29.904 338.76H29.8817L29.1452 341.616L28.1074 345.5ZM38.2846 345.634C36.7222 345.634 35.6956 344.451 35.6956 342.621C35.6956 340.791 36.7222 339.608 38.2846 339.608C39.8246 339.608 40.7731 340.791 40.7731 342.42V342.844H36.633V343.112C36.633 344.105 37.2691 344.853 38.3404 344.853C39.0657 344.853 39.6237 344.496 39.925 343.86L40.5611 344.317C40.1929 345.098 39.367 345.634 38.2846 345.634ZM38.2846 340.355C37.3137 340.355 36.633 341.092 36.633 342.096V342.174H39.8134V342.052C39.8134 341.036 39.1997 340.355 38.2846 340.355ZM42.6907 345.5V337.242H43.5834V340.679H43.6281C43.9294 339.954 44.5208 339.608 45.3132 339.608C46.7527 339.608 47.6567 340.78 47.6567 342.621C47.6567 344.462 46.7527 345.634 45.3132 345.634C44.5208 345.634 43.974 345.277 43.6281 344.563H43.5834V345.5H42.6907ZM45.0676 344.83C46.072 344.83 46.6969 344.139 46.6969 343.112V342.13C46.6969 341.103 46.072 340.411 45.0676 340.411C44.253 340.411 43.5834 340.88 43.5834 341.516V343.659C43.5834 344.406 44.253 344.83 45.0676 344.83ZM54.4238 345.634C53.3637 345.634 52.6606 345.188 52.1473 344.507L52.7834 343.993C53.2298 344.551 53.7654 344.875 54.4908 344.875C55.2497 344.875 55.696 344.529 55.696 343.938C55.696 343.491 55.4505 343.145 54.6917 343.034L54.2341 342.967C53.174 342.811 52.3817 342.375 52.3817 341.304C52.3817 340.166 53.2633 339.608 54.435 339.608C55.3612 339.608 55.975 339.954 56.4437 340.534L55.8523 341.07C55.5956 340.713 55.1046 340.367 54.3681 340.367C53.6315 340.367 53.2409 340.713 53.2409 341.259C53.2409 341.817 53.6315 342.041 54.3457 342.152L54.7921 342.219C56.0643 342.409 56.5553 342.967 56.5553 343.837C56.5553 344.953 55.7407 345.634 54.4238 345.634ZM60.7435 345.634C59.1812 345.634 58.1545 344.451 58.1545 342.621C58.1545 340.791 59.1812 339.608 60.7435 339.608C62.2835 339.608 63.2321 340.791 63.2321 342.42V342.844H59.0919V343.112C59.0919 344.105 59.728 344.853 60.7993 344.853C61.5247 344.853 62.0827 344.496 62.384 343.86L63.0201 344.317C62.6518 345.098 61.826 345.634 60.7435 345.634ZM60.7435 340.355C59.7727 340.355 59.0919 341.092 59.0919 342.096V342.174H62.2724V342.052C62.2724 341.036 61.6586 340.355 60.7435 340.355ZM69.8366 345.5H69.3344C68.676 345.5 68.4082 345.098 68.3412 344.563H68.2854C68.0399 345.266 67.4262 345.634 66.6227 345.634C65.4063 345.634 64.6921 344.964 64.6921 343.893C64.6921 342.811 65.4732 342.208 67.1472 342.208H68.2854V341.639C68.2854 340.824 67.8391 340.378 66.924 340.378C66.2321 340.378 65.7746 340.713 65.4621 341.237L64.9264 340.735C65.2389 340.121 65.9308 339.608 66.9686 339.608C68.3524 339.608 69.1782 340.333 69.1782 341.55V344.719H69.8366V345.5ZM66.7678 344.875C67.6494 344.875 68.2854 344.418 68.2854 343.826V342.878H67.1025C66.087 342.878 65.6295 343.19 65.6295 343.748V343.982C65.6295 344.551 66.0759 344.875 66.7678 344.875ZM72.45 345.5H71.5572V339.742H72.45V340.802H72.5057C72.7066 340.255 73.2311 339.742 74.1685 339.742H74.5145V340.634H73.99C73.0302 340.634 72.45 341.047 72.45 341.594V345.5ZM78.1893 345.634C76.5712 345.634 75.6227 344.462 75.6227 342.621C75.6227 340.78 76.5712 339.608 78.1893 339.608C79.3276 339.608 80.0083 340.166 80.3431 340.958L79.5954 341.338C79.3834 340.746 78.8924 340.4 78.1893 340.4C77.1292 340.4 76.5824 341.125 76.5824 342.13V343.112C76.5824 344.116 77.1292 344.842 78.1893 344.842C78.9147 344.842 79.4392 344.496 79.7517 343.837L80.3989 344.272C80.0307 345.098 79.283 345.634 78.1893 345.634ZM82.1055 345.5V337.242H82.9983V340.679H83.0429C83.3219 340.032 83.813 339.608 84.6722 339.608C85.8551 339.608 86.6028 340.411 86.6028 341.806V345.5H85.7101V341.962C85.7101 340.936 85.2637 340.411 84.4044 340.411C83.6902 340.411 82.9983 340.768 82.9983 341.505V345.5H82.1055Z" fill="black"/>
  <circle cx="41.2516" cy="85.5387" r="33.5387" fill="#A2A9B0"/>
  <path d="M43.315 104.791C41.3181 104.791 39.3104 104.014 37.7847 102.483C34.7384 99.4153 34.7384 94.4172 37.7847 91.3493L51.1366 77.9023V96.9135C51.1366 99.0864 50.2586 101.054 48.8453 102.483C48.0904 103.243 47.2285 103.815 46.3076 104.192C45.3922 104.575 44.3803 104.791 43.315 104.791Z" fill="white"/>
  <path d="M29.5346 90.905C27.5376 90.905 25.53 90.1286 24.0042 88.5973C22.4785 87.0661 21.7129 85.055 21.7129 83.0277C21.7129 81.9979 21.9163 81.0058 22.2804 80.0946C22.6605 79.1295 23.2387 78.2345 24.0042 77.458C25.4176 76.0346 27.377 75.1504 29.5346 75.1504H48.4114L35.0595 88.5973C33.5337 90.134 31.5422 90.905 29.5292 90.905H29.5346Z" fill="white"/>
  <path d="M54.6268 78.3616C53.5775 77.3048 53.5775 75.5794 54.6268 74.5173C55.6761 73.4551 57.3893 73.4605 58.444 74.5173C59.4986 75.574 59.4933 77.2994 58.444 78.3616C57.3947 79.4237 55.6815 79.4183 54.6268 78.3616Z" fill="white"/>
  <path d="M47.951 71.6369C46.9017 70.5801 46.9017 68.8548 47.951 67.7926C49.0004 66.7358 50.7135 66.7358 51.7682 67.7926C52.8175 68.8494 52.8175 70.5747 51.7682 71.6369C50.7189 72.6937 49.0057 72.6937 47.951 71.6369Z" fill="white"/>
</svg>