<svg width="569" height="339" viewBox="0 0 569 339" fill="none" xmlns="http://www.w3.org/2000/svg">
  <rect x="461.669" y="89.9024" width="98.5511" height="94.8147" rx="3.46466" fill="var(--color-1)"/>
  <rect x="461.669" y="89.9024" width="98.5511" height="94.8147" rx="3.46466" stroke="var(--color-2)" stroke-width="0.461955"/>
  <rect width="72.5734" height="6.46736" transform="translate(469.447 99.2212)" fill="var(--color-3)"/>
  <rect width="65.168" height="6.46736" transform="translate(469.447 110.837)" fill="var(--color-3)"/>
  <rect width="72.5734" height="6.46736" transform="translate(469.447 122.454)" fill="var(--color-3)"/>
  <rect width="60.7247" height="6.46736" transform="translate(469.447 134.071)" fill="var(--color-3)"/>
  <rect width="72.5734" height="6.46736" transform="translate(469.447 145.688)" fill="var(--color-3)"/>
  <rect width="79.7956" height="6.86576" transform="translate(469.447 157.305)" fill="var(--color-3)"/>
  <rect width="60.7247" height="6.46736" transform="translate(469.447 169.32)" fill="var(--color-3)"/>
  <path d="M464.153 210.532H462.999V200.948H468.712V201.964H464.153V205.177H468.314V206.193H464.153V210.532ZM471.492 201.785C471.025 201.785 470.819 201.538 470.819 201.167V200.989C470.819 200.618 471.025 200.371 471.492 200.371C471.959 200.371 472.165 200.618 472.165 200.989V201.167C472.165 201.538 471.959 201.785 471.492 201.785ZM470.943 210.532V203.447H472.042V210.532H470.943ZM475.858 210.532H474.759V203.447H475.858V204.6H475.912C476.256 203.804 476.86 203.282 477.917 203.282C479.373 203.282 480.293 204.271 480.293 205.987V210.532H479.194V206.179C479.194 204.916 478.645 204.271 477.588 204.271C476.709 204.271 475.858 204.71 475.858 205.616V210.532ZM488.714 210.532H488.096C487.286 210.532 486.956 210.038 486.874 209.379H486.805C486.503 210.244 485.748 210.697 484.759 210.697C483.262 210.697 482.384 209.873 482.384 208.555C482.384 207.223 483.345 206.481 485.404 206.481H486.805V205.781C486.805 204.779 486.256 204.229 485.13 204.229C484.278 204.229 483.716 204.641 483.331 205.287L482.672 204.669C483.056 203.914 483.908 203.282 485.185 203.282C486.887 203.282 487.904 204.175 487.904 205.671V209.571H488.714V210.532ZM484.938 209.763C486.022 209.763 486.805 209.2 486.805 208.472V207.305H485.35C484.1 207.305 483.537 207.69 483.537 208.376V208.665C483.537 209.365 484.086 209.763 484.938 209.763ZM492.807 210.532H491.832C491.077 210.532 490.665 210.052 490.665 209.393V200.371H491.763V209.571H492.807V210.532ZM499.516 210.532H498.417V203.447H499.516V204.751H499.585C499.832 204.078 500.477 203.447 501.631 203.447H502.056V204.545H501.411C500.23 204.545 499.516 205.053 499.516 205.726V210.532ZM506.439 210.697C504.517 210.697 503.254 209.241 503.254 206.989C503.254 204.738 504.517 203.282 506.439 203.282C508.334 203.282 509.502 204.738 509.502 206.742V207.264H504.407V207.594C504.407 208.816 505.19 209.736 506.508 209.736C507.401 209.736 508.087 209.296 508.458 208.514L509.241 209.077C508.787 210.038 507.771 210.697 506.439 210.697ZM506.439 204.202C505.245 204.202 504.407 205.108 504.407 206.344V206.44H508.321V206.289C508.321 205.04 507.565 204.202 506.439 204.202ZM513.823 210.697C512.519 210.697 511.654 210.148 511.022 209.31L511.805 208.678C512.354 209.365 513.013 209.763 513.906 209.763C514.839 209.763 515.389 209.338 515.389 208.61C515.389 208.061 515.086 207.635 514.153 207.498L513.59 207.415C512.285 207.223 511.31 206.687 511.31 205.369C511.31 203.969 512.395 203.282 513.837 203.282C514.977 203.282 515.732 203.708 516.309 204.422L515.581 205.081C515.265 204.641 514.661 204.216 513.755 204.216C512.848 204.216 512.368 204.641 512.368 205.314C512.368 206.001 512.848 206.275 513.727 206.413L514.276 206.495C515.842 206.729 516.446 207.415 516.446 208.486C516.446 209.859 515.444 210.697 513.823 210.697ZM518.769 213.279V203.447H519.868V204.6H519.923C520.294 203.708 521.021 203.282 521.996 203.282C523.768 203.282 524.88 204.724 524.88 206.989C524.88 209.255 523.768 210.697 521.996 210.697C521.021 210.697 520.348 210.258 519.923 209.379H519.868V213.279H518.769ZM521.694 209.708C522.93 209.708 523.699 208.857 523.699 207.594V206.385C523.699 205.122 522.93 204.271 521.694 204.271C520.692 204.271 519.868 204.847 519.868 205.63V208.267C519.868 209.187 520.692 209.708 521.694 209.708ZM529.795 210.697C527.9 210.697 526.596 209.241 526.596 206.989C526.596 204.738 527.9 203.282 529.795 203.282C531.69 203.282 532.995 204.738 532.995 206.989C532.995 209.241 531.69 210.697 529.795 210.697ZM529.795 209.722C530.976 209.722 531.814 208.994 531.814 207.498V206.481C531.814 204.985 530.976 204.257 529.795 204.257C528.615 204.257 527.777 204.985 527.777 206.481V207.498C527.777 208.994 528.615 209.722 529.795 209.722ZM536.283 210.532H535.185V203.447H536.283V204.6H536.338C536.681 203.804 537.286 203.282 538.343 203.282C539.798 203.282 540.718 204.271 540.718 205.987V210.532H539.62V206.179C539.62 204.916 539.071 204.271 538.013 204.271C537.134 204.271 536.283 204.71 536.283 205.616V210.532ZM545.501 210.697C544.196 210.697 543.331 210.148 542.699 209.31L543.482 208.678C544.031 209.365 544.69 209.763 545.583 209.763C546.517 209.763 547.066 209.338 547.066 208.61C547.066 208.061 546.764 207.635 545.83 207.498L545.267 207.415C543.963 207.223 542.988 206.687 542.988 205.369C542.988 203.969 544.072 203.282 545.514 203.282C546.654 203.282 547.409 203.708 547.986 204.422L547.258 205.081C546.942 204.641 546.338 204.216 545.432 204.216C544.526 204.216 544.045 204.641 544.045 205.314C544.045 206.001 544.526 206.275 545.404 206.413L545.954 206.495C547.519 206.729 548.123 207.415 548.123 208.486C548.123 209.859 547.121 210.697 545.501 210.697ZM553.111 210.697C551.188 210.697 549.925 209.241 549.925 206.989C549.925 204.738 551.188 203.282 553.111 203.282C555.006 203.282 556.173 204.738 556.173 206.742V207.264H551.078V207.594C551.078 208.816 551.861 209.736 553.179 209.736C554.072 209.736 554.758 209.296 555.129 208.514L555.912 209.077C555.459 210.038 554.443 210.697 553.111 210.697ZM553.111 204.202C551.916 204.202 551.078 205.108 551.078 206.344V206.44H554.992V206.289C554.992 205.04 554.237 204.202 553.111 204.202ZM465.828 227.532H464.455C463.7 227.532 463.288 227.052 463.288 226.365V221.408H462.121V220.447H462.78C463.247 220.447 463.398 220.282 463.398 219.801V218.483H464.386V220.447H465.938V221.408H464.386V226.571H465.828V227.532ZM470.711 227.697C468.816 227.697 467.511 226.241 467.511 223.989C467.511 221.738 468.816 220.282 470.711 220.282C472.606 220.282 473.91 221.738 473.91 223.989C473.91 226.241 472.606 227.697 470.711 227.697ZM470.711 226.722C471.892 226.722 472.729 225.994 472.729 224.498V223.481C472.729 221.985 471.892 221.257 470.711 221.257C469.53 221.257 468.692 221.985 468.692 223.481V224.498C468.692 225.994 469.53 226.722 470.711 226.722ZM482.365 227.697C480.374 227.697 479.206 226.255 479.206 223.989C479.206 221.724 480.374 220.282 482.365 220.282C483.765 220.282 484.603 220.969 485.015 221.943L484.095 222.41C483.834 221.683 483.23 221.257 482.365 221.257C481.06 221.257 480.387 222.149 480.387 223.385V224.594C480.387 225.83 481.06 226.722 482.365 226.722C483.257 226.722 483.903 226.296 484.287 225.486L485.084 226.022C484.63 227.038 483.71 227.697 482.365 227.697ZM491.384 227.532V226.379H491.329C491.054 227.052 490.519 227.697 489.338 227.697C487.882 227.697 486.949 226.708 486.949 224.992V220.447H488.047V224.8C488.047 226.063 488.61 226.708 489.667 226.708C490.533 226.708 491.384 226.283 491.384 225.349V220.447H492.482V227.532H491.384ZM497.333 227.697C496.029 227.697 495.164 227.148 494.532 226.31L495.315 225.678C495.864 226.365 496.523 226.763 497.416 226.763C498.349 226.763 498.899 226.338 498.899 225.61C498.899 225.061 498.597 224.635 497.663 224.498L497.1 224.415C495.795 224.223 494.82 223.687 494.82 222.369C494.82 220.969 495.905 220.282 497.347 220.282C498.487 220.282 499.242 220.708 499.819 221.422L499.091 222.081C498.775 221.641 498.171 221.216 497.265 221.216C496.358 221.216 495.878 221.641 495.878 222.314C495.878 223.001 496.358 223.275 497.237 223.413L497.786 223.495C499.352 223.729 499.956 224.415 499.956 225.486C499.956 226.859 498.954 227.697 497.333 227.697ZM505.124 227.532H503.751C502.996 227.532 502.584 227.052 502.584 226.365V221.408H501.417V220.447H502.076C502.543 220.447 502.694 220.282 502.694 219.801V218.483H503.682V220.447H505.234V221.408H503.682V226.571H505.124V227.532ZM510.007 227.697C508.112 227.697 506.807 226.241 506.807 223.989C506.807 221.738 508.112 220.282 510.007 220.282C511.902 220.282 513.206 221.738 513.206 223.989C513.206 226.241 511.902 227.697 510.007 227.697ZM510.007 226.722C511.188 226.722 512.025 225.994 512.025 224.498V223.481C512.025 221.985 511.188 221.257 510.007 221.257C508.826 221.257 507.988 221.985 507.988 223.481V224.498C507.988 225.994 508.826 226.722 510.007 226.722ZM516.494 227.532H515.396V220.447H516.494V221.6H516.549C516.865 220.872 517.359 220.282 518.458 220.282C519.392 220.282 520.243 220.708 520.628 221.724H520.655C520.916 220.955 521.603 220.282 522.811 220.282C524.253 220.282 525.118 221.271 525.118 222.987V227.532H524.019V223.179C524.019 221.93 523.539 221.271 522.468 221.271C521.603 221.271 520.806 221.71 520.806 222.616V227.532H519.708V223.179C519.708 221.916 519.227 221.271 518.183 221.271C517.318 221.271 516.494 221.71 516.494 222.616V227.532ZM530.431 227.697C528.509 227.697 527.245 226.241 527.245 223.989C527.245 221.738 528.509 220.282 530.431 220.282C532.326 220.282 533.493 221.738 533.493 223.742V224.264H528.399V224.594C528.399 225.816 529.182 226.736 530.5 226.736C531.392 226.736 532.079 226.296 532.45 225.514L533.232 226.077C532.779 227.038 531.763 227.697 530.431 227.697ZM530.431 221.202C529.237 221.202 528.399 222.108 528.399 223.344V223.44H532.312V223.289C532.312 222.04 531.557 221.202 530.431 221.202ZM536.785 227.532H535.687V220.447H536.785V221.751H536.854C537.101 221.078 537.746 220.447 538.9 220.447H539.325V221.545H538.68C537.499 221.545 536.785 222.053 536.785 222.726V227.532Z" fill="var(--color-4)"/>
  <path d="M482.018 250.317V247.392H481.977C481.658 248.051 481.153 248.38 480.422 248.38C479.094 248.38 478.259 247.299 478.259 245.6C478.259 243.901 479.094 242.819 480.422 242.819C481.153 242.819 481.699 243.138 481.977 243.808H482.018V242.943H482.842V250.317H482.018ZM480.649 247.639C481.4 247.639 482.018 247.248 482.018 246.558V244.58C482.018 243.993 481.4 243.561 480.649 243.561C479.722 243.561 479.145 244.199 479.145 245.147V246.053C479.145 247 479.722 247.639 480.649 247.639ZM487.869 248.257V247.392H487.828C487.622 247.896 487.22 248.38 486.334 248.38C485.243 248.38 484.542 247.639 484.542 246.352V242.943H485.366V246.207C485.366 247.155 485.788 247.639 486.581 247.639C487.23 247.639 487.869 247.32 487.869 246.619V242.943H488.693V248.257H487.869ZM494.773 248.257H494.309C493.701 248.257 493.454 247.886 493.393 247.392H493.341C493.114 248.041 492.548 248.38 491.807 248.38C490.684 248.38 490.025 247.763 490.025 246.774C490.025 245.775 490.746 245.219 492.291 245.219H493.341V244.694C493.341 243.942 492.929 243.53 492.085 243.53C491.446 243.53 491.024 243.839 490.735 244.323L490.241 243.859C490.53 243.293 491.168 242.819 492.126 242.819C493.403 242.819 494.165 243.489 494.165 244.611V247.536H494.773V248.257ZM491.94 247.68C492.754 247.68 493.341 247.258 493.341 246.712V245.837H492.249C491.312 245.837 490.89 246.125 490.89 246.64V246.856C490.89 247.381 491.302 247.68 491.94 247.68ZM497.555 248.257H496.824C496.257 248.257 495.948 247.896 495.948 247.402V240.636H496.772V247.536H497.555V248.257ZM499.166 241.697C498.816 241.697 498.662 241.511 498.662 241.233V241.099C498.662 240.821 498.816 240.636 499.166 240.636C499.517 240.636 499.671 240.821 499.671 241.099V241.233C499.671 241.511 499.517 241.697 499.166 241.697ZM498.754 248.257V242.943H499.578V248.257H498.754ZM503.533 248.257H502.503C501.937 248.257 501.628 247.896 501.628 247.381V243.664H500.752V242.943H501.247C501.597 242.943 501.71 242.819 501.71 242.459V241.47H502.452V242.943H503.615V243.664H502.452V247.536H503.533V248.257ZM506.927 246.558L508.215 242.943H509.028L506.649 249.493C506.412 250.131 506.196 250.317 505.413 250.317H504.991V249.596H505.825L506.227 248.463L504.239 242.943H505.063L506.34 246.558L506.587 247.423H506.639L506.927 246.558Z" fill="var(--color-4)"/>
  <rect width="13.7315" height="13.7315" transform="translate(461.438 238.974)" fill="var(--color-5)" fill-opacity="0.01"/>
  <path d="M468.304 239.832C467.116 239.832 465.954 240.184 464.966 240.844C463.978 241.505 463.208 242.443 462.753 243.541C462.299 244.638 462.18 245.846 462.412 247.012C462.643 248.177 463.216 249.247 464.056 250.088C464.896 250.928 465.966 251.5 467.132 251.732C468.297 251.963 469.505 251.845 470.603 251.39C471.7 250.935 472.639 250.165 473.299 249.177C473.959 248.189 474.311 247.028 474.311 245.84C474.311 244.246 473.678 242.718 472.552 241.592C471.425 240.465 469.897 239.832 468.304 239.832ZM467.445 248.239L465.3 246.093L465.982 245.41L467.445 246.873L470.625 243.694L471.31 244.375L467.445 248.239Z" fill="var(--color-4)"/>
  <path d="M455.16 120.454C455.328 120.286 455.328 120.015 455.16 119.847L452.429 117.116C452.262 116.949 451.99 116.949 451.823 117.116C451.655 117.284 451.655 117.555 451.823 117.723L454.25 120.15L451.823 122.578C451.655 122.745 451.655 123.017 451.823 123.185C451.99 123.352 452.262 123.352 452.429 123.185L455.16 120.454ZM392.207 120.15V120.58H454.857V120.15V119.721H392.207V120.15Z" fill="var(--color-4)"/>
  <path d="M166.243 203.146C166.578 202.811 166.578 202.268 166.243 201.933L160.782 196.471C160.447 196.136 159.903 196.136 159.568 196.471C159.233 196.806 159.233 197.35 159.568 197.685L164.423 202.54L159.568 207.394C159.233 207.73 159.233 208.273 159.568 208.608C159.903 208.943 160.447 208.943 160.782 208.608L166.243 203.146ZM76.3813 120.15V121.009H78.9175V120.15V119.292H76.3813V120.15ZM83.9897 120.15V121.009H89.062V120.15V119.292H83.9897V120.15ZM94.1342 120.15V121.009H99.2065V120.15V119.292H94.1342V120.15ZM104.279 120.15V121.009H109.351V120.15V119.292H104.279V120.15ZM114.423 120.15V121.009H116.959V120.15V119.292H114.423V120.15ZM116.959 120.15V121.009C117.775 121.009 118.552 121.171 119.259 121.464L119.587 120.671L119.916 119.879C119.004 119.5 118.005 119.292 116.959 119.292V120.15ZM123.304 124.388L122.511 124.717C122.805 125.424 122.967 126.2 122.967 127.016H123.825H124.683C124.683 125.97 124.475 124.971 124.097 124.059L123.304 124.388ZM123.825 127.016H122.967V129.468H123.825H124.683V127.016H123.825ZM123.825 134.372H122.967V139.276H123.825H124.683V134.372H123.825ZM123.825 144.181H122.967V149.085H123.825H124.683V144.181H123.825ZM123.825 153.989H122.967V158.893H123.825H124.683V153.989H123.825ZM123.825 163.797H122.967V168.701H123.825H124.683V163.797H123.825ZM123.825 173.605H122.967V178.509H123.825H124.683V173.605H123.825ZM123.825 183.414H122.967V188.318H123.825H124.683V183.414H123.825ZM123.825 193.222H122.967V195.674H123.825H124.683V193.222H123.825ZM123.825 195.674H122.967C122.967 196.72 123.175 197.719 123.553 198.631L124.346 198.302L125.139 197.973C124.846 197.266 124.683 196.49 124.683 195.674H123.825ZM128.063 202.019L127.734 202.811C128.646 203.189 129.645 203.398 130.691 203.398V202.54V201.681C129.875 201.681 129.099 201.519 128.391 201.226L128.063 202.019ZM130.691 202.54V203.398H133.603V202.54V201.681H130.691V202.54ZM139.427 202.54V203.398H145.252V202.54V201.681H139.427V202.54ZM151.076 202.54V203.398H156.9V202.54V201.681H151.076V202.54ZM162.724 202.54V203.398H165.636V202.54V201.681H162.724V202.54Z" fill="var(--color-6)"/>
  <path d="M166.244 31.1469C166.58 31.482 166.58 32.0254 166.244 32.3606L160.783 37.8222C160.448 38.1574 159.904 38.1574 159.569 37.8222C159.234 37.4871 159.234 36.9437 159.569 36.6085L164.424 31.7537L159.569 26.8989C159.234 26.5637 159.234 26.0203 159.569 25.6852C159.904 25.35 160.448 25.35 160.783 25.6852L166.244 31.1469ZM123.826 120.15H122.968V117.603H123.826H124.684V120.15H123.826ZM123.826 112.507H122.968V107.411H123.826H124.684V112.507H123.826ZM123.826 102.315H122.968V97.2198H123.826H124.684V102.315H123.826ZM123.826 92.1241H122.968V87.0284H123.826H124.684V92.1241H123.826ZM123.826 81.9328H122.968V76.8371H123.826H124.684V81.9328H123.826ZM123.826 71.7414H122.968V66.6457H123.826H124.684V71.7414H123.826ZM123.826 61.55H122.968V56.4543H123.826H124.684V61.55H123.826ZM123.826 51.3587H122.968V46.263H123.826H124.684V51.3587H123.826ZM123.826 41.1673H122.968V38.6195H123.826H124.684V41.1673H123.826ZM123.826 38.6195H122.968C122.968 37.5737 123.176 36.5745 123.554 35.6626L124.347 35.9913L125.14 36.3201C124.847 37.0272 124.684 37.8033 124.684 38.6195H123.826ZM128.064 32.2747L127.735 31.4819C128.647 31.1038 129.646 30.8955 130.692 30.8955V31.7537V32.6119C129.876 32.6119 129.1 32.7742 128.393 33.0674L128.064 32.2747ZM130.692 31.7537V30.8955H133.604V31.7537V32.6119H130.692V31.7537ZM139.428 31.7537V30.8955H145.253V31.7537V32.6119H139.428V31.7537ZM151.077 31.7537V30.8955H156.901V31.7537V32.6119H151.077V31.7537ZM162.725 31.7537V30.8955H165.638V31.7537V32.6119H162.725V31.7537Z" fill="var(--color-6)"/>
  <path d="M323.298 119.544C323.633 119.879 323.633 120.422 323.298 120.757L317.836 126.219C317.501 126.554 316.958 126.554 316.622 126.219C316.287 125.884 316.287 125.34 316.622 125.005L321.477 120.15L316.622 115.296C316.287 114.96 316.287 114.417 316.622 114.082C316.958 113.747 317.501 113.747 317.836 114.082L323.298 119.544ZM322.691 120.15V121.009H320.026V120.15V119.292H322.691V120.15ZM314.697 120.15V121.009H309.367V120.15V119.292H314.697V120.15ZM304.038 120.15V121.009H298.708V120.15V119.292H304.038V120.15ZM293.379 120.15V121.009H290.714V120.15V119.292H293.379V120.15ZM290.714 120.15V121.009C289.898 121.009 289.122 121.171 288.415 121.464L288.086 120.671L287.757 119.879C288.669 119.5 289.668 119.292 290.714 119.292V120.15ZM284.369 124.388L285.162 124.717C284.869 125.424 284.707 126.2 284.707 127.016H283.848H282.99C282.99 125.97 283.198 124.971 283.577 124.059L284.369 124.388ZM283.848 127.016H284.707V129.468H283.848H282.99V127.016H283.848ZM283.848 134.372H284.707V139.276H283.848H282.99V134.372H283.848ZM283.848 144.181H284.707V149.085H283.848H282.99V144.181H283.848ZM283.848 153.989H284.707V158.893H283.848H282.99V153.989H283.848ZM283.848 163.797H284.707V168.701H283.848H282.99V163.797H283.848ZM283.848 173.605H284.707V178.509H283.848H282.99V173.605H283.848ZM283.848 183.414H284.707V188.318H283.848H282.99V183.414H283.848ZM283.848 193.222H284.707V195.674H283.848H282.99V193.222H283.848ZM283.848 195.674H284.707C284.707 196.72 284.498 197.719 284.12 198.631L283.327 198.302L282.535 197.973C282.828 197.266 282.99 196.49 282.99 195.674H283.848ZM279.611 202.019L279.94 202.811C279.028 203.189 278.028 203.398 276.983 203.398V202.54V201.681C277.799 201.681 278.575 201.519 279.282 201.226L279.611 202.019ZM276.983 202.54V203.398H274.62V202.54V201.681H276.983V202.54ZM269.894 202.54V203.398H265.169V202.54V201.681H269.894V202.54ZM260.443 202.54V203.398H255.717V202.54V201.681H260.443V202.54ZM250.992 202.54V203.398H246.266V202.54V201.681H250.992V202.54ZM241.54 202.54V203.398H239.178V202.54V201.681H241.54V202.54Z" fill="var(--color-6)"/>
  <path d="M238.585 29.1792L277.326 29.1792C281.118 29.1792 284.192 32.2531 284.192 36.045L284.192 117.576" stroke="var(--color-6)" stroke-width="1.71644" stroke-dasharray="5.15 5.15"/>
  <path d="M182.361 250.011V240.426H186.302C187.881 240.426 188.856 241.401 188.856 242.898C188.856 244.326 187.936 244.834 187.305 244.93V245.012C187.991 245.054 189.186 245.644 189.186 247.237C189.186 248.816 188.129 250.011 186.714 250.011H182.361ZM183.515 245.562V248.995H186.357C187.346 248.995 187.95 248.473 187.95 247.512V247.045C187.95 246.084 187.346 245.562 186.357 245.562H183.515ZM183.515 241.442V244.573H186.165C187.071 244.573 187.62 244.092 187.62 243.241V242.774C187.62 241.923 187.071 241.442 186.165 241.442H183.515ZM192.155 241.264C191.688 241.264 191.482 241.017 191.482 240.646V240.467C191.482 240.097 191.688 239.849 192.155 239.849C192.622 239.849 192.828 240.097 192.828 240.467V240.646C192.828 241.017 192.622 241.264 192.155 241.264ZM191.606 250.011V242.925H192.704V250.011H191.606ZM197.564 250.011H196.589C195.834 250.011 195.422 249.53 195.422 248.871V239.849H196.52V249.05H197.564V250.011ZM201.621 250.011H200.646C199.891 250.011 199.479 249.53 199.479 248.871V239.849H200.577V249.05H201.621V250.011ZM204.153 241.264C203.686 241.264 203.48 241.017 203.48 240.646V240.467C203.48 240.097 203.686 239.849 204.153 239.849C204.619 239.849 204.825 240.097 204.825 240.467V240.646C204.825 241.017 204.619 241.264 204.153 241.264ZM203.603 250.011V242.925H204.702V250.011H203.603ZM208.518 250.011H207.419V242.925H208.518V244.079H208.573C208.916 243.282 209.52 242.76 210.578 242.76C212.033 242.76 212.953 243.749 212.953 245.466V250.011H211.855V245.658C211.855 244.395 211.305 243.749 210.248 243.749C209.369 243.749 208.518 244.189 208.518 245.095V250.011ZM221.58 250.793C221.58 252.249 220.427 252.922 218.147 252.922C215.936 252.922 215.03 252.29 215.03 251.178C215.03 250.409 215.456 249.997 216.156 249.805V249.654C215.758 249.461 215.524 249.146 215.524 248.665C215.524 247.951 216.032 247.608 216.747 247.429V247.374C215.909 246.976 215.415 246.193 215.415 245.205C215.415 243.763 216.472 242.76 218.078 242.76C218.587 242.76 219.04 242.857 219.424 243.035V242.912C219.424 242.362 219.658 241.964 220.248 241.964H221.305V242.925H219.96V243.378C220.468 243.818 220.77 244.449 220.77 245.205C220.77 246.647 219.713 247.649 218.092 247.649C217.859 247.649 217.612 247.621 217.406 247.58C216.939 247.704 216.472 247.937 216.472 248.377C216.472 248.802 216.911 248.912 217.557 248.912H219.067C220.825 248.912 221.58 249.626 221.58 250.793ZM220.55 250.876C220.55 250.313 220.179 249.942 219.081 249.942H216.719C216.266 250.148 216.06 250.464 216.06 250.903C216.06 251.521 216.486 252.029 217.598 252.029H218.614C219.836 252.029 220.55 251.645 220.55 250.876ZM218.092 246.77C219.026 246.77 219.616 246.331 219.616 245.397V245.012C219.616 244.079 219.026 243.639 218.092 243.639C217.158 243.639 216.568 244.079 216.568 245.012V245.397C216.568 246.331 217.158 246.77 218.092 246.77ZM185.053 267.176C183.515 267.176 182.43 266.544 181.661 265.5L182.512 264.786C183.185 265.679 183.982 266.159 185.094 266.159C186.467 266.159 187.208 265.445 187.208 264.347C187.208 263.441 186.7 262.987 185.437 262.699L184.654 262.521C182.911 262.122 181.949 261.353 181.949 259.884C181.949 258.181 183.24 257.261 185.121 257.261C186.563 257.261 187.579 257.811 188.293 258.827L187.428 259.458C186.906 258.731 186.179 258.277 185.066 258.277C183.844 258.277 183.089 258.813 183.089 259.843C183.089 260.749 183.679 261.161 184.888 261.436L185.671 261.614C187.538 262.04 188.348 262.864 188.348 264.292C188.348 266.05 187.112 267.176 185.053 267.176ZM194.98 267.011V265.857H194.925C194.65 266.53 194.115 267.176 192.934 267.176C191.478 267.176 190.545 266.187 190.545 264.47V259.925H191.643V264.278C191.643 265.541 192.206 266.187 193.263 266.187C194.129 266.187 194.98 265.761 194.98 264.827V259.925H196.078V267.011H194.98ZM198.801 269.757V259.925H199.899V261.079H199.954C200.325 260.186 201.053 259.76 202.028 259.76C203.799 259.76 204.911 261.202 204.911 263.468C204.911 265.734 203.799 267.176 202.028 267.176C201.053 267.176 200.38 266.736 199.954 265.857H199.899V269.757H198.801ZM201.726 266.187C202.961 266.187 203.73 265.335 203.73 264.072V262.864C203.73 261.601 202.961 260.749 201.726 260.749C200.723 260.749 199.899 261.326 199.899 262.109V264.745C199.899 265.665 200.723 266.187 201.726 266.187ZM207.149 269.757V259.925H208.248V261.079H208.303C208.673 260.186 209.401 259.76 210.376 259.76C212.148 259.76 213.26 261.202 213.26 263.468C213.26 265.734 212.148 267.176 210.376 267.176C209.401 267.176 208.728 266.736 208.303 265.857H208.248V269.757H207.149ZM210.074 266.187C211.31 266.187 212.079 265.335 212.079 264.072V262.864C212.079 261.601 211.31 260.749 210.074 260.749C209.072 260.749 208.248 261.326 208.248 262.109V264.745C208.248 265.665 209.072 266.187 210.074 266.187ZM218.175 267.176C216.28 267.176 214.976 265.72 214.976 263.468C214.976 261.216 216.28 259.76 218.175 259.76C220.07 259.76 221.375 261.216 221.375 263.468C221.375 265.72 220.07 267.176 218.175 267.176ZM218.175 266.201C219.356 266.201 220.194 265.473 220.194 263.976V262.96C220.194 261.463 219.356 260.735 218.175 260.735C216.994 260.735 216.157 261.463 216.157 262.96V263.976C216.157 265.473 216.994 266.201 218.175 266.201ZM224.663 267.011H223.565V259.925H224.663V261.23H224.732C224.979 260.557 225.624 259.925 226.778 259.925H227.203V261.024H226.558C225.377 261.024 224.663 261.532 224.663 262.205V267.011ZM231.982 267.011H230.609C229.853 267.011 229.442 266.53 229.442 265.844V260.886H228.274V259.925H228.933C229.4 259.925 229.551 259.76 229.551 259.28V257.962H230.54V259.925H232.092V260.886H230.54V266.05H231.982V267.011Z" fill="var(--color-4)"/>
  <circle cx="203.002" cy="200.427" r="28.7836" fill="var(--color-7)"/>
  <g >
    <path d="M203.411 203.213C202.041 203.213 200.943 202.115 200.943 200.745C200.943 199.376 202.041 198.278 203.411 198.278C204.78 198.278 205.878 199.376 205.878 200.745C205.878 202.115 204.78 203.213 203.411 203.213Z" fill="var(--color-4)"/>
    <path d="M219.597 203.016C220.25 203.669 220.658 204.57 220.658 205.557C220.658 206.544 220.25 207.445 219.597 208.098C219.263 208.431 218.881 208.691 218.462 208.863C218.03 209.048 217.549 209.147 217.043 209.147C216.118 209.147 215.205 208.789 214.501 208.098L208.358 201.955H217.055C218.042 201.955 218.943 202.362 219.597 203.016Z" fill="var(--color-4)"/>
    <path d="M217.043 199.486H208.345L214.489 193.342C215.192 192.639 216.118 192.293 217.031 192.293C217.536 192.293 218.005 192.392 218.449 192.577C218.857 192.75 219.251 193.009 219.584 193.342C220.238 193.996 220.645 194.897 220.645 195.884C220.645 196.87 220.238 197.771 219.584 198.425C218.931 199.079 218.03 199.486 217.043 199.486Z" fill="var(--color-4)"/>
    <path d="M189.766 201.967H198.463L192.32 208.111C191.616 208.814 190.691 209.159 189.778 209.159C189.272 209.159 188.804 209.061 188.36 208.875C187.952 208.703 187.558 208.444 187.225 208.111C186.571 207.457 186.164 206.556 186.164 205.569C186.164 204.582 186.571 203.682 187.225 203.028C187.878 202.374 188.779 201.967 189.766 201.967Z" fill="var(--color-4)"/>
    <path d="M187.225 198.425C186.571 197.771 186.164 196.87 186.164 195.884C186.164 194.897 186.571 193.996 187.225 193.342C187.558 193.009 187.94 192.75 188.36 192.577C188.791 192.392 189.272 192.293 189.778 192.293C190.704 192.293 191.616 192.651 192.32 193.342L198.463 199.486H189.766C188.779 199.486 187.878 199.079 187.225 198.425Z" fill="var(--color-4)"/>
    <path d="M201.116 216.905C200.462 217.559 199.562 217.966 198.575 217.966C197.588 217.966 196.687 217.559 196.033 216.905C195.7 216.572 195.441 216.19 195.268 215.77C195.083 215.339 194.985 214.858 194.985 214.352C194.985 213.426 195.33 212.513 196.033 211.81L202.177 205.667V214.364C202.177 215.351 201.77 216.252 201.116 216.905Z" fill="var(--color-4)"/>
    <path d="M204.644 214.364V205.667L210.788 211.81C211.491 212.513 211.837 213.439 211.837 214.352C211.837 214.858 211.738 215.326 211.553 215.77C211.38 216.178 211.121 216.572 210.788 216.905C210.134 217.559 209.234 217.954 208.247 217.954C207.26 217.954 206.359 217.547 205.705 216.893C205.051 216.239 204.644 215.339 204.644 214.352V214.364Z" fill="var(--color-4)"/>
    <path d="M202.165 187.087V195.785L196.021 189.641C195.318 188.938 194.972 188.012 194.972 187.099C194.972 186.594 195.071 186.125 195.256 185.681C195.429 185.274 195.688 184.879 196.021 184.546C196.675 183.892 197.575 183.497 198.562 183.497C199.549 183.497 200.45 183.904 201.104 184.558C201.757 185.212 202.165 186.112 202.165 187.099V187.087Z" fill="var(--color-4)"/>
    <path d="M205.705 184.533C206.359 183.879 207.26 183.472 208.247 183.472C209.234 183.472 210.134 183.879 210.788 184.533C211.121 184.866 211.38 185.249 211.553 185.668C211.738 186.1 211.837 186.581 211.837 187.087C211.837 188.012 211.491 188.925 210.788 189.628L204.644 195.772V187.075C204.644 186.088 205.051 185.187 205.705 184.533Z" fill="var(--color-4)"/>
  </g>
  <path d="M339.107 173.203V174.164H337.693C336.937 174.164 336.539 173.683 336.539 173.038V172.063C334.328 171.857 332.928 170.127 332.928 167.12C332.928 163.907 334.521 162.163 336.992 162.163C339.464 162.163 341.057 163.907 341.057 167.12C341.057 170.045 339.739 171.747 337.638 172.036V173.203H339.107ZM336.992 171.047C338.654 171.047 339.821 169.811 339.821 167.916V166.323C339.821 164.428 338.654 163.193 336.992 163.193C335.331 163.193 334.164 164.428 334.164 166.323V167.916C334.164 169.811 335.331 171.047 336.992 171.047ZM347.77 171.912V170.759H347.715C347.441 171.432 346.905 172.077 345.724 172.077C344.269 172.077 343.335 171.088 343.335 169.372V164.827H344.434V169.18C344.434 170.443 344.997 171.088 346.054 171.088C346.919 171.088 347.77 170.663 347.77 169.729V164.827H348.869V171.912H347.77ZM357.358 171.912H356.741C355.93 171.912 355.601 171.418 355.518 170.759H355.45C355.148 171.624 354.392 172.077 353.404 172.077C351.907 172.077 351.028 171.253 351.028 169.935C351.028 168.603 351.989 167.861 354.049 167.861H355.45V167.161C355.45 166.159 354.9 165.609 353.774 165.609C352.923 165.609 352.36 166.021 351.976 166.667L351.317 166.049C351.701 165.294 352.552 164.662 353.829 164.662C355.532 164.662 356.548 165.554 356.548 167.051V170.951H357.358V171.912ZM353.582 171.143C354.667 171.143 355.45 170.58 355.45 169.852V168.685H353.994C352.745 168.685 352.182 169.07 352.182 169.756V170.045C352.182 170.745 352.731 171.143 353.582 171.143ZM361.451 171.912H360.477C359.721 171.912 359.309 171.432 359.309 170.772V161.751H360.408V170.951H361.451V171.912ZM363.983 163.165C363.516 163.165 363.31 162.918 363.31 162.547V162.369C363.31 161.998 363.516 161.751 363.983 161.751C364.45 161.751 364.656 161.998 364.656 162.369V162.547C364.656 162.918 364.45 163.165 363.983 163.165ZM363.434 171.912V164.827H364.532V171.912H363.434ZM370.188 171.912H368.815C368.06 171.912 367.648 171.432 367.648 170.745V165.788H366.481V164.827H367.14C367.607 164.827 367.758 164.662 367.758 164.181V162.863H368.746V164.827H370.298V165.788H368.746V170.951H370.188V171.912ZM375.097 169.646L376.814 164.827H377.898L374.726 173.56C374.411 174.411 374.122 174.658 373.079 174.658H372.516V173.697H373.628L374.163 172.187L371.513 164.827H372.612L374.314 169.646L374.644 170.8H374.713L375.097 169.646ZM336.786 189.077C334.37 189.077 332.928 187.374 332.928 184.175C332.928 180.975 334.37 179.163 336.786 179.163C338.379 179.163 339.478 179.932 340.082 181.264L339.148 181.827C338.764 180.838 337.967 180.193 336.786 180.193C335.139 180.193 334.164 181.497 334.164 183.461V184.889C334.164 186.852 335.139 188.047 336.786 188.047C338.008 188.047 338.846 187.36 339.231 186.317L340.151 186.894C339.546 188.239 338.379 189.077 336.786 189.077ZM344.888 189.077C342.993 189.077 341.688 187.621 341.688 185.369C341.688 183.117 342.993 181.662 344.888 181.662C346.783 181.662 348.087 183.117 348.087 185.369C348.087 187.621 346.783 189.077 344.888 189.077ZM344.888 188.102C346.069 188.102 346.906 187.374 346.906 185.877V184.861C346.906 183.365 346.069 182.637 344.888 182.637C343.707 182.637 342.869 183.365 342.869 184.861V185.877C342.869 187.374 343.707 188.102 344.888 188.102ZM351.376 188.912H350.277V181.827H351.376V182.98H351.43C351.774 182.184 352.378 181.662 353.435 181.662C354.891 181.662 355.811 182.651 355.811 184.367V188.912H354.712V184.559C354.712 183.296 354.163 182.651 353.106 182.651C352.227 182.651 351.376 183.09 351.376 183.996V188.912ZM361.403 188.912H360.03C359.275 188.912 358.863 188.432 358.863 187.745V182.788H357.696V181.827H358.355C358.822 181.827 358.973 181.662 358.973 181.181V179.863H359.961V181.827H361.513V182.788H359.961V187.951H361.403V188.912ZM364.76 188.912H363.662V181.827H364.76V183.131H364.829C365.076 182.458 365.721 181.827 366.875 181.827H367.301V182.925H366.655C365.474 182.925 364.76 183.433 364.76 184.106V188.912ZM371.697 189.077C369.803 189.077 368.498 187.621 368.498 185.369C368.498 183.117 369.803 181.662 371.697 181.662C373.592 181.662 374.897 183.117 374.897 185.369C374.897 187.621 373.592 189.077 371.697 189.077ZM371.697 188.102C372.878 188.102 373.716 187.374 373.716 185.877V184.861C373.716 183.365 372.878 182.637 371.697 182.637C370.517 182.637 369.679 183.365 369.679 184.861V185.877C369.679 187.374 370.517 188.102 371.697 188.102ZM379.229 188.912H378.254C377.499 188.912 377.087 188.432 377.087 187.772V178.751H378.185V187.951H379.229V188.912Z" fill="var(--color-4)"/>
  <circle cx="357.482" cy="122.329" r="28.7836" fill="var(--color-7)"/>
  <g >
    <path d="M365.064 112.739C363.695 112.739 362.597 111.641 362.597 110.272C362.597 108.902 363.695 107.804 365.064 107.804C366.433 107.804 367.53 108.902 367.53 110.272C367.53 111.641 366.433 112.739 365.064 112.739Z" fill="var(--color-4)"/>
    <path d="M357.701 112.738C356.356 112.738 355.259 111.653 355.259 110.296C355.259 108.939 356.344 107.853 357.701 107.853C359.057 107.853 360.143 108.939 360.143 110.296C360.143 111.653 359.057 112.738 357.701 112.738Z" fill="var(--color-4)"/>
    <path d="M350.301 137.452H345.367L357.7 115.245H362.634L350.301 137.452Z" fill="var(--color-4)"/>
    <path d="M373.684 125.669C373.684 126.767 373.265 127.865 372.426 128.704C371.588 129.543 370.49 129.963 369.392 129.963C368.825 129.963 368.282 129.852 367.789 129.654C367.271 129.444 366.778 129.124 366.358 128.704C365.581 127.927 365.1 126.854 365.1 125.669V115.294L372.439 122.634C373.277 123.473 373.696 124.571 373.696 125.669H373.684Z" fill="var(--color-4)"/>
    <path d="M344.689 115.23H355.062L347.723 122.571C346.885 123.41 345.787 123.829 344.689 123.829C344.085 123.829 343.518 123.706 343 123.484C342.507 123.274 342.05 122.966 341.643 122.571C340.866 121.794 340.385 120.72 340.385 119.536C340.385 118.352 340.866 117.278 341.643 116.501C342.42 115.724 343.493 115.243 344.677 115.243L344.689 115.23Z" fill="var(--color-4)"/>
  </g>
  <rect x="0.42911" y="186.663" width="96.1207" height="56.6425" rx="6.43665" stroke="var(--color-9)" stroke-width="0.85822"/>
  <path d="M10.7859 202.187V204.957H9.42652V197.769H12.6706C13.9785 197.769 14.7921 198.634 14.7921 199.993C14.7921 200.982 14.339 201.734 13.4533 202.032L14.926 204.957H13.4121L12.0733 202.187H10.7859ZM10.7859 201.044H12.5367C13.0619 201.044 13.3812 200.755 13.3812 200.23V199.756C13.3812 199.231 13.0619 198.953 12.5367 198.953H10.7859V201.044ZM19.3963 204.957V204.061H19.3448C19.1594 204.597 18.7268 205.081 17.8412 205.081C16.7392 205.081 16.1213 204.319 16.1213 202.98V199.581H17.4395V202.846C17.4395 203.587 17.7176 203.989 18.3458 203.989C18.871 203.989 19.3963 203.711 19.3963 203.134V199.581H20.7145V204.957H19.3963ZM24.2664 204.957H23.5558C22.6598 204.957 22.2376 204.483 22.2376 203.659V197.336H23.5558V203.907H24.2664V204.957ZM27.4378 205.081C25.8518 205.081 24.9043 203.979 24.9043 202.259C24.9043 200.56 25.8209 199.458 27.3966 199.458C29.0753 199.458 29.8477 200.693 29.8477 202.166V202.599H26.2741V202.733C26.2741 203.505 26.7169 204.03 27.582 204.03C28.2308 204.03 28.6221 203.721 28.9517 203.299L29.6623 204.092C29.2195 204.7 28.4368 205.081 27.4378 205.081ZM27.4172 200.446C26.7272 200.446 26.2741 200.961 26.2741 201.703V201.785H28.478V201.692C28.478 200.951 28.0969 200.446 27.4172 200.446ZM31.8829 205.07C31.3267 205.07 31.059 204.751 31.059 204.319V204.133C31.059 203.69 31.3267 203.371 31.8829 203.371C32.4493 203.371 32.7068 203.69 32.7068 204.133V204.319C32.7068 204.751 32.4493 205.07 31.8829 205.07ZM31.8829 201.167C31.3267 201.167 31.059 200.848 31.059 200.415V200.23C31.059 199.787 31.3267 199.468 31.8829 199.468C32.4493 199.468 32.7068 199.787 32.7068 200.23V200.415C32.7068 200.848 32.4493 201.167 31.8829 201.167ZM36.9157 204.957V197.769H38.0691L40.1289 201.641H40.1804L42.2504 197.769H43.3626V204.957H42.5182V198.901H42.4667L41.859 200.106L40.1392 203.237L38.4193 200.106L37.8117 198.901H37.7602V204.957H36.9157ZM48.4659 204.957V204.092H48.4247C48.2187 204.597 47.8171 205.081 46.9314 205.081C45.8397 205.081 45.1394 204.339 45.1394 203.052V199.643H45.9633V202.908C45.9633 203.855 46.3855 204.339 47.1785 204.339C47.8274 204.339 48.4659 204.02 48.4659 203.32V199.643H49.2898V204.957H48.4659ZM52.6405 205.081C51.6621 205.081 51.0133 204.669 50.5396 204.04L51.1266 203.567C51.5386 204.082 52.0329 204.38 52.7023 204.38C53.4026 204.38 53.8146 204.061 53.8146 203.515C53.8146 203.103 53.588 202.784 52.8877 202.681L52.4654 202.619C51.4871 202.475 50.7559 202.073 50.7559 201.085C50.7559 200.034 51.5695 199.519 52.6508 199.519C53.5056 199.519 54.072 199.839 54.5046 200.374L53.9587 200.868C53.7219 200.539 53.2687 200.22 52.589 200.22C51.9093 200.22 51.5489 200.539 51.5489 201.044C51.5489 201.558 51.9093 201.764 52.5684 201.867L52.9804 201.929C54.1544 202.104 54.6076 202.619 54.6076 203.423C54.6076 204.452 53.8558 205.081 52.6405 205.081ZM58.1963 204.957H57.1665C56.6 204.957 56.2911 204.597 56.2911 204.082V200.364H55.4157V199.643H55.91C56.2602 199.643 56.3735 199.519 56.3735 199.159V198.17H57.115V199.643H58.2787V200.364H57.115V204.236H58.1963V204.957ZM64.2407 204.957H63.2109C62.6444 204.957 62.3355 204.597 62.3355 204.082V200.364H61.4601V199.643H61.9544C62.3046 199.643 62.4179 199.519 62.4179 199.159V198.17H63.1594V199.643H64.3231V200.364H63.1594V204.236H64.2407V204.957ZM65.6474 204.957V197.336H66.4713V200.508H66.5125C66.7699 199.911 67.2231 199.519 68.0161 199.519C69.1077 199.519 69.7977 200.261 69.7977 201.548V204.957H68.9739V201.692C68.9739 200.745 68.5619 200.261 67.7689 200.261C67.1098 200.261 66.4713 200.59 66.4713 201.27V204.957H65.6474ZM71.9127 198.397C71.5625 198.397 71.408 198.211 71.408 197.933V197.799C71.408 197.521 71.5625 197.336 71.9127 197.336C72.2628 197.336 72.4173 197.521 72.4173 197.799V197.933C72.4173 198.211 72.2628 198.397 71.9127 198.397ZM71.5007 204.957V199.643H72.3246V204.957H71.5007ZM74.8993 204.957H74.0754V199.643H74.8993V200.508H74.9405C75.1979 199.911 75.6511 199.519 76.4441 199.519C77.5357 199.519 78.2257 200.261 78.2257 201.548V204.957H77.4018V201.692C77.4018 200.745 76.9899 200.261 76.1969 200.261C75.5378 200.261 74.8993 200.59 74.8993 201.27V204.957ZM79.9287 204.957V197.336H80.7526V202.166H80.7938L81.6074 201.26L83.111 199.643H84.11L82.1429 201.744L84.3056 204.957H83.3067L81.5456 202.248L80.7526 203.062V204.957H79.9287ZM9.45742 217.957V210.336H10.2813V213.508H10.3225C10.6006 212.839 11.1464 212.519 11.8776 212.519C13.2061 212.519 14.0403 213.601 14.0403 215.3C14.0403 216.999 13.2061 218.081 11.8776 218.081C11.1464 218.081 10.6418 217.751 10.3225 217.092H10.2813V217.957H9.45742ZM11.651 217.339C12.5779 217.339 13.1546 216.701 13.1546 215.753V214.847C13.1546 213.899 12.5779 213.261 11.651 213.261C10.8992 213.261 10.2813 213.693 10.2813 214.28V216.258C10.2813 216.948 10.8992 217.339 11.651 217.339ZM17.4294 218.081C15.9876 218.081 15.0401 216.989 15.0401 215.3C15.0401 213.611 15.9876 212.519 17.4294 212.519C18.8506 212.519 19.726 213.611 19.726 215.115V215.506H15.9052V215.753C15.9052 216.67 16.4922 217.36 17.4809 217.36C18.1503 217.36 18.6652 217.03 18.9433 216.443L19.5303 216.865C19.1904 217.586 18.4283 218.081 17.4294 218.081ZM17.4294 213.209C16.5334 213.209 15.9052 213.889 15.9052 214.816V214.888H18.8403V214.775C18.8403 213.838 18.2739 213.209 17.4294 213.209ZM21.372 217.957V213.364H20.5069V212.643H21.372V211.572C21.372 210.841 21.753 210.336 22.5357 210.336H23.339V211.057H22.1959V212.643H23.339V213.364H22.1959V217.957H21.372ZM26.3906 218.081C24.9694 218.081 23.9911 216.989 23.9911 215.3C23.9911 213.611 24.9694 212.519 26.3906 212.519C27.8119 212.519 28.7902 213.611 28.7902 215.3C28.7902 216.989 27.8119 218.081 26.3906 218.081ZM26.3906 217.349C27.2763 217.349 27.9045 216.804 27.9045 215.681V214.919C27.9045 213.796 27.2763 213.251 26.3906 213.251C25.505 213.251 24.8767 213.796 24.8767 214.919V215.681C24.8767 216.804 25.505 217.349 26.3906 217.349ZM30.9691 217.957H30.1452V212.643H30.9691V213.621H31.0206C31.206 213.117 31.69 212.643 32.5551 212.643H32.8744V213.467H32.3903C31.5046 213.467 30.9691 213.848 30.9691 214.353V217.957ZM35.8744 218.081C34.4326 218.081 33.4851 216.989 33.4851 215.3C33.4851 213.611 34.4326 212.519 35.8744 212.519C37.2956 212.519 38.171 213.611 38.171 215.115V215.506H34.3502V215.753C34.3502 216.67 34.9372 217.36 35.9259 217.36C36.5953 217.36 37.1102 217.03 37.3883 216.443L37.9753 216.865C37.6355 217.586 36.8734 218.081 35.8744 218.081ZM35.8744 213.209C34.9784 213.209 34.3502 213.889 34.3502 214.816V214.888H37.2853V214.775C37.2853 213.838 36.7189 213.209 35.8744 213.209ZM43.5588 218.081C42.5804 218.081 41.9316 217.669 41.4579 217.04L42.0449 216.567C42.4568 217.082 42.9512 217.38 43.6206 217.38C44.3209 217.38 44.7328 217.061 44.7328 216.515C44.7328 216.103 44.5063 215.784 43.806 215.681L43.3837 215.619C42.4054 215.475 41.6742 215.073 41.6742 214.085C41.6742 213.034 42.4877 212.519 43.5691 212.519C44.4239 212.519 44.9903 212.839 45.4229 213.374L44.877 213.868C44.6402 213.539 44.187 213.22 43.5073 213.22C42.8276 213.22 42.4671 213.539 42.4671 214.044C42.4671 214.558 42.8276 214.764 43.4867 214.867L43.8987 214.929C45.0727 215.104 45.5258 215.619 45.5258 216.423C45.5258 217.452 44.774 218.081 43.5588 218.081ZM48.979 218.081C47.5372 218.081 46.5897 216.989 46.5897 215.3C46.5897 213.611 47.5372 212.519 48.979 212.519C50.4002 212.519 51.2756 213.611 51.2756 215.115V215.506H47.4548V215.753C47.4548 216.67 48.0419 217.36 49.0305 217.36C49.6999 217.36 50.2149 217.03 50.4929 216.443L51.08 216.865C50.7401 217.586 49.978 218.081 48.979 218.081ZM48.979 213.209C48.083 213.209 47.4548 213.889 47.4548 214.816V214.888H50.3899V214.775C50.3899 213.838 49.8235 213.209 48.979 213.209ZM54.2399 217.957H53.5087C52.9422 217.957 52.6333 217.597 52.6333 217.102V210.336H53.4572V217.236H54.2399V217.957ZM57.4372 218.081C55.9954 218.081 55.0479 216.989 55.0479 215.3C55.0479 213.611 55.9954 212.519 57.4372 212.519C58.8584 212.519 59.7338 213.611 59.7338 215.115V215.506H55.913V215.753C55.913 216.67 56.5 217.36 57.4887 217.36C58.1581 217.36 58.673 217.03 58.9511 216.443L59.5381 216.865C59.1983 217.586 58.4362 218.081 57.4372 218.081ZM57.4372 213.209C56.5412 213.209 55.913 213.889 55.913 214.816V214.888H58.8481V214.775C58.8481 213.838 58.2817 213.209 57.4372 213.209ZM63.0688 218.081C61.5755 218.081 60.7001 216.999 60.7001 215.3C60.7001 213.601 61.5755 212.519 63.0688 212.519C64.1192 212.519 64.7475 213.034 65.0564 213.765L64.3664 214.116C64.1707 213.57 63.7176 213.251 63.0688 213.251C62.0904 213.251 61.5858 213.92 61.5858 214.847V215.753C61.5858 216.68 62.0904 217.349 63.0688 217.349C63.7382 217.349 64.2222 217.03 64.5106 216.423L65.1079 216.824C64.7681 217.586 64.078 218.081 63.0688 218.081ZM68.4748 217.957H67.445C66.8786 217.957 66.5696 217.597 66.5696 217.082V213.364H65.6942V212.643H66.1885C66.5387 212.643 66.652 212.519 66.652 212.159V211.17H67.3935V212.643H68.5572V213.364H67.3935V217.236H68.4748V217.957ZM70.2934 211.397C69.9433 211.397 69.7888 211.211 69.7888 210.933V210.799C69.7888 210.521 69.9433 210.336 70.2934 210.336C70.6436 210.336 70.7981 210.521 70.7981 210.799V210.933C70.7981 211.211 70.6436 211.397 70.2934 211.397ZM69.8815 217.957V212.643H70.7054V217.957H69.8815ZM73.28 217.957H72.4562V212.643H73.28V213.508H73.3212C73.5787 212.911 74.0318 212.519 74.8248 212.519C75.9165 212.519 76.6065 213.261 76.6065 214.548V217.957H75.7826V214.692C75.7826 213.745 75.3707 213.261 74.5777 213.261C73.9186 213.261 73.28 213.59 73.28 214.27V217.957ZM82.7894 218.544C82.7894 219.636 81.9243 220.14 80.2147 220.14C78.5567 220.14 77.8769 219.667 77.8769 218.832C77.8769 218.256 78.1962 217.947 78.7214 217.803V217.689C78.4228 217.545 78.2477 217.308 78.2477 216.948C78.2477 216.412 78.6287 216.155 79.1643 216.021V215.98C78.5361 215.681 78.1653 215.094 78.1653 214.353C78.1653 213.271 78.9583 212.519 80.1632 212.519C80.5443 212.519 80.8842 212.591 81.1725 212.725V212.633C81.1725 212.221 81.3476 211.922 81.7904 211.922H82.5834V212.643H81.5742V212.983C81.9552 213.312 82.1818 213.786 82.1818 214.353C82.1818 215.434 81.3888 216.186 80.1735 216.186C79.9985 216.186 79.8131 216.165 79.6586 216.134C79.3085 216.227 78.9583 216.402 78.9583 216.731C78.9583 217.051 79.2879 217.133 79.7719 217.133H80.9047C82.223 217.133 82.7894 217.669 82.7894 218.544ZM82.017 218.606C82.017 218.184 81.7389 217.906 80.915 217.906H79.1437C78.8038 218.06 78.6493 218.297 78.6493 218.626C78.6493 219.09 78.9686 219.471 79.8028 219.471H80.5649C81.4815 219.471 82.017 219.183 82.017 218.606ZM80.1735 215.527C80.8739 215.527 81.3167 215.197 81.3167 214.497V214.208C81.3167 213.508 80.8739 213.178 80.1735 213.178C79.4732 213.178 79.0304 213.508 79.0304 214.208V214.497C79.0304 215.197 79.4732 215.527 80.1735 215.527ZM11.0537 232.081C10.0753 232.081 9.42652 231.669 8.95278 231.04L9.53981 230.567C9.95175 231.082 10.4461 231.38 11.1155 231.38C11.8158 231.38 12.2278 231.061 12.2278 230.515C12.2278 230.103 12.0012 229.784 11.3009 229.681L10.8786 229.619C9.90026 229.475 9.16905 229.073 9.16905 228.085C9.16905 227.034 9.98265 226.519 11.064 226.519C11.9188 226.519 12.4852 226.839 12.9178 227.374L12.3719 227.868C12.1351 227.539 11.6819 227.22 11.0022 227.22C10.3225 227.22 9.96205 227.539 9.96205 228.044C9.96205 228.558 10.3225 228.764 10.9816 228.867L11.3936 228.929C12.5676 229.104 13.0207 229.619 13.0207 230.423C13.0207 231.452 12.2689 232.081 11.0537 232.081ZM17.751 231.957V231.092H17.7098C17.5038 231.597 17.1021 232.081 16.2165 232.081C15.1248 232.081 14.4245 231.339 14.4245 230.052V226.643H15.2484V229.908C15.2484 230.855 15.6706 231.339 16.4636 231.339C17.1124 231.339 17.751 231.02 17.751 230.32V226.643H18.5749V231.957H17.751ZM20.3293 234.017V226.643H21.1532V227.508H21.1944C21.4725 226.839 22.0183 226.519 22.7495 226.519C24.078 226.519 24.9122 227.601 24.9122 229.3C24.9122 230.999 24.078 232.081 22.7495 232.081C22.0183 232.081 21.5137 231.751 21.1944 231.092H21.1532V234.017H20.3293ZM22.5229 231.339C23.4498 231.339 24.0265 230.701 24.0265 229.753V228.847C24.0265 227.899 23.4498 227.261 22.5229 227.261C21.7711 227.261 21.1532 227.693 21.1532 228.28V230.258C21.1532 230.948 21.7711 231.339 22.5229 231.339ZM26.3033 234.017V226.643H27.1272V227.508H27.1684C27.4465 226.839 27.9923 226.519 28.7235 226.519C30.0521 226.519 30.8862 227.601 30.8862 229.3C30.8862 230.999 30.0521 232.081 28.7235 232.081C27.9923 232.081 27.4877 231.751 27.1684 231.092H27.1272V234.017H26.3033ZM28.497 231.339C29.4238 231.339 30.0006 230.701 30.0006 229.753V228.847C30.0006 227.899 29.4238 227.261 28.497 227.261C27.7452 227.261 27.1272 227.693 27.1272 228.28V230.258C27.1272 230.948 27.7452 231.339 28.497 231.339ZM34.2856 232.081C32.8644 232.081 31.886 230.989 31.886 229.3C31.886 227.611 32.8644 226.519 34.2856 226.519C35.7068 226.519 36.6852 227.611 36.6852 229.3C36.6852 230.989 35.7068 232.081 34.2856 232.081ZM34.2856 231.349C35.1713 231.349 35.7995 230.804 35.7995 229.681V228.919C35.7995 227.796 35.1713 227.251 34.2856 227.251C33.3999 227.251 32.7717 227.796 32.7717 228.919V229.681C32.7717 230.804 33.3999 231.349 34.2856 231.349ZM38.8641 231.957H38.0402V226.643H38.8641V227.621H38.9156C39.1009 227.117 39.585 226.643 40.4501 226.643H40.7693V227.467H40.2853C39.3996 227.467 38.8641 227.848 38.8641 228.353V231.957ZM44.0659 231.957H43.036C42.4696 231.957 42.1606 231.597 42.1606 231.082V227.364H41.2852V226.643H41.7796C42.1297 226.643 42.243 226.519 42.243 226.159V225.17H42.9845V226.643H44.1482V227.364H42.9845V231.236H44.0659V231.957Z" fill="var(--color-4)"/>
  <rect x="329.127" y="202.969" width="96.1207" height="56.6425" rx="6.43665" stroke="var(--color-9)" stroke-width="0.85822"/>
  <path d="M339.485 218.493V221.264H338.125V214.075H341.369C342.677 214.075 343.491 214.94 343.491 216.3C343.491 217.288 343.038 218.04 342.152 218.339L343.625 221.264H342.111L340.772 218.493H339.485ZM339.485 217.35H341.235C341.761 217.35 342.08 217.062 342.08 216.537V216.063C342.08 215.538 341.761 215.26 341.235 215.26H339.485V217.35ZM348.095 221.264V220.368H348.043C347.858 220.903 347.426 221.387 346.54 221.387C345.438 221.387 344.82 220.625 344.82 219.286V215.888H346.138V219.152C346.138 219.894 346.416 220.296 347.045 220.296C347.57 220.296 348.095 220.018 348.095 219.441V215.888H349.413V221.264H348.095ZM352.965 221.264H352.255C351.359 221.264 350.936 220.79 350.936 219.966V213.643H352.255V220.213H352.965V221.264ZM356.137 221.387C354.551 221.387 353.603 220.285 353.603 218.565C353.603 216.866 354.52 215.764 356.095 215.764C357.774 215.764 358.546 217 358.546 218.473V218.905H354.973V219.039C354.973 219.812 355.416 220.337 356.281 220.337C356.93 220.337 357.321 220.028 357.65 219.606L358.361 220.399C357.918 221.006 357.136 221.387 356.137 221.387ZM356.116 216.753C355.426 216.753 354.973 217.268 354.973 218.009V218.092H357.177V217.999C357.177 217.257 356.796 216.753 356.116 216.753ZM360.582 221.377C360.025 221.377 359.758 221.058 359.758 220.625V220.44C359.758 219.997 360.025 219.678 360.582 219.678C361.148 219.678 361.405 219.997 361.405 220.44V220.625C361.405 221.058 361.148 221.377 360.582 221.377ZM360.582 217.474C360.025 217.474 359.758 217.155 359.758 216.722V216.537C359.758 216.094 360.025 215.774 360.582 215.774C361.148 215.774 361.405 216.094 361.405 216.537V216.722C361.405 217.155 361.148 217.474 360.582 217.474ZM365.614 221.264V214.075H366.768L368.828 217.948H368.879L370.949 214.075H372.061V221.264H371.217V215.208H371.165L370.558 216.413L368.838 219.544L367.118 216.413L366.51 215.208H366.459V221.264H365.614ZM377.165 221.264V220.399H377.123C376.917 220.903 376.516 221.387 375.63 221.387C374.538 221.387 373.838 220.646 373.838 219.358V215.95H374.662V219.214C374.662 220.162 375.084 220.646 375.877 220.646C376.526 220.646 377.165 220.326 377.165 219.626V215.95H377.988V221.264H377.165ZM381.339 221.387C380.361 221.387 379.712 220.975 379.238 220.347L379.825 219.873C380.237 220.388 380.732 220.687 381.401 220.687C382.101 220.687 382.513 220.368 382.513 219.822C382.513 219.41 382.287 219.091 381.586 218.988L381.164 218.926C380.186 218.782 379.455 218.38 379.455 217.391C379.455 216.341 380.268 215.826 381.35 215.826C382.204 215.826 382.771 216.145 383.203 216.681L382.657 217.175C382.421 216.846 381.967 216.526 381.288 216.526C380.608 216.526 380.248 216.846 380.248 217.35C380.248 217.865 380.608 218.071 381.267 218.174L381.679 218.236C382.853 218.411 383.306 218.926 383.306 219.729C383.306 220.759 382.554 221.387 381.339 221.387ZM386.895 221.264H385.865C385.299 221.264 384.99 220.903 384.99 220.388V216.67H384.114V215.95H384.609C384.959 215.95 385.072 215.826 385.072 215.466V214.477H385.814V215.95H386.977V216.67H385.814V220.543H386.895V221.264ZM391.559 221.264H390.736V215.95H391.559V216.928H391.611C391.796 216.423 392.28 215.95 393.145 215.95H393.465V216.773H392.981C392.095 216.773 391.559 217.155 391.559 217.659V221.264ZM397.792 221.264V220.399H397.751C397.545 220.903 397.143 221.387 396.258 221.387C395.166 221.387 394.466 220.646 394.466 219.358V215.95H395.289V219.214C395.289 220.162 395.712 220.646 396.505 220.646C397.154 220.646 397.792 220.326 397.792 219.626V215.95H398.616V221.264H397.792ZM401.194 221.264H400.37V215.95H401.194V216.815H401.236C401.493 216.217 401.946 215.826 402.739 215.826C403.831 215.826 404.521 216.567 404.521 217.855V221.264H403.697V217.999C403.697 217.052 403.285 216.567 402.492 216.567C401.833 216.567 401.194 216.897 401.194 217.577V221.264ZM342.482 234.264H342.018C341.411 234.264 341.163 233.893 341.102 233.399H341.05C340.823 234.047 340.257 234.387 339.516 234.387C338.393 234.387 337.734 233.769 337.734 232.781C337.734 231.782 338.455 231.226 340 231.226H341.05V230.7C341.05 229.949 340.638 229.537 339.794 229.537C339.155 229.537 338.733 229.846 338.445 230.33L337.95 229.866C338.239 229.3 338.877 228.826 339.835 228.826C341.112 228.826 341.874 229.495 341.874 230.618V233.543H342.482V234.264ZM339.649 233.687C340.463 233.687 341.05 233.265 341.05 232.719V231.843H339.958C339.021 231.843 338.599 232.132 338.599 232.647V232.863C338.599 233.388 339.011 233.687 339.649 233.687ZM343.946 234.264V229.67H343.081V228.95H343.946V227.879C343.946 227.147 344.327 226.643 345.11 226.643H345.913V227.364H344.77V228.95H345.913V229.67H344.77V234.264H343.946ZM349.2 234.264H348.171C347.604 234.264 347.295 233.903 347.295 233.388V229.67H346.42V228.95H346.914C347.264 228.95 347.378 228.826 347.378 228.466V227.477H348.119V228.95H349.283V229.67H348.119V233.543H349.2V234.264ZM352.565 234.387C351.123 234.387 350.175 233.296 350.175 231.607C350.175 229.918 351.123 228.826 352.565 228.826C353.986 228.826 354.861 229.918 354.861 231.421V231.813H351.041V232.06C351.041 232.976 351.628 233.666 352.616 233.666C353.286 233.666 353.801 233.337 354.079 232.75L354.666 233.172C354.326 233.893 353.564 234.387 352.565 234.387ZM352.565 229.516C351.669 229.516 351.041 230.196 351.041 231.123V231.195H353.976V231.081C353.976 230.144 353.409 229.516 352.565 229.516ZM357.043 234.264H356.219V228.95H357.043V229.928H357.094C357.28 229.423 357.764 228.95 358.629 228.95H358.948V229.773H358.464C357.578 229.773 357.043 230.155 357.043 230.659V234.264ZM364.031 234.387C363.052 234.387 362.404 233.975 361.93 233.347L362.517 232.873C362.929 233.388 363.423 233.687 364.092 233.687C364.793 233.687 365.205 233.368 365.205 232.822C365.205 232.41 364.978 232.091 364.278 231.988L363.856 231.926C362.877 231.782 362.146 231.38 362.146 230.391C362.146 229.341 362.96 228.826 364.041 228.826C364.896 228.826 365.462 229.145 365.895 229.681L365.349 230.175C365.112 229.846 364.659 229.526 363.979 229.526C363.299 229.526 362.939 229.846 362.939 230.35C362.939 230.865 363.299 231.071 363.959 231.174L364.371 231.236C365.545 231.411 365.998 231.926 365.998 232.729C365.998 233.759 365.246 234.387 364.031 234.387ZM370.728 234.264V233.399H370.687C370.481 233.903 370.079 234.387 369.193 234.387C368.102 234.387 367.401 233.646 367.401 232.358V228.95H368.225V232.214C368.225 233.162 368.648 233.646 369.441 233.646C370.089 233.646 370.728 233.326 370.728 232.626V228.95H371.552V234.264H370.728ZM373.306 236.323V228.95H374.13V229.815H374.171C374.449 229.145 374.995 228.826 375.726 228.826C377.055 228.826 377.889 229.907 377.889 231.607C377.889 233.306 377.055 234.387 375.726 234.387C374.995 234.387 374.491 234.058 374.171 233.399H374.13V236.323H373.306ZM375.5 233.646C376.427 233.646 377.004 233.007 377.004 232.06V231.153C377.004 230.206 376.427 229.567 375.5 229.567C374.748 229.567 374.13 230 374.13 230.587V232.564C374.13 233.254 374.748 233.646 375.5 233.646ZM379.28 236.323V228.95H380.104V229.815H380.145C380.423 229.145 380.969 228.826 381.701 228.826C383.029 228.826 383.863 229.907 383.863 231.607C383.863 233.306 383.029 234.387 381.701 234.387C380.969 234.387 380.465 234.058 380.145 233.399H380.104V236.323H379.28ZM381.474 233.646C382.401 233.646 382.978 233.007 382.978 232.06V231.153C382.978 230.206 382.401 229.567 381.474 229.567C380.722 229.567 380.104 230 380.104 230.587V232.564C380.104 233.254 380.722 233.646 381.474 233.646ZM387.263 234.387C385.841 234.387 384.863 233.296 384.863 231.607C384.863 229.918 385.841 228.826 387.263 228.826C388.684 228.826 389.662 229.918 389.662 231.607C389.662 233.296 388.684 234.387 387.263 234.387ZM387.263 233.656C388.148 233.656 388.776 233.11 388.776 231.988V231.226C388.776 230.103 388.148 229.557 387.263 229.557C386.377 229.557 385.749 230.103 385.749 231.226V231.988C385.749 233.11 386.377 233.656 387.263 233.656ZM391.841 234.264H391.017V228.95H391.841V229.928H391.893C392.078 229.423 392.562 228.95 393.427 228.95H393.746V229.773H393.262C392.377 229.773 391.841 230.155 391.841 230.659V234.264ZM397.043 234.264H396.013C395.447 234.264 395.138 233.903 395.138 233.388V229.67H394.262V228.95H394.757C395.107 228.95 395.22 228.826 395.22 228.466V227.477H395.961V228.95H397.125V229.67H395.961V233.543H397.043V234.264ZM338.445 248.264V243.67H337.579V242.95H338.445V241.879C338.445 241.147 338.826 240.643 339.608 240.643H340.412V241.364H339.268V242.95H342.245V248.264H341.421V243.67H339.268V248.264H338.445ZM341.833 241.703C341.483 241.703 341.328 241.518 341.328 241.24V241.106C341.328 240.828 341.483 240.643 341.833 240.643C342.183 240.643 342.337 240.828 342.337 241.106V241.24C342.337 241.518 342.183 241.703 341.833 241.703ZM344.823 248.264H343.999V242.95H344.823V243.815H344.865C345.122 243.217 345.575 242.826 346.368 242.826C347.46 242.826 348.15 243.567 348.15 244.855V248.264H347.326V244.999C347.326 244.052 346.914 243.567 346.121 243.567C345.462 243.567 344.823 243.897 344.823 244.577V248.264ZM350.265 241.703C349.915 241.703 349.76 241.518 349.76 241.24V241.106C349.76 240.828 349.915 240.643 350.265 240.643C350.615 240.643 350.769 240.828 350.769 241.106V241.24C350.769 241.518 350.615 241.703 350.265 241.703ZM349.853 248.264V242.95H350.677V248.264H349.853ZM354.024 248.387C353.045 248.387 352.397 247.975 351.923 247.347L352.51 246.873C352.922 247.388 353.416 247.687 354.085 247.687C354.786 247.687 355.198 247.368 355.198 246.822C355.198 246.41 354.971 246.091 354.271 245.988L353.849 245.926C352.87 245.782 352.139 245.38 352.139 244.391C352.139 243.341 352.953 242.826 354.034 242.826C354.889 242.826 355.455 243.145 355.888 243.681L355.342 244.175C355.105 243.846 354.652 243.526 353.972 243.526C353.292 243.526 352.932 243.846 352.932 244.35C352.932 244.865 353.292 245.071 353.952 245.174L354.364 245.236C355.538 245.411 355.991 245.926 355.991 246.729C355.991 247.759 355.239 248.387 354.024 248.387ZM357.446 248.264V240.643H358.27V243.815H358.311C358.569 243.217 359.022 242.826 359.815 242.826C360.906 242.826 361.596 243.567 361.596 244.855V248.264H360.772V244.999C360.772 244.052 360.361 243.567 359.568 243.567C358.908 243.567 358.27 243.897 358.27 244.577V248.264H357.446ZM365.297 248.387C363.855 248.387 362.908 247.296 362.908 245.607C362.908 243.918 363.855 242.826 365.297 242.826C366.718 242.826 367.594 243.918 367.594 245.421V245.813H363.773V246.06C363.773 246.976 364.36 247.666 365.349 247.666C366.018 247.666 366.533 247.337 366.811 246.75L367.398 247.172C367.058 247.893 366.296 248.387 365.297 248.387ZM365.297 243.516C364.401 243.516 363.773 244.196 363.773 245.123V245.195H366.708V245.081C366.708 244.144 366.142 243.516 365.297 243.516ZM370.548 248.387C369.569 248.387 368.921 247.975 368.447 247.347L369.034 246.873C369.446 247.388 369.94 247.687 370.61 247.687C371.31 247.687 371.722 247.368 371.722 246.822C371.722 246.41 371.495 246.091 370.795 245.988L370.373 245.926C369.394 245.782 368.663 245.38 368.663 244.391C368.663 243.341 369.477 242.826 370.558 242.826C371.413 242.826 371.979 243.145 372.412 243.681L371.866 244.175C371.629 243.846 371.176 243.526 370.496 243.526C369.817 243.526 369.456 243.846 369.456 244.35C369.456 244.865 369.817 245.071 370.476 245.174L370.888 245.236C372.062 245.411 372.515 245.926 372.515 246.729C372.515 247.759 371.763 248.387 370.548 248.387Z" fill="var(--color-4)"/>
  <rect x="181.513" y="281.067" width="100.412" height="56.6425" rx="6.43665" stroke="var(--color-9)" stroke-width="0.85822"/>
  <path d="M191.871 296.591V299.361H190.511V292.173H193.755C195.063 292.173 195.877 293.038 195.877 294.397C195.877 295.386 195.424 296.138 194.538 296.437L196.011 299.361H194.497L193.158 296.591H191.871ZM191.871 295.448H193.621C194.147 295.448 194.466 295.159 194.466 294.634V294.161C194.466 293.635 194.147 293.357 193.621 293.357H191.871V295.448ZM200.481 299.361V298.465H200.429C200.244 299.001 199.812 299.485 198.926 299.485C197.824 299.485 197.206 298.723 197.206 297.384V293.985H198.524V297.25C198.524 297.992 198.802 298.393 199.431 298.393C199.956 298.393 200.481 298.115 200.481 297.538V293.985H201.799V299.361H200.481ZM205.351 299.361H204.64C203.745 299.361 203.322 298.888 203.322 298.064V291.74H204.64V298.311H205.351V299.361ZM208.523 299.485C206.937 299.485 205.989 298.383 205.989 296.663C205.989 294.964 206.906 293.862 208.481 293.862C210.16 293.862 210.932 295.098 210.932 296.57V297.003H207.359V297.137C207.359 297.909 207.802 298.434 208.667 298.434C209.316 298.434 209.707 298.125 210.036 297.703L210.747 298.496C210.304 299.104 209.521 299.485 208.523 299.485ZM208.502 294.851C207.812 294.851 207.359 295.365 207.359 296.107V296.189H209.563V296.097C209.563 295.355 209.182 294.851 208.502 294.851ZM212.968 299.475C212.411 299.475 212.144 299.155 212.144 298.723V298.537C212.144 298.095 212.411 297.775 212.968 297.775C213.534 297.775 213.791 298.095 213.791 298.537V298.723C213.791 299.155 213.534 299.475 212.968 299.475ZM212.968 295.571C212.411 295.571 212.144 295.252 212.144 294.82V294.634C212.144 294.191 212.411 293.872 212.968 293.872C213.534 293.872 213.791 294.191 213.791 294.634V294.82C213.791 295.252 213.534 295.571 212.968 295.571ZM218 299.361V292.173H219.154L221.214 296.045H221.265L223.335 292.173H224.447V299.361H223.603V293.306H223.551L222.944 294.511L221.224 297.641L219.504 294.511L218.896 293.306H218.845V299.361H218ZM229.551 299.361V298.496H229.509C229.303 299.001 228.902 299.485 228.016 299.485C226.924 299.485 226.224 298.743 226.224 297.456V294.047H227.048V297.312C227.048 298.259 227.47 298.743 228.263 298.743C228.912 298.743 229.551 298.424 229.551 297.724V294.047H230.374V299.361H229.551ZM233.725 299.485C232.747 299.485 232.098 299.073 231.624 298.445L232.211 297.971C232.623 298.486 233.118 298.785 233.787 298.785C234.487 298.785 234.899 298.465 234.899 297.92C234.899 297.508 234.673 297.188 233.972 297.085L233.55 297.024C232.572 296.879 231.841 296.478 231.841 295.489C231.841 294.439 232.654 293.924 233.736 293.924C234.59 293.924 235.157 294.243 235.589 294.778L235.043 295.273C234.807 294.943 234.353 294.624 233.674 294.624C232.994 294.624 232.634 294.943 232.634 295.448C232.634 295.963 232.994 296.169 233.653 296.272L234.065 296.334C235.239 296.509 235.692 297.024 235.692 297.827C235.692 298.857 234.94 299.485 233.725 299.485ZM239.281 299.361H238.251C237.685 299.361 237.376 299.001 237.376 298.486V294.768H236.5V294.047H236.995C237.345 294.047 237.458 293.924 237.458 293.563V292.575H238.2V294.047H239.363V294.768H238.2V298.64H239.281V299.361ZM244.718 299.485C243.739 299.485 243.091 299.073 242.617 298.445L243.204 297.971C243.616 298.486 244.11 298.785 244.78 298.785C245.48 298.785 245.892 298.465 245.892 297.92C245.892 297.508 245.665 297.188 244.965 297.085L244.543 297.024C243.564 296.879 242.833 296.478 242.833 295.489C242.833 294.439 243.647 293.924 244.728 293.924C245.583 293.924 246.149 294.243 246.582 294.778L246.036 295.273C245.799 294.943 245.346 294.624 244.666 294.624C243.987 294.624 243.626 294.943 243.626 295.448C243.626 295.963 243.987 296.169 244.646 296.272L245.058 296.334C246.232 296.509 246.685 297.024 246.685 297.827C246.685 298.857 245.933 299.485 244.718 299.485ZM250.138 299.485C248.696 299.485 247.749 298.393 247.749 296.704C247.749 295.015 248.696 293.924 250.138 293.924C251.559 293.924 252.435 295.015 252.435 296.519V296.91H248.614V297.157C248.614 298.074 249.201 298.764 250.19 298.764C250.859 298.764 251.374 298.434 251.652 297.847L252.239 298.27C251.899 298.991 251.137 299.485 250.138 299.485ZM250.138 294.614C249.242 294.614 248.614 295.293 248.614 296.22V296.292H251.549V296.179C251.549 295.242 250.983 294.614 250.138 294.614ZM255.399 299.361H254.668C254.101 299.361 253.792 299.001 253.792 298.507V291.74H254.616V298.64H255.399V299.361ZM258.596 299.485C257.154 299.485 256.207 298.393 256.207 296.704C256.207 295.015 257.154 293.924 258.596 293.924C260.017 293.924 260.893 295.015 260.893 296.519V296.91H257.072V297.157C257.072 298.074 257.659 298.764 258.648 298.764C259.317 298.764 259.832 298.434 260.11 297.847L260.697 298.27C260.357 298.991 259.595 299.485 258.596 299.485ZM258.596 294.614C257.7 294.614 257.072 295.293 257.072 296.22V296.292H260.007V296.179C260.007 295.242 259.441 294.614 258.596 294.614ZM264.228 299.485C262.735 299.485 261.859 298.404 261.859 296.704C261.859 295.005 262.735 293.924 264.228 293.924C265.278 293.924 265.906 294.439 266.215 295.17L265.525 295.52C265.33 294.974 264.877 294.655 264.228 294.655C263.249 294.655 262.745 295.324 262.745 296.251V297.157C262.745 298.084 263.249 298.754 264.228 298.754C264.897 298.754 265.381 298.434 265.67 297.827L266.267 298.228C265.927 298.991 265.237 299.485 264.228 299.485ZM269.634 299.361H268.604C268.038 299.361 267.729 299.001 267.729 298.486V294.768H266.853V294.047H267.348C267.698 294.047 267.811 293.924 267.811 293.563V292.575H268.553V294.047H269.716V294.768H268.553V298.64H269.634V299.361ZM192.55 312.485C191.129 312.485 190.151 311.393 190.151 309.704C190.151 308.015 191.129 306.924 192.55 306.924C193.972 306.924 194.95 308.015 194.95 309.704C194.95 311.393 193.972 312.485 192.55 312.485ZM192.55 311.754C193.436 311.754 194.064 311.208 194.064 310.085V309.323C194.064 308.201 193.436 307.655 192.55 307.655C191.665 307.655 191.036 308.201 191.036 309.323V310.085C191.036 311.208 191.665 311.754 192.55 311.754ZM197.129 312.361H196.305V307.047H197.129V307.912H197.17C197.428 307.315 197.881 306.924 198.674 306.924C199.765 306.924 200.455 307.665 200.455 308.952V312.361H199.631V309.097C199.631 308.149 199.219 307.665 198.426 307.665C197.767 307.665 197.129 307.995 197.129 308.674V312.361ZM204.156 312.485C202.714 312.485 201.767 311.393 201.767 309.704C201.767 308.015 202.714 306.924 204.156 306.924C205.577 306.924 206.453 308.015 206.453 309.519V309.91H202.632V310.157C202.632 311.074 203.219 311.764 204.208 311.764C204.877 311.764 205.392 311.434 205.67 310.847L206.257 311.27C205.917 311.991 205.155 312.485 204.156 312.485ZM204.156 307.614C203.26 307.614 202.632 308.293 202.632 309.22V309.292H205.567V309.179C205.567 308.242 205.001 307.614 204.156 307.614ZM211.841 312.485C210.862 312.485 210.213 312.073 209.74 311.445L210.327 310.971C210.739 311.486 211.233 311.785 211.902 311.785C212.603 311.785 213.015 311.465 213.015 310.92C213.015 310.508 212.788 310.188 212.088 310.085L211.666 310.024C210.687 309.879 209.956 309.478 209.956 308.489C209.956 307.439 210.77 306.924 211.851 306.924C212.706 306.924 213.272 307.243 213.705 307.778L213.159 308.273C212.922 307.943 212.469 307.624 211.789 307.624C211.109 307.624 210.749 307.943 210.749 308.448C210.749 308.963 211.109 309.169 211.769 309.272L212.18 309.334C213.355 309.509 213.808 310.024 213.808 310.827C213.808 311.857 213.056 312.485 211.841 312.485ZM218.538 312.361V311.496H218.497C218.291 312.001 217.889 312.485 217.003 312.485C215.912 312.485 215.211 311.743 215.211 310.456V307.047H216.035V310.312C216.035 311.259 216.458 311.743 217.251 311.743C217.899 311.743 218.538 311.424 218.538 310.724V307.047H219.362V312.361H218.538ZM221.116 314.421V307.047H221.94V307.912H221.981C222.259 307.243 222.805 306.924 223.536 306.924C224.865 306.924 225.699 308.005 225.699 309.704C225.699 311.404 224.865 312.485 223.536 312.485C222.805 312.485 222.301 312.155 221.981 311.496H221.94V314.421H221.116ZM223.31 311.743C224.237 311.743 224.813 311.105 224.813 310.157V309.251C224.813 308.304 224.237 307.665 223.31 307.665C222.558 307.665 221.94 308.098 221.94 308.685V310.662C221.94 311.352 222.558 311.743 223.31 311.743ZM227.09 314.421V307.047H227.914V307.912H227.955C228.233 307.243 228.779 306.924 229.51 306.924C230.839 306.924 231.673 308.005 231.673 309.704C231.673 311.404 230.839 312.485 229.51 312.485C228.779 312.485 228.275 312.155 227.955 311.496H227.914V314.421H227.09ZM229.284 311.743C230.211 311.743 230.787 311.105 230.787 310.157V309.251C230.787 308.304 230.211 307.665 229.284 307.665C228.532 307.665 227.914 308.098 227.914 308.685V310.662C227.914 311.352 228.532 311.743 229.284 311.743ZM235.073 312.485C233.651 312.485 232.673 311.393 232.673 309.704C232.673 308.015 233.651 306.924 235.073 306.924C236.494 306.924 237.472 308.015 237.472 309.704C237.472 311.393 236.494 312.485 235.073 312.485ZM235.073 311.754C235.958 311.754 236.586 311.208 236.586 310.085V309.323C236.586 308.201 235.958 307.655 235.073 307.655C234.187 307.655 233.559 308.201 233.559 309.323V310.085C233.559 311.208 234.187 311.754 235.073 311.754ZM239.651 312.361H238.827V307.047H239.651V308.026H239.702C239.888 307.521 240.372 307.047 241.237 307.047H241.556V307.871H241.072C240.187 307.871 239.651 308.252 239.651 308.757V312.361ZM244.853 312.361H243.823C243.256 312.361 242.948 312.001 242.948 311.486V307.768H242.072V307.047H242.566C242.917 307.047 243.03 306.924 243.03 306.563V305.575H243.771V307.047H244.935V307.768H243.771V311.64H244.853V312.361ZM250.897 312.361H249.867C249.301 312.361 248.992 312.001 248.992 311.486V307.768H248.117V307.047H248.611C248.961 307.047 249.074 306.924 249.074 306.563V305.575H249.816V307.047H250.98V307.768H249.816V311.64H250.897V312.361ZM254.291 310.662L255.579 307.047H256.392L254.013 313.597C253.777 314.236 253.56 314.421 252.778 314.421H252.355V313.7H253.19L253.591 312.567L251.604 307.047H252.427L253.704 310.662L253.952 311.527H254.003L254.291 310.662ZM257.443 314.421V307.047H258.267V307.912H258.308C258.586 307.243 259.132 306.924 259.863 306.924C261.192 306.924 262.026 308.005 262.026 309.704C262.026 311.404 261.192 312.485 259.863 312.485C259.132 312.485 258.627 312.155 258.308 311.496H258.267V314.421H257.443ZM259.637 311.743C260.564 311.743 261.14 311.105 261.14 310.157V309.251C261.14 308.304 260.564 307.665 259.637 307.665C258.885 307.665 258.267 308.098 258.267 308.685V310.662C258.267 311.352 258.885 311.743 259.637 311.743ZM265.415 312.485C263.973 312.485 263.026 311.393 263.026 309.704C263.026 308.015 263.973 306.924 265.415 306.924C266.836 306.924 267.712 308.015 267.712 309.519V309.91H263.891V310.157C263.891 311.074 264.478 311.764 265.467 311.764C266.136 311.764 266.651 311.434 266.929 310.847L267.516 311.27C267.176 311.991 266.414 312.485 265.415 312.485ZM265.415 307.614C264.519 307.614 263.891 308.293 263.891 309.22V309.292H266.826V309.179C266.826 308.242 266.26 307.614 265.415 307.614ZM269.393 311.156C269.826 311.156 270.022 311.404 270.022 311.764V311.908C270.022 312.464 269.671 313.226 269.084 313.731H268.394C268.806 313.299 269.054 312.938 269.167 312.454C268.889 312.392 268.765 312.186 268.765 311.908V311.764C268.765 311.404 268.961 311.156 269.393 311.156ZM191.366 326.361H190.542V321.047H191.366V321.912H191.407C191.665 321.315 192.118 320.924 192.911 320.924C194.002 320.924 194.692 321.665 194.692 322.952V326.361H193.869V323.097C193.869 322.149 193.457 321.665 192.664 321.665C192.005 321.665 191.366 321.995 191.366 322.674V326.361ZM198.393 326.485C196.952 326.485 196.004 325.393 196.004 323.704C196.004 322.015 196.952 320.924 198.393 320.924C199.815 320.924 200.69 322.015 200.69 323.519V323.91H196.869V324.157C196.869 325.074 197.456 325.764 198.445 325.764C199.114 325.764 199.629 325.434 199.907 324.847L200.494 325.27C200.154 325.991 199.392 326.485 198.393 326.485ZM198.393 321.614C197.497 321.614 196.869 322.293 196.869 323.22V323.292H199.804V323.179C199.804 322.242 199.238 321.614 198.393 321.614ZM204.099 326.361H203.141L201.277 321.047H202.101L203.028 323.684L203.605 325.496H203.656L204.233 323.684L205.18 321.047H205.973L204.099 326.361ZM208.954 326.485C207.512 326.485 206.564 325.393 206.564 323.704C206.564 322.015 207.512 320.924 208.954 320.924C210.375 320.924 211.25 322.015 211.25 323.519V323.91H207.429V324.157C207.429 325.074 208.016 325.764 209.005 325.764C209.674 325.764 210.189 325.434 210.467 324.847L211.054 325.27C210.715 325.991 209.953 326.485 208.954 326.485ZM208.954 321.614C208.058 321.614 207.429 322.293 207.429 323.22V323.292H210.364V323.179C210.364 322.242 209.798 321.614 208.954 321.614ZM213.432 326.361H212.608V321.047H213.432V322.026H213.483C213.669 321.521 214.153 321.047 215.018 321.047H215.337V321.871H214.853C213.967 321.871 213.432 322.252 213.432 322.757V326.361ZM218.823 326.361V318.74H219.647V321.912H219.688C219.966 321.243 220.512 320.924 221.243 320.924C222.572 320.924 223.406 322.005 223.406 323.704C223.406 325.404 222.572 326.485 221.243 326.485C220.512 326.485 220.008 326.155 219.688 325.496H219.647V326.361H218.823ZM221.017 325.743C221.944 325.743 222.52 325.105 222.52 324.157V323.251C222.52 322.304 221.944 321.665 221.017 321.665C220.265 321.665 219.647 322.098 219.647 322.685V324.662C219.647 325.352 220.265 325.743 221.017 325.743ZM226.805 326.485C225.384 326.485 224.406 325.393 224.406 323.704C224.406 322.015 225.384 320.924 226.805 320.924C228.227 320.924 229.205 322.015 229.205 323.704C229.205 325.393 228.227 326.485 226.805 326.485ZM226.805 325.754C227.691 325.754 228.319 325.208 228.319 324.085V323.323C228.319 322.201 227.691 321.655 226.805 321.655C225.92 321.655 225.292 322.201 225.292 323.323V324.085C225.292 325.208 225.92 325.754 226.805 325.754ZM232.764 326.361H231.734C231.168 326.361 230.859 326.001 230.859 325.486V321.768H229.983V321.047H230.478C230.828 321.047 230.941 320.924 230.941 320.563V319.575H231.683V321.047H232.846V321.768H231.683V325.64H232.764V326.361ZM234.171 326.361V318.74H234.994V321.912H235.036C235.293 321.315 235.746 320.924 236.539 320.924C237.631 320.924 238.321 321.665 238.321 322.952V326.361H237.497V323.097C237.497 322.149 237.085 321.665 236.292 321.665C235.633 321.665 234.994 321.995 234.994 322.674V326.361H234.171Z" fill="var(--color-4)"/>
  <path d="M181.771 69.7973H178.723V78.3657H177.569V69.7973H174.521V68.7811H181.771V69.7973ZM185.393 78.5305C183.47 78.5305 182.207 77.075 182.207 74.823C182.207 72.571 183.47 71.1155 185.393 71.1155C187.288 71.1155 188.455 72.571 188.455 74.5758V75.0976H183.36V75.4272C183.36 76.6493 184.143 77.5693 185.461 77.5693C186.354 77.5693 187.04 77.1299 187.411 76.3472L188.194 76.9102C187.741 77.8714 186.725 78.5305 185.393 78.5305ZM185.393 72.0355C184.198 72.0355 183.36 72.9418 183.36 74.1776V74.2737H187.274V74.1227C187.274 72.8731 186.519 72.0355 185.393 72.0355ZM193.284 78.5305C191.293 78.5305 190.126 77.0887 190.126 74.823C190.126 72.5573 191.293 71.1155 193.284 71.1155C194.685 71.1155 195.523 71.8021 195.935 72.777L195.015 73.2439C194.754 72.5161 194.15 72.0904 193.284 72.0904C191.98 72.0904 191.307 72.983 191.307 74.2188V75.4272C191.307 76.663 191.98 77.5556 193.284 77.5556C194.177 77.5556 194.822 77.1299 195.207 76.3197L196.003 76.8553C195.55 77.8714 194.63 78.5305 193.284 78.5305ZM197.937 78.3657V68.2044H199.036V72.4337H199.091C199.434 71.6373 200.038 71.1155 201.095 71.1155C202.551 71.1155 203.471 72.1041 203.471 73.8206V78.3657H202.372V74.0128C202.372 72.7495 201.823 72.1041 200.766 72.1041C199.887 72.1041 199.036 72.5436 199.036 73.4498V78.3657H197.937ZM207.223 78.3657H206.125V71.2803H207.223V72.4337H207.278C207.621 71.6373 208.226 71.1155 209.283 71.1155C210.738 71.1155 211.658 72.1041 211.658 73.8206V78.3657H210.56V74.0128C210.56 72.7495 210.011 72.1041 208.953 72.1041C208.074 72.1041 207.223 72.5436 207.223 73.4498V78.3657ZM214.861 69.6187C214.395 69.6187 214.189 69.3716 214.189 69.0008V68.8223C214.189 68.4516 214.395 68.2044 214.861 68.2044C215.328 68.2044 215.534 68.4516 215.534 68.8223V69.0008C215.534 69.3716 215.328 69.6187 214.861 69.6187ZM214.312 78.3657V71.2803H215.411V78.3657H214.312ZM220.765 78.5305C218.774 78.5305 217.606 77.0887 217.606 74.823C217.606 72.5573 218.774 71.1155 220.765 71.1155C222.165 71.1155 223.003 71.8021 223.415 72.777L222.495 73.2439C222.234 72.5161 221.63 72.0904 220.765 72.0904C219.46 72.0904 218.787 72.983 218.787 74.2188V75.4272C218.787 76.663 219.46 77.5556 220.765 77.5556C221.657 77.5556 222.303 77.1299 222.687 76.3197L223.483 76.8553C223.03 77.8714 222.11 78.5305 220.765 78.5305ZM231.184 78.3657H230.567C229.756 78.3657 229.427 77.8714 229.344 77.2123H229.276C228.974 78.0774 228.218 78.5305 227.23 78.5305C225.733 78.5305 224.854 77.7066 224.854 76.3884C224.854 75.0564 225.815 74.3149 227.875 74.3149H229.276V73.6146C229.276 72.6122 228.727 72.063 227.601 72.063C226.749 72.063 226.186 72.4749 225.802 73.1203L225.143 72.5024C225.527 71.7471 226.378 71.1155 227.655 71.1155C229.358 71.1155 230.374 72.008 230.374 73.5048V77.4045H231.184V78.3657ZM227.408 77.5968C228.493 77.5968 229.276 77.0338 229.276 76.306V75.1388H227.82C226.571 75.1388 226.008 75.5233 226.008 76.2099V76.4982C226.008 77.1985 226.557 77.5968 227.408 77.5968ZM235.278 78.3657H234.303C233.547 78.3657 233.135 77.8851 233.135 77.226V68.2044H234.234V77.4045H235.278V78.3657ZM178.187 95.5305C176.649 95.5305 175.564 94.8989 174.795 93.8553L175.647 93.1412C176.32 94.0338 177.116 94.5144 178.228 94.5144C179.602 94.5144 180.343 93.8003 180.343 92.7018C180.343 91.7955 179.835 91.3424 178.572 91.054L177.789 90.8755C176.045 90.4773 175.084 89.7083 175.084 88.2391C175.084 86.5364 176.375 85.6163 178.256 85.6163C179.698 85.6163 180.714 86.1656 181.428 87.1817L180.563 87.8134C180.041 87.0856 179.313 86.6325 178.201 86.6325C176.979 86.6325 176.224 87.168 176.224 88.1979C176.224 89.1041 176.814 89.5161 178.022 89.7907L178.805 89.9692C180.673 90.3949 181.483 91.2188 181.483 92.6469C181.483 94.4045 180.247 95.5305 178.187 95.5305ZM188.114 95.3657V94.2123H188.059C187.785 94.8851 187.249 95.5305 186.068 95.5305C184.613 95.5305 183.679 94.5418 183.679 92.8254V88.2803H184.778V92.6331C184.778 93.8964 185.341 94.5418 186.398 94.5418C187.263 94.5418 188.114 94.1162 188.114 93.1824V88.2803H189.213V95.3657H188.114ZM191.935 98.112V88.2803H193.034V89.4337H193.089C193.46 88.5412 194.187 88.1155 195.162 88.1155C196.934 88.1155 198.046 89.5573 198.046 91.823C198.046 94.0887 196.934 95.5305 195.162 95.5305C194.187 95.5305 193.514 95.0911 193.089 94.2123H193.034V98.112H191.935ZM194.86 94.5418C196.096 94.5418 196.865 93.6905 196.865 92.4272V91.2188C196.865 89.9555 196.096 89.1041 194.86 89.1041C193.858 89.1041 193.034 89.6809 193.034 90.4636V93.1C193.034 94.02 193.858 94.5418 194.86 94.5418ZM200.284 98.112V88.2803H201.382V89.4337H201.437C201.808 88.5412 202.536 88.1155 203.511 88.1155C205.282 88.1155 206.394 89.5573 206.394 91.823C206.394 94.0887 205.282 95.5305 203.511 95.5305C202.536 95.5305 201.863 95.0911 201.437 94.2123H201.382V98.112H200.284ZM203.209 94.5418C204.444 94.5418 205.213 93.6905 205.213 92.4272V91.2188C205.213 89.9555 204.444 89.1041 203.209 89.1041C202.206 89.1041 201.382 89.6809 201.382 90.4636V93.1C201.382 94.02 202.206 94.5418 203.209 94.5418ZM211.31 95.5305C209.415 95.5305 208.11 94.075 208.11 91.823C208.11 89.571 209.415 88.1155 211.31 88.1155C213.205 88.1155 214.509 89.571 214.509 91.823C214.509 94.075 213.205 95.5305 211.31 95.5305ZM211.31 94.5556C212.491 94.5556 213.328 93.8278 213.328 92.3311V91.3149C213.328 89.8182 212.491 89.0904 211.31 89.0904C210.129 89.0904 209.291 89.8182 209.291 91.3149V92.3311C209.291 93.8278 210.129 94.5556 211.31 94.5556ZM217.798 95.3657H216.699V88.2803H217.798V89.5847H217.866C218.113 88.9119 218.759 88.2803 219.912 88.2803H220.338V89.3788H219.693C218.512 89.3788 217.798 89.8868 217.798 90.5597V95.3657ZM225.116 95.3657H223.743C222.988 95.3657 222.576 94.8851 222.576 94.1985V89.2415H221.409V88.2803H222.068C222.535 88.2803 222.686 88.1155 222.686 87.6349V86.3166H223.675V88.2803H225.226V89.2415H223.675V94.4045H225.116V95.3657Z" fill="var(--color-4)"/>
  <circle cx="203.002" cy="28.7836" r="28.7836" fill="var(--color-7)"/>
  <g >
    <path d="M207.161 21.7165C205.792 21.7165 204.694 20.6185 204.694 19.2491C204.694 17.8797 205.792 16.7817 207.161 16.7817C208.531 16.7817 209.629 17.8797 209.629 19.2491C209.629 20.6185 208.531 21.7165 207.161 21.7165Z" fill="var(--color-4)"/>
    <path d="M199.784 21.716C198.439 21.716 197.341 20.6303 197.341 19.2733C197.341 17.9162 198.427 16.8306 199.784 16.8306C201.141 16.8306 202.227 17.9162 202.227 19.2733C202.227 20.6303 201.141 21.716 199.784 21.716Z" fill="var(--color-4)"/>
    <path d="M209.641 29.1555V24.2207H197.292V29.1555H209.641Z" fill="var(--color-4)"/>
    <path d="M209.629 36.5578V31.623H197.279V36.5578H209.629Z" fill="var(--color-4)"/>
    <path d="M209.629 43.9597V39.0249H197.279V43.9597H209.629Z" fill="var(--color-4)"/>
    <path d="M186.102 18.6439C186.102 17.5335 186.522 16.4232 187.373 15.572C188.224 14.7207 189.335 14.3013 190.445 14.3013C191.012 14.3013 191.568 14.4123 192.061 14.6097C192.592 14.8194 193.085 15.1402 193.517 15.572C194.306 16.3615 194.787 17.4472 194.787 18.6439V29.1302L187.373 21.7158C186.522 20.8645 186.102 19.7542 186.102 18.6439Z" fill="var(--color-4)"/>
    <path d="M219.424 21.716L212.084 29.0564V18.6687C212.084 17.4844 212.565 16.4111 213.342 15.6339C213.762 15.2144 214.255 14.8936 214.773 14.6839C215.267 14.4865 215.81 14.3755 216.377 14.3755C217.475 14.3755 218.573 14.7949 219.412 15.6339C220.251 16.4728 220.67 17.5708 220.67 18.6687C220.67 19.7667 220.251 20.8647 219.412 21.7036L219.424 21.716Z" fill="var(--color-4)"/>
  </g>
  <path d="M7.55234 164.202H4.50394V172.771H3.35049V164.202H0.302094V163.186H7.55234V164.202ZM9.89003 172.771H8.79151V165.685H9.89003V166.99H9.95869C10.2059 166.317 10.8512 165.685 12.0047 165.685H12.4304V166.784H11.785C10.6041 166.784 9.89003 167.292 9.89003 167.964V172.771ZM14.7659 164.024C14.299 164.024 14.0931 163.776 14.0931 163.406V163.227C14.0931 162.856 14.299 162.609 14.7659 162.609C15.2328 162.609 15.4388 162.856 15.4388 163.227V163.406C15.4388 163.776 15.2328 164.024 14.7659 164.024ZM14.2166 172.771V165.685H15.3152V172.771H14.2166ZM23.7999 172.771H23.1819C22.3718 172.771 22.0422 172.276 21.9598 171.617H21.8912C21.5891 172.482 20.8338 172.935 19.8452 172.935C18.3484 172.935 17.4696 172.111 17.4696 170.793C17.4696 169.461 18.4308 168.72 20.4906 168.72H21.8912V168.019C21.8912 167.017 21.3419 166.468 20.2159 166.468C19.3646 166.468 18.8016 166.88 18.4171 167.525L17.758 166.907C18.1425 166.152 18.9938 165.52 20.2709 165.52C21.9736 165.52 22.9897 166.413 22.9897 167.91V171.809H23.7999V172.771ZM20.0237 172.002C21.1085 172.002 21.8912 171.439 21.8912 170.711V169.544H20.4356C19.1861 169.544 18.6231 169.928 18.6231 170.615V170.903C18.6231 171.603 19.1723 172.002 20.0237 172.002ZM31.724 173.553C31.724 175.009 30.5706 175.682 28.2911 175.682C26.0804 175.682 25.1741 175.05 25.1741 173.938C25.1741 173.169 25.5998 172.757 26.3001 172.565V172.413C25.9019 172.221 25.6684 171.905 25.6684 171.425C25.6684 170.711 26.1765 170.367 26.8905 170.189V170.134C26.0529 169.736 25.5586 168.953 25.5586 167.964C25.5586 166.523 26.6159 165.52 28.2225 165.52C28.7306 165.52 29.1837 165.616 29.5682 165.795V165.671C29.5682 165.122 29.8016 164.724 30.3921 164.724H31.4494V165.685H30.1037V166.138C30.6118 166.578 30.9139 167.209 30.9139 167.964C30.9139 169.406 29.8565 170.409 28.2362 170.409C28.0028 170.409 27.7556 170.381 27.5496 170.34C27.0828 170.464 26.6159 170.697 26.6159 171.136C26.6159 171.562 27.0553 171.672 27.7007 171.672H29.2112C30.9688 171.672 31.724 172.386 31.724 173.553ZM30.6942 173.636C30.6942 173.073 30.3234 172.702 29.2249 172.702H26.8631C26.4099 172.908 26.204 173.224 26.204 173.663C26.204 174.281 26.6296 174.789 27.7419 174.789H28.758C29.9801 174.789 30.6942 174.405 30.6942 173.636ZM28.2362 169.53C29.17 169.53 29.7604 169.09 29.7604 168.157V167.772C29.7604 166.838 29.17 166.399 28.2362 166.399C27.3025 166.399 26.712 166.838 26.712 167.772V168.157C26.712 169.09 27.3025 169.53 28.2362 169.53ZM35.972 172.935C34.0496 172.935 32.7863 171.48 32.7863 169.228C32.7863 166.976 34.0496 165.52 35.972 165.52C37.867 165.52 39.0341 166.976 39.0341 168.981V169.502H33.9397V169.832C33.9397 171.054 34.7224 171.974 36.0407 171.974C36.9332 171.974 37.6198 171.535 37.9905 170.752L38.7732 171.315C38.3201 172.276 37.304 172.935 35.972 172.935ZM35.972 166.44C34.7774 166.44 33.9397 167.347 33.9397 168.582V168.679H37.8532V168.527C37.8532 167.278 37.098 166.44 35.972 166.44ZM52.1746 172.771H50.9662L50.005 169.942H46.1327L45.1715 172.771H44.0043L47.3548 163.186H48.8241L52.1746 172.771ZM49.7166 168.926L48.0963 164.257H48.0277L46.4073 168.926H49.7166ZM60.0087 173.553C60.0087 175.009 58.8553 175.682 56.5759 175.682C54.3651 175.682 53.4588 175.05 53.4588 173.938C53.4588 173.169 53.8845 172.757 54.5848 172.565V172.413C54.1866 172.221 53.9531 171.905 53.9531 171.425C53.9531 170.711 54.4612 170.367 55.1752 170.189V170.134C54.3376 169.736 53.8433 168.953 53.8433 167.964C53.8433 166.523 54.9006 165.52 56.5072 165.52C57.0153 165.52 57.4684 165.616 57.8529 165.795V165.671C57.8529 165.122 58.0863 164.724 58.6768 164.724H59.7341V165.685H58.3884V166.138C58.8965 166.578 59.1986 167.209 59.1986 167.964C59.1986 169.406 58.1412 170.409 56.5209 170.409C56.2875 170.409 56.0403 170.381 55.8344 170.34C55.3675 170.464 54.9006 170.697 54.9006 171.136C54.9006 171.562 55.34 171.672 55.9854 171.672H57.4959C59.2535 171.672 60.0087 172.386 60.0087 173.553ZM58.9789 173.636C58.9789 173.073 58.6081 172.702 57.5096 172.702H55.1478C54.6946 172.908 54.4887 173.224 54.4887 173.663C54.4887 174.281 54.9143 174.789 56.0266 174.789H57.0427C58.2648 174.789 58.9789 174.405 58.9789 173.636ZM56.5209 169.53C57.4547 169.53 58.0451 169.09 58.0451 168.157V167.772C58.0451 166.838 57.4547 166.399 56.5209 166.399C55.5872 166.399 54.9967 166.838 54.9967 167.772V168.157C54.9967 169.09 55.5872 169.53 56.5209 169.53ZM64.2567 172.935C62.3343 172.935 61.071 171.48 61.071 169.228C61.071 166.976 62.3343 165.52 64.2567 165.52C66.1517 165.52 67.3188 166.976 67.3188 168.981V169.502H62.2245V169.832C62.2245 171.054 63.0071 171.974 64.3254 171.974C65.2179 171.974 65.9045 171.535 66.2753 170.752L67.0579 171.315C66.6048 172.276 65.5887 172.935 64.2567 172.935ZM64.2567 166.44C63.0621 166.44 62.2245 167.347 62.2245 168.582V168.679H66.1379V168.527C66.1379 167.278 65.3827 166.44 64.2567 166.44ZM70.6107 172.771H69.5121V165.685H70.6107V166.838H70.6656C71.0089 166.042 71.6131 165.52 72.6704 165.52C74.1259 165.52 75.0459 166.509 75.0459 168.225V172.771H73.9474V168.418C73.9474 167.154 73.3982 166.509 72.3408 166.509C71.462 166.509 70.6107 166.948 70.6107 167.855V172.771ZM80.6382 172.771H79.2651C78.5098 172.771 78.0979 172.29 78.0979 171.603V166.646H76.9307V165.685H77.5898C78.0567 165.685 78.2077 165.52 78.2077 165.04V163.721H79.1964V165.685H80.7481V166.646H79.1964V171.809H80.6382V172.771Z" fill="var(--color-4)"/>
  <circle cx="40.7987" cy="123.187" r="28.7836" fill="var(--color-8)"/>
  <path d="M42.5691 139.71C40.8554 139.71 39.1324 139.044 37.823 137.729C35.2087 135.097 35.2087 130.807 37.823 128.174L49.2817 116.633V132.949C49.2817 134.814 48.5282 136.503 47.3153 137.729C46.6674 138.382 45.9277 138.872 45.1375 139.196C44.3518 139.525 43.4834 139.71 42.5691 139.71Z" fill="var(--color-5)"/>
  <path d="M30.7419 127.793C29.0281 127.793 27.3052 127.127 25.9957 125.813C24.6863 124.498 24.0293 122.772 24.0293 121.033C24.0293 120.149 24.2039 119.297 24.5163 118.515C24.8425 117.687 25.3387 116.919 25.9957 116.252C27.2087 115.031 28.8903 114.272 30.7419 114.272H46.9421L35.4834 125.813C34.174 127.131 32.4648 127.793 30.7373 127.793H30.7419Z" fill="var(--color-5)"/>
  <path d="M52.277 117.028C51.3764 116.121 51.3764 114.64 52.277 113.729C53.1775 112.817 54.6477 112.822 55.5528 113.729C56.458 114.636 56.4534 116.117 55.5528 117.028C54.6523 117.94 53.1821 117.935 52.277 117.028Z" fill="var(--color-5)"/>
  <path d="M46.5475 111.257C45.6469 110.35 45.6469 108.869 46.5475 107.958C47.448 107.051 48.9182 107.051 49.8233 107.958C50.7239 108.865 50.7239 110.345 49.8233 111.257C48.9228 112.164 47.4526 112.164 46.5475 111.257Z" fill="var(--color-5)"/>
</svg>