<?xml version="1.0" encoding="UTF-8"?>
<svg width="589" height="428" viewBox="0 0 589 428" fill="none" xmlns="http://www.w3.org/2000/svg">
  <path d="M116.328 36.1833H114.932V27.1782H116.328V28.8361H116.416C116.73 27.981 117.55 27.1782 119.016 27.1782H119.557V28.5743H118.737C117.236 28.5743 116.328 29.22 116.328 30.0752V36.1833Z" class="fill-white"/>
  <path d="M108.104 36.3926C105.696 36.3926 104.038 34.5427 104.038 31.6806C104.038 28.8185 105.696 26.9686 108.104 26.9686C110.513 26.9686 112.171 28.8185 112.171 31.6806C112.171 34.5427 110.513 36.3926 108.104 36.3926ZM108.104 35.1536C109.605 35.1536 110.67 34.2286 110.67 32.3264V31.0349C110.67 29.1327 109.605 28.2077 108.104 28.2077C106.603 28.2077 105.539 29.1327 105.539 31.0349V32.3264C105.539 34.2286 106.603 35.1536 108.104 35.1536Z" class="fill-white"/>
  <path d="M101.92 36.1833H100.175C99.2152 36.1833 98.6917 35.5725 98.6917 34.6999V28.3998H97.2083V27.1782H98.0459C98.6393 27.1782 98.8313 26.9687 98.8313 26.3579V24.6826H100.088V27.1782H102.06V28.3998H100.088V34.9617H101.92V36.1833Z" class="fill-white"/>
  <path d="M95.7277 36.1832H94.9423C93.9127 36.1832 93.4938 35.555 93.3891 34.7173H93.3019C92.9179 35.8167 91.9581 36.3926 90.7015 36.3926C88.7993 36.3926 87.6824 35.3455 87.6824 33.6702C87.6824 31.9773 88.904 31.0349 91.5218 31.0349H93.3019V30.1449C93.3019 28.8709 92.6038 28.1728 91.1727 28.1728C90.0907 28.1728 89.3752 28.6964 88.8866 29.5166L88.0489 28.7313C88.5375 27.7714 89.6195 26.9686 91.2425 26.9686C93.4066 26.9686 94.698 28.103 94.698 30.0053V34.9616H95.7277V36.1832ZM90.9284 35.2059C92.3071 35.2059 93.3019 34.4904 93.3019 33.5654V32.082H91.452C89.8639 32.082 89.1483 32.5707 89.1483 33.4433V33.8098C89.1483 34.6998 89.8464 35.2059 90.9284 35.2059Z" class="fill-white"/>
  <path d="M82.9887 36.1833H81.5925V27.1782H82.9887V28.8361H83.0759C83.3901 27.981 84.2103 27.1782 85.6763 27.1782H86.2173V28.5743H85.397C83.8962 28.5743 82.9887 29.22 82.9887 30.0752V36.1833Z" class="fill-white"/>
  <path d="M78.7434 36.1833H76.9982C76.0383 36.1833 75.5148 35.5725 75.5148 34.6999V28.3998H74.0314V27.1782H74.8691C75.4624 27.1782 75.6544 26.9687 75.6544 26.3579V24.6826H76.9109V27.1782H78.883V28.3998H76.9109V34.9617H78.7434V36.1833Z" class="fill-white"/>
  <path d="M68.8633 36.3926C67.2054 36.3926 66.1059 35.6946 65.3031 34.63L66.2979 33.8272C66.9959 34.6998 67.8336 35.2059 68.968 35.2059C70.1547 35.2059 70.8528 34.6649 70.8528 33.74C70.8528 33.0419 70.4689 32.5009 69.2821 32.3264L68.5666 32.2216C66.9087 31.9773 65.6696 31.2967 65.6696 29.6213C65.6696 27.8412 67.0483 26.9686 68.8807 26.9686C70.3292 26.9686 71.2891 27.5097 72.0221 28.4171L71.0971 29.2548C70.6957 28.6964 69.9278 28.1554 68.776 28.1554C67.6242 28.1554 67.0134 28.6964 67.0134 29.5515C67.0134 30.4241 67.6242 30.7731 68.7411 30.9477L69.4392 31.0524C71.4287 31.3491 72.1966 32.2217 72.1966 33.5829C72.1966 35.3281 70.9226 36.3926 68.8633 36.3926Z" class="fill-white"/>
  <path d="M59.5005 36.3926C57.0572 36.3926 55.4517 34.5427 55.4517 31.6806C55.4517 28.8185 57.0572 26.9686 59.5005 26.9686C61.9088 26.9686 63.3923 28.8185 63.3923 31.3665V32.0297H56.9176V32.4485C56.9176 34.0017 57.9124 35.171 59.5878 35.171C60.7221 35.171 61.5947 34.6126 62.0659 33.6178L63.0607 34.3333C62.4848 35.555 61.1933 36.3926 59.5005 36.3926ZM59.5005 28.1379C57.9822 28.1379 56.9176 29.2897 56.9176 30.8604V30.9826H61.8914V30.7906C61.8914 29.2025 60.9315 28.1379 59.5005 28.1379Z" class="fill-white"/>
  <path d="M45.7305 36.1834V23.2691H47.1266V28.6442H47.1964C47.6327 27.632 48.4006 26.9689 49.7444 26.9689C51.5943 26.9689 52.7636 28.2254 52.7636 30.4069V36.1834H51.3674V30.6512C51.3674 29.0456 50.6693 28.2254 49.3255 28.2254C48.2086 28.2254 47.1266 28.7838 47.1266 29.9357V36.1834H45.7305Z" class="fill-white"/>
  <path d="M39.839 36.3926C37.3085 36.3926 35.8251 34.5602 35.8251 31.6806C35.8251 28.8011 37.3085 26.9686 39.839 26.9686C41.6191 26.9686 42.6837 27.8412 43.2072 29.0803L42.0379 29.6737C41.7063 28.7487 40.9385 28.2077 39.839 28.2077C38.1811 28.2077 37.3259 29.3421 37.3259 30.9128V32.4485C37.3259 34.0192 38.1811 35.1536 39.839 35.1536C40.9734 35.1536 41.7936 34.6126 42.2823 33.5829L43.2945 34.2635C42.7186 35.555 41.5493 36.3926 39.839 36.3926Z" class="fill-white"/>
  <path d="M31.0962 36.1833H29.7001V27.1782H31.0962V28.8361H31.1835C31.4976 27.981 32.3178 27.1782 33.7838 27.1782H34.3248V28.5743H33.5046C32.0037 28.5743 31.0962 29.22 31.0962 30.0752V36.1833Z" class="fill-white"/>
  <path d="M21.5732 36.3925C18.4319 36.3925 16.4075 34.1762 16.4075 30.0924C16.4075 26.0087 18.4319 23.7923 21.5732 23.7923C24.7146 23.7923 26.739 26.0087 26.739 30.0924C26.739 34.1762 24.7146 36.3925 21.5732 36.3925ZM21.5732 35.0837C23.6849 35.0837 25.1683 33.513 25.1683 31.1046V29.0802C25.1683 26.6719 23.6849 25.1012 21.5732 25.1012C19.4615 25.1012 17.9781 26.6719 17.9781 29.0802V31.1046C17.9781 33.513 19.4615 35.0837 21.5732 35.0837Z" class="fill-white"/>
  <path d="M128.158 13.1236C126.5 13.1236 125.4 12.4256 124.598 11.361L125.592 10.5582C126.29 11.4308 127.128 11.9369 128.263 11.9369C129.449 11.9369 130.147 11.3959 130.147 10.4709C130.147 9.77289 129.763 9.23189 128.577 9.05737L127.861 8.95266C126.203 8.70833 124.964 8.02771 124.964 6.35233C124.964 4.57224 126.343 3.69965 128.175 3.69965C129.624 3.69965 130.584 4.24066 131.317 5.14815L130.392 5.98584C129.99 5.42738 129.222 4.88638 128.071 4.88638C126.919 4.88638 126.308 5.42738 126.308 6.28252C126.308 7.15512 126.919 7.50415 128.036 7.67867L128.734 7.78338C130.723 8.08007 131.491 8.95266 131.491 10.3139C131.491 12.0591 130.217 13.1236 128.158 13.1236Z" class="fill-white"/>
  <path d="M121.323 1.79742C120.729 1.79742 120.468 1.48329 120.468 1.01209V0.78521C120.468 0.31401 120.729 -0.00012207 121.323 -0.00012207C121.916 -0.00012207 122.178 0.31401 122.178 0.78521V1.01209C122.178 1.48329 121.916 1.79742 121.323 1.79742ZM120.625 12.9142V3.9091H122.021V12.9142H120.625Z" class="fill-white"/>
  <path d="M114.36 13.1236C112.702 13.1236 111.603 12.4256 110.8 11.361L111.795 10.5582C112.493 11.4308 113.33 11.9369 114.465 11.9369C115.651 11.9369 116.349 11.3959 116.349 10.4709C116.349 9.77289 115.966 9.23189 114.779 9.05737L114.063 8.95266C112.405 8.70833 111.166 8.02771 111.166 6.35233C111.166 4.57224 112.545 3.69965 114.377 3.69965C115.826 3.69965 116.786 4.24066 117.519 5.14815L116.594 5.98584C116.192 5.42738 115.425 4.88638 114.273 4.88638C113.121 4.88638 112.51 5.42738 112.51 6.28252C112.51 7.15512 113.121 7.50415 114.238 7.67867L114.936 7.78338C116.925 8.08007 117.693 8.95266 117.693 10.3139C117.693 12.0591 116.419 13.1236 114.36 13.1236Z" class="fill-white"/>
  <path d="M105.917 10.0346L108.098 3.909H109.477L105.446 15.0083C105.044 16.0904 104.678 16.4045 103.351 16.4045H102.636V15.1829H104.049L104.73 13.2632L101.362 3.909H102.758L104.922 10.0346L105.341 11.5005H105.428L105.917 10.0346Z" class="fill-white"/>
  <path d="M100.221 12.9142H98.9823C98.0225 12.9142 97.4989 12.3034 97.4989 11.4657V-0.00012207H98.8951V11.6926H100.221V12.9142Z" class="fill-white"/>
  <path d="M95.0407 12.9142H94.2553C93.2257 12.9142 92.8068 12.2859 92.7021 11.4483H92.6149C92.2309 12.5477 91.2711 13.1236 90.0145 13.1236C88.1123 13.1236 86.9954 12.0765 86.9954 10.4011C86.9954 8.70833 88.217 7.76593 90.8348 7.76593H92.6149V6.87589C92.6149 5.6019 91.9168 4.90383 90.4857 4.90383C89.4037 4.90383 88.6882 5.42738 88.1995 6.24762L87.3618 5.46229C87.8505 4.50244 88.9325 3.69965 90.5555 3.69965C92.7196 3.69965 94.011 4.83402 94.011 6.73627V11.6926H95.0407V12.9142ZM90.2414 11.9369C91.6201 11.9369 92.6149 11.2214 92.6149 10.2964V8.81304H90.765C89.1768 8.81304 88.4613 9.30169 88.4613 10.1743V10.5408C88.4613 11.4308 89.1594 11.9369 90.2414 11.9369Z" class="fill-white"/>
  <path d="M78.7225 12.9142H77.3263V3.90907H78.7225V5.37503H78.7923C79.2286 4.36282 79.9964 3.69965 81.3402 3.69965C83.1901 3.69965 84.3594 4.95618 84.3594 7.13767V12.9142H82.9633V7.38199C82.9633 5.77642 82.2652 4.95618 80.9214 4.95618C79.8045 4.95618 78.7225 5.51464 78.7225 6.66646V12.9142Z" class="fill-white"/>
  <path d="M74.9828 12.914H73.4471L72.2255 9.31891H67.304L66.0824 12.914H64.599L68.8572 0.732605H70.7246L74.9828 12.914ZM71.859 8.02747L69.7997 2.09385H69.7124L67.6531 8.02747H71.859Z" class="fill-white"/>
  <path d="M58.2426 12.9141H56.4975C55.5376 12.9141 55.014 12.3033 55.014 11.4307V5.13057H53.5306V3.90894H54.3683C54.9617 3.90894 55.1537 3.69952 55.1537 3.0887V1.41333H56.4102V3.90894H58.3823V5.13057H56.4102V11.6925H58.2426V12.9141Z" class="fill-white"/>
  <path d="M47.8501 13.1236C45.4068 13.1236 43.8013 11.2737 43.8013 8.41165C43.8013 5.54955 45.4068 3.69965 47.8501 3.69965C50.2585 3.69965 51.7419 5.54955 51.7419 8.09752V8.76069H45.2672V9.17953C45.2672 10.7327 46.262 11.902 47.9374 11.902C49.0717 11.902 49.9443 11.3435 50.4155 10.3488L51.4103 11.0643C50.8344 12.2859 49.5429 13.1236 47.8501 13.1236ZM47.8501 4.86892C46.3318 4.86892 45.2672 6.02075 45.2672 7.59141V7.71358H50.241V7.52161C50.241 5.93349 49.2812 4.86892 47.8501 4.86892Z" class="fill-white"/>
  <path d="M35.0856 12.9142V-0.00012207H36.4817V8.1848H36.5515L37.9302 6.64904L40.4782 3.9091H42.171L38.8377 7.46927L42.5026 12.9142H40.8098L37.8255 8.32442L36.4817 9.7031V12.9142H35.0856Z" class="fill-white"/>
  <path d="M29.6082 12.9141H28.212V3.909H29.6082V5.56692H29.6954C30.0096 4.71178 30.8298 3.909 32.2958 3.909H32.8368V5.30514H32.0165C30.5157 5.30514 29.6082 5.95086 29.6082 6.806V12.9141Z" class="fill-white"/>
  <path d="M25.7539 12.9142H24.9686C23.9389 12.9142 23.5201 12.2859 23.4154 11.4483H23.3281C22.9442 12.5477 21.9843 13.1236 20.7278 13.1236C18.8255 13.1236 17.7086 12.0765 17.7086 10.4011C17.7086 8.70833 18.9302 7.76593 21.548 7.76593H23.3281V6.87589C23.3281 5.6019 22.63 4.90383 21.199 4.90383C20.117 4.90383 19.4014 5.42738 18.9128 6.24762L18.0751 5.46229C18.5638 4.50244 19.6458 3.69965 21.2688 3.69965C23.4328 3.69965 24.7243 4.83402 24.7243 6.73627V11.6926H25.7539V12.9142ZM20.9547 11.9369C22.3334 11.9369 23.3281 11.2214 23.3281 10.2964V8.81304H21.4782C19.8901 8.81304 19.1746 9.30169 19.1746 10.1743V10.5408C19.1746 11.4308 19.8726 11.9369 20.9547 11.9369Z" class="fill-white"/>
  <path d="M3.93579 12.914V0.732605H5.8904L9.38077 7.29451H9.46803L12.9759 0.732605H14.8607V12.914H13.4296V2.6523H13.3423L12.3127 4.69418L9.39822 9.99953L6.48376 4.69418L5.4541 2.6523H5.36684V12.914H3.93579Z" class="fill-white"/>
  <path d="M239.347 385.22H237.95V376.215H239.347V377.873H239.434C239.748 377.018 240.568 376.215 242.034 376.215H242.575V377.611H241.755C240.254 377.611 239.347 378.257 239.347 379.112V385.22Z" class="fill-white"/>
  <path d="M231.293 385.43C228.85 385.43 227.244 383.58 227.244 380.718C227.244 377.856 228.85 376.006 231.293 376.006C233.701 376.006 235.185 377.856 235.185 380.404V381.067H228.71V381.486C228.71 383.039 229.705 384.208 231.38 384.208C232.514 384.208 233.387 383.65 233.858 382.655L234.853 383.37C234.277 384.592 232.986 385.43 231.293 385.43ZM231.293 377.175C229.775 377.175 228.71 378.327 228.71 379.898V380.02H233.684V379.828C233.684 378.24 232.724 377.175 231.293 377.175Z" class="fill-white"/>
  <path d="M217.523 385.22V372.306H218.919V377.681H218.989C219.425 376.669 220.193 376.006 221.537 376.006C223.387 376.006 224.556 377.262 224.556 379.444V385.22H223.16V379.688C223.16 378.083 222.462 377.262 221.118 377.262C220.001 377.262 218.919 377.821 218.919 378.973V385.22H217.523Z" class="fill-white"/>
  <path d="M211.631 385.43C209.1 385.43 207.617 383.597 207.617 380.718C207.617 377.838 209.1 376.006 211.631 376.006C213.411 376.006 214.476 376.878 214.999 378.117L213.83 378.711C213.498 377.786 212.73 377.245 211.631 377.245C209.973 377.245 209.118 378.379 209.118 379.95V381.486C209.118 383.056 209.973 384.191 211.631 384.191C212.765 384.191 213.586 383.65 214.074 382.62L215.086 383.301C214.511 384.592 213.341 385.43 211.631 385.43Z" class="fill-white"/>
  <path d="M202.888 385.22H201.492V376.215H202.888V377.873H202.975C203.289 377.018 204.11 376.215 205.576 376.215H206.117V377.611H205.296C203.795 377.611 202.888 378.257 202.888 379.112V385.22Z" class="fill-white"/>
  <path d="M199.034 385.22H198.249C197.219 385.22 196.8 384.592 196.696 383.754H196.608C196.224 384.854 195.264 385.43 194.008 385.43C192.106 385.43 190.989 384.383 190.989 382.707C190.989 381.014 192.21 380.072 194.828 380.072H196.608V379.182C196.608 377.908 195.91 377.21 194.479 377.21C193.397 377.21 192.682 377.733 192.193 378.554L191.355 377.768C191.844 376.809 192.926 376.006 194.549 376.006C196.713 376.006 198.004 377.14 198.004 379.042V383.999H199.034V385.22ZM194.235 384.243C195.614 384.243 196.608 383.527 196.608 382.603V381.119H194.758C193.17 381.119 192.455 381.608 192.455 382.48V382.847C192.455 383.737 193.153 384.243 194.235 384.243Z" class="fill-white"/>
  <path d="M185.046 385.43C182.603 385.43 180.998 383.58 180.998 380.718C180.998 377.856 182.603 376.006 185.046 376.006C187.455 376.006 188.938 377.856 188.938 380.404V381.067H182.464V381.486C182.464 383.039 183.458 384.208 185.134 384.208C186.268 384.208 187.141 383.65 187.612 382.655L188.607 383.37C188.031 384.592 186.739 385.43 185.046 385.43ZM185.046 377.175C183.528 377.175 182.464 378.327 182.464 379.898V380.02H187.437V379.828C187.437 378.24 186.477 377.175 185.046 377.175Z" class="fill-white"/>
  <path d="M175.396 385.43C173.738 385.43 172.639 384.732 171.836 383.667L172.831 382.864C173.529 383.737 174.366 384.243 175.501 384.243C176.688 384.243 177.386 383.702 177.386 382.777C177.386 382.079 177.002 381.538 175.815 381.363L175.099 381.259C173.442 381.014 172.202 380.334 172.202 378.658C172.202 376.878 173.581 376.006 175.414 376.006C176.862 376.006 177.822 376.547 178.555 377.454L177.63 378.292C177.229 377.733 176.461 377.192 175.309 377.192C174.157 377.192 173.546 377.733 173.546 378.589C173.546 379.461 174.157 379.81 175.274 379.985L175.972 380.089C177.962 380.386 178.729 381.259 178.729 382.62C178.729 384.365 177.455 385.43 175.396 385.43Z" class="fill-white"/>
  <path d="M166.033 385.43C163.59 385.43 161.985 383.58 161.985 380.718C161.985 377.856 163.59 376.006 166.033 376.006C168.442 376.006 169.925 377.856 169.925 380.404V381.067H163.451V381.486C163.451 383.039 164.445 384.208 166.121 384.208C167.255 384.208 168.128 383.65 168.599 382.655L169.594 383.37C169.018 384.592 167.726 385.43 166.033 385.43ZM166.033 377.175C164.515 377.175 163.451 378.327 163.451 379.898V380.02H168.424V379.828C168.424 378.24 167.465 377.175 166.033 377.175Z" class="fill-white"/>
  <path d="M152.881 379.985V385.22H151.415V373.039H156.266C158.395 373.039 159.669 374.278 159.669 376.494C159.669 378.274 158.814 379.479 157.226 379.845L160.018 385.22H158.36L155.725 379.985H152.881ZM152.881 378.728H156.266C157.418 378.728 158.099 378.1 158.099 376.983V376.076C158.099 374.959 157.418 374.33 156.266 374.33H152.881V378.728Z" class="fill-white"/>
  <path d="M324.798 277.601H323.053C322.093 277.601 321.57 276.99 321.57 276.117V269.817H320.086V268.595H320.924C321.517 268.595 321.709 268.386 321.709 267.775V266.1H322.966V268.595H324.938V269.817H322.966V276.379H324.798V277.601Z" class="fill-white"/>
  <path d="M314.918 277.81C313.26 277.81 312.16 277.112 311.358 276.047L312.352 275.244C313.05 276.117 313.888 276.623 315.023 276.623C316.209 276.623 316.907 276.082 316.907 275.157C316.907 274.459 316.523 273.918 315.337 273.744L314.621 273.639C312.963 273.395 311.724 272.714 311.724 271.039C311.724 269.258 313.103 268.386 314.935 268.386C316.384 268.386 317.344 268.927 318.077 269.834L317.152 270.672C316.75 270.114 315.982 269.573 314.831 269.573C313.679 269.573 313.068 270.114 313.068 270.969C313.068 271.841 313.679 272.19 314.796 272.365L315.494 272.47C317.483 272.766 318.251 273.639 318.251 275C318.251 276.745 316.977 277.81 314.918 277.81Z" class="fill-white"/>
  <path d="M306.475 274.721L308.657 268.595H310.035L306.004 279.695C305.603 280.777 305.236 281.091 303.91 281.091H303.194V279.869H304.608L305.288 277.95L301.92 268.595H303.316L305.48 274.721L305.899 276.187H305.986L306.475 274.721Z" class="fill-white"/>
  <path d="M300.779 277.601H299.54C298.58 277.601 298.057 276.99 298.057 276.152V264.686H299.453V276.379H300.779V277.601Z" class="fill-white"/>
  <path d="M295.599 277.6H294.814C293.784 277.6 293.365 276.972 293.26 276.135H293.173C292.789 277.234 291.829 277.81 290.573 277.81C288.671 277.81 287.554 276.763 287.554 275.087C287.554 273.395 288.775 272.452 291.393 272.452H293.173V271.562C293.173 270.288 292.475 269.59 291.044 269.59C289.962 269.59 289.247 270.114 288.758 270.934L287.92 270.149C288.409 269.189 289.491 268.386 291.114 268.386C293.278 268.386 294.569 269.52 294.569 271.423V276.379H295.599V277.6ZM290.8 276.623C292.178 276.623 293.173 275.908 293.173 274.983V273.499H291.323C289.735 273.499 289.02 273.988 289.02 274.861V275.227C289.02 276.117 289.718 276.623 290.8 276.623Z" class="fill-white"/>
  <path d="M279.281 277.6H277.885V268.595H279.281V270.061H279.351C279.787 269.049 280.555 268.386 281.899 268.386C283.749 268.386 284.918 269.642 284.918 271.824V277.6H283.522V272.068C283.522 270.463 282.824 269.642 281.48 269.642C280.363 269.642 279.281 270.201 279.281 271.353V277.6Z" class="fill-white"/>
  <path d="M275.541 277.6H274.005L272.784 274.005H267.862L266.641 277.6H265.157L269.415 265.419H271.283L275.541 277.6ZM272.417 272.714L270.358 266.78H270.271L268.211 272.714H272.417Z" class="fill-white"/>
  <path d="M135.029 116.787C135.029 154.074 104.802 184.302 67.5146 184.302C30.2273 184.302 0 154.074 0 116.787C0 79.4998 30.2273 49.2725 67.5146 49.2725C104.802 49.2725 135.029 79.4998 135.029 116.787Z" class="fill-layer-01"/>
  <path d="M73.9122 153.873C69.8924 153.873 65.8511 152.31 62.7796 149.228C56.6475 143.052 56.6475 132.99 62.7796 126.815L89.6574 99.7453V138.016C89.6574 142.39 87.89 146.351 85.0448 149.228C83.5253 150.758 81.7902 151.909 79.9366 152.668C78.0937 153.439 76.0569 153.873 73.9122 153.873Z" class="fill-white"/>
  <path d="M46.1723 125.924C42.1525 125.924 38.1111 124.361 35.0397 121.279C31.9682 118.196 30.4271 114.148 30.4271 110.067C30.4271 107.994 30.8366 105.997 31.5695 104.162C32.3346 102.219 33.4986 100.418 35.0397 98.8548C37.8848 95.9894 41.8292 94.2093 46.1723 94.2093H84.1719L57.2941 121.279C54.2227 124.372 50.2137 125.924 46.1615 125.924H46.1723Z" class="fill-white"/>
  <path d="M96.6837 100.671C94.5714 98.5436 94.5714 95.0703 96.6837 92.9321C98.796 90.7939 102.245 90.8048 104.368 92.9321C106.491 95.0595 106.48 98.5327 104.368 100.671C102.255 102.809 98.8068 102.798 96.6837 100.671Z" class="fill-white"/>
  <path d="M83.244 87.1344C81.1317 85.007 81.1317 81.5338 83.244 79.3956C85.3563 77.2683 88.8049 77.2683 90.928 79.3956C93.0403 81.5229 93.0403 84.9962 90.928 87.1344C88.8157 89.2617 85.3671 89.2617 83.244 87.1344Z" class="fill-white"/>
  <path d="M231.362 327.11C231.362 346.422 215.707 362.077 196.396 362.077C177.084 362.077 161.429 346.422 161.429 327.11C161.429 307.799 177.084 292.144 196.396 292.144C215.707 292.144 231.362 307.799 231.362 327.11Z" class="fill-layer-01"/>
  <path d="M199.709 346.318C197.628 346.318 195.534 345.508 193.944 343.912C190.768 340.713 190.768 335.503 193.944 332.304L207.864 318.285V338.105C207.864 340.37 206.949 342.422 205.475 343.912C204.688 344.704 203.79 345.3 202.83 345.694C201.875 346.093 200.82 346.318 199.709 346.318Z" class="fill-white"/>
  <path d="M185.342 331.841C183.26 331.841 181.167 331.032 179.577 329.435C177.986 327.839 177.188 325.742 177.188 323.628C177.188 322.555 177.4 321.52 177.779 320.571C178.176 319.564 178.778 318.631 179.577 317.822C181.05 316.338 183.093 315.416 185.342 315.416H205.023L191.103 329.435C189.512 331.037 187.435 331.841 185.337 331.841H185.342Z" class="fill-white"/>
  <path d="M211.503 318.764C210.409 317.662 210.409 315.863 211.503 314.756C212.597 313.648 214.383 313.654 215.483 314.756C216.582 315.858 216.577 317.656 215.483 318.764C214.389 319.871 212.603 319.865 211.503 318.764Z" class="fill-white"/>
  <path d="M204.543 311.753C203.449 310.651 203.449 308.852 204.543 307.745C205.637 306.643 207.423 306.643 208.523 307.745C209.617 308.846 209.617 310.645 208.523 311.753C207.429 312.854 205.642 312.854 204.543 311.753Z" class="fill-white"/>
  <path d="M330.256 219.491C330.256 238.802 314.601 254.457 295.29 254.457C275.978 254.457 260.323 238.802 260.323 219.491C260.323 200.179 275.978 184.524 295.29 184.524C314.601 184.524 330.256 200.179 330.256 219.491Z" class="fill-layer-01"/>
  <path d="M298.603 238.698C296.522 238.698 294.428 237.888 292.838 236.292C289.662 233.094 289.662 227.883 292.838 224.684L306.758 210.665V230.485C306.758 232.751 305.843 234.802 304.369 236.292C303.582 237.085 302.684 237.681 301.724 238.074C300.769 238.473 299.714 238.698 298.603 238.698Z" class="fill-white"/>
  <path d="M284.236 224.221C282.155 224.221 280.061 223.412 278.471 221.815C276.88 220.219 276.082 218.122 276.082 216.009C276.082 214.935 276.294 213.901 276.673 212.951C277.07 211.945 277.673 211.011 278.471 210.202C279.944 208.718 281.987 207.796 284.236 207.796H303.917L289.997 221.815C288.406 223.417 286.33 224.221 284.231 224.221H284.236Z" class="fill-white"/>
  <path d="M310.397 211.144C309.303 210.042 309.303 208.244 310.397 207.136C311.491 206.029 313.277 206.034 314.377 207.136C315.476 208.238 315.471 210.037 314.377 211.144C313.283 212.251 311.496 212.246 310.397 211.144Z" class="fill-white"/>
  <path d="M303.437 204.133C302.343 203.031 302.343 201.232 303.437 200.125C304.531 199.023 306.317 199.023 307.416 200.125C308.51 201.227 308.51 203.026 307.416 204.133C306.322 205.235 304.536 205.235 303.437 204.133Z" class="fill-white"/>
  <path d="M428.935 363.406H427.539V354.4H428.935V356.058H429.022C429.336 355.203 430.157 354.4 431.623 354.4H432.164V355.797H431.343C429.842 355.797 428.935 356.442 428.935 357.297V363.406Z" class="fill-white"/>
  <path d="M420.881 363.615C418.437 363.615 416.832 361.765 416.832 358.903C416.832 356.041 418.437 354.191 420.881 354.191C423.289 354.191 424.772 356.041 424.772 358.589V359.252H418.298V359.671C418.298 361.224 419.293 362.393 420.968 362.393C422.102 362.393 422.975 361.835 423.446 360.84L424.441 361.556C423.865 362.777 422.573 363.615 420.881 363.615ZM420.881 355.36C419.362 355.36 418.298 356.512 418.298 358.083V358.205H423.272V358.013C423.272 356.425 422.312 355.36 420.881 355.36Z" class="fill-white"/>
  <path d="M414.714 363.405H412.969C412.009 363.405 411.486 362.795 411.486 361.922V355.622H410.002V354.4H410.84C411.433 354.4 411.625 354.191 411.625 353.58V351.905H412.882V354.4H414.854V355.622H412.882V362.184H414.714V363.405Z" class="fill-white"/>
  <path d="M406.849 352.289C406.256 352.289 405.994 351.975 405.994 351.503V351.277C405.994 350.805 406.256 350.491 406.849 350.491C407.443 350.491 407.704 350.805 407.704 351.277V351.503C407.704 351.975 407.443 352.289 406.849 352.289ZM406.151 363.406V354.4H407.547V363.406H406.151Z" class="fill-white"/>
  <path d="M400.674 363.406H399.278V354.4H400.674V356.058H400.761C401.075 355.203 401.896 354.4 403.362 354.4H403.903V355.797H403.082C401.581 355.797 400.674 356.442 400.674 357.297V363.406Z" class="fill-white"/>
  <path d="M386.895 363.405H385.272L382.305 351.224H383.859L385.168 357.088L386.18 361.643H386.215L387.349 357.088L388.885 351.224H390.56L392.044 357.088L393.178 361.625H393.23L394.277 357.088L395.656 351.224H397.157L394.033 363.405H392.41L390.822 357.332L389.705 352.865H389.67L388.518 357.332L386.895 363.405Z" class="fill-white"/>
  <path d="M442.239 305.295C442.239 324.607 426.584 340.262 407.273 340.262C387.961 340.262 372.306 324.607 372.306 305.295C372.306 285.984 387.961 270.329 407.273 270.329C426.584 270.329 442.239 285.984 442.239 305.295Z" class="fill-layer-01"/>
  <path d="M410.586 324.503C408.504 324.503 406.411 323.694 404.82 322.097C401.645 318.899 401.645 313.688 404.82 310.489L418.741 296.47V316.29C418.741 318.556 417.825 320.607 416.352 322.097C415.565 322.89 414.666 323.486 413.706 323.879C412.752 324.278 411.697 324.503 410.586 324.503Z" class="fill-white"/>
  <path d="M396.219 310.026C394.137 310.026 392.044 309.217 390.453 307.62C388.863 306.024 388.064 303.927 388.064 301.814C388.064 300.74 388.277 299.706 388.656 298.756C389.052 297.75 389.655 296.816 390.453 296.007C391.927 294.523 393.97 293.601 396.219 293.601H415.9L401.979 307.62C400.388 309.222 398.312 310.026 396.214 310.026H396.219Z" class="fill-white"/>
  <path d="M422.38 296.949C421.286 295.847 421.286 294.048 422.38 292.941C423.474 291.834 425.26 291.839 426.359 292.941C427.459 294.043 427.453 295.842 426.359 296.949C425.265 298.056 423.479 298.051 422.38 296.949Z" class="fill-white"/>
  <path d="M415.419 289.938C414.325 288.836 414.325 287.037 415.419 285.93C416.513 284.828 418.299 284.828 419.399 285.93C420.493 287.032 420.493 288.83 419.399 289.938C418.305 291.04 416.519 291.04 415.419 289.938Z" class="fill-white"/>
  <path d="M71.2616 247.787C71.2616 249.795 69.6338 251.423 67.6258 251.423C65.6178 251.423 63.99 249.795 63.99 247.787C63.99 245.779 65.6178 244.151 67.6258 244.151C69.6338 244.151 71.2616 245.779 71.2616 247.787Z" class="fill-layer-03"/>
  <path d="M71.2616 311.777C71.2616 313.785 69.6338 315.413 67.6258 315.413C65.6178 315.413 63.99 313.785 63.99 311.777C63.99 309.769 65.6178 308.141 67.6258 308.141C69.6338 308.141 71.2616 309.769 71.2616 311.777Z" class="fill-layer-03"/>
  <path d="M71.2617 199.794C71.2617 201.802 69.6339 203.43 67.6259 203.43C65.6179 203.43 63.9901 201.802 63.9901 199.794C63.9901 197.786 65.6179 196.159 67.6259 196.159C69.6339 196.159 71.2617 197.786 71.2617 199.794Z" class="fill-layer-03"/>
  <path d="M71.2616 215.792C71.2616 217.8 69.6338 219.428 67.6258 219.428C65.6178 219.428 63.99 217.8 63.99 215.792C63.99 213.784 65.6178 212.156 67.6258 212.156C69.6338 212.156 71.2616 213.784 71.2616 215.792Z" class="fill-layer-03"/>
  <path d="M71.2616 231.789C71.2616 233.797 69.6338 235.425 67.6258 235.425C65.6178 235.425 63.99 233.797 63.99 231.789C63.99 229.781 65.6178 228.154 67.6258 228.154C69.6338 228.154 71.2616 229.781 71.2616 231.789Z" class="fill-layer-03"/>
  <path d="M71.2616 295.78C71.2616 297.788 69.6338 299.415 67.6258 299.415C65.6178 299.415 63.99 297.788 63.99 295.78C63.99 293.772 65.6178 292.144 67.6258 292.144C69.6338 292.144 71.2616 293.772 71.2616 295.78Z" class="fill-layer-03"/>
  <path d="M71.2616 263.784C71.2616 265.792 69.6338 267.42 67.6258 267.42C65.6178 267.42 63.99 265.792 63.99 263.784C63.99 261.776 65.6178 260.149 67.6258 260.149C69.6338 260.149 71.2616 261.776 71.2616 263.784Z" class="fill-layer-03"/>
  <path d="M71.2616 327.775C71.2616 329.783 69.6338 331.41 67.6258 331.41C65.6178 331.41 63.99 329.783 63.99 327.775C63.99 325.767 65.6178 324.139 67.6258 324.139C69.6338 324.139 71.2616 325.767 71.2616 327.775Z" class="fill-layer-03"/>
  <path d="M67.626 283.418C65.618 283.418 63.9902 281.79 63.9902 279.782C63.9902 277.774 65.618 276.146 67.626 276.146C69.634 276.146 71.2618 277.774 71.2618 279.782C71.2618 281.79 69.634 283.418 67.626 283.418Z" class="fill-layer-03"/>
  <path d="M200.696 266.693C200.696 268.701 199.068 270.329 197.06 270.329C195.052 270.329 193.425 268.701 193.425 266.693C193.425 264.685 195.052 263.057 197.06 263.057C199.068 263.057 200.696 264.685 200.696 266.693Z" class="fill-layer-03"/>
  <path d="M200.696 250.696C200.696 252.704 199.068 254.331 197.06 254.331C195.052 254.331 193.425 252.704 193.425 250.696C193.425 248.688 195.052 247.06 197.06 247.06C199.068 247.06 200.696 248.688 200.696 250.696Z" class="fill-layer-03"/>
  <path d="M200.696 218.701C200.696 220.709 199.068 222.336 197.06 222.336C195.052 222.336 193.425 220.709 193.425 218.701C193.425 216.693 195.052 215.065 197.06 215.065C199.068 215.065 200.696 216.693 200.696 218.701Z" class="fill-layer-03"/>
  <path d="M200.696 282.691C200.696 284.699 199.068 286.326 197.06 286.326C195.052 286.326 193.425 284.699 193.425 282.691C193.425 280.683 195.052 279.055 197.06 279.055C199.068 279.055 200.696 280.683 200.696 282.691Z" class="fill-layer-03"/>
  <path d="M197.06 238.334C195.052 238.334 193.425 236.706 193.425 234.698C193.425 232.69 195.052 231.062 197.06 231.062C199.068 231.062 200.696 232.69 200.696 234.698C200.696 236.706 199.068 238.334 197.06 238.334Z" class="fill-layer-03"/>
  <path d="M133.07 324.139C135.078 324.139 136.706 325.767 136.706 327.775C136.706 329.783 135.078 331.41 133.07 331.41C131.062 331.41 129.435 329.783 129.435 327.775C129.435 325.767 131.062 324.139 133.07 324.139Z" class="fill-layer-03"/>
  <path d="M85.0778 324.139C87.0858 324.139 88.7136 325.767 88.7136 327.775C88.7136 329.783 87.0858 331.41 85.0778 331.41C83.0698 331.41 81.442 329.783 81.442 327.775C81.442 325.767 83.0698 324.139 85.0778 324.139Z" class="fill-layer-03"/>
  <path d="M101.075 324.139C103.083 324.139 104.711 325.767 104.711 327.775C104.711 329.783 103.083 331.41 101.075 331.41C99.0673 331.41 97.4395 329.783 97.4395 327.775C97.4395 325.767 99.0673 324.139 101.075 324.139Z" class="fill-layer-03"/>
  <path d="M117.073 324.139C119.081 324.139 120.708 325.767 120.708 327.775C120.708 329.783 119.081 331.41 117.073 331.41C115.065 331.41 113.437 329.783 113.437 327.775C113.437 325.767 115.065 324.139 117.073 324.139Z" class="fill-layer-03"/>
  <path d="M143.978 323.854V333.15C143.978 334.292 145.234 334.988 146.203 334.383L153.639 329.735C154.55 329.166 154.55 327.838 153.639 327.269L146.203 322.621C145.234 322.016 143.978 322.712 143.978 323.854Z" class="fill-layer-03"/>
  <path d="M471.927 303.778C469.919 303.778 468.291 305.406 468.291 307.414C468.291 309.422 469.919 311.05 471.927 311.05C473.935 311.05 475.563 309.422 475.563 307.414C475.563 305.406 473.935 303.778 471.927 303.778Z" class="fill-layer-03"/>
  <path d="M487.925 303.778C485.917 303.778 484.289 305.406 484.289 307.414C484.289 309.422 485.917 311.05 487.925 311.05C489.932 311.05 491.56 309.422 491.56 307.414C491.56 305.406 489.932 303.778 487.925 303.778Z" class="fill-layer-03"/>
  <path d="M519.92 303.778C517.912 303.778 516.284 305.406 516.284 307.414C516.284 309.422 517.912 311.05 519.92 311.05C521.928 311.05 523.555 309.422 523.555 307.414C523.555 305.406 521.928 303.778 519.92 303.778Z" class="fill-layer-03"/>
  <path d="M455.93 303.778C453.922 303.778 452.294 305.406 452.294 307.414C452.294 309.422 453.922 311.05 455.93 311.05C457.938 311.05 459.566 309.422 459.566 307.414C459.566 305.406 457.938 303.778 455.93 303.778Z" class="fill-layer-03"/>
  <path d="M500.287 307.414C500.287 309.422 501.914 311.05 503.922 311.05C505.93 311.05 507.558 309.422 507.558 307.414C507.558 305.406 505.93 303.778 503.922 303.778C501.914 303.778 500.287 305.406 500.287 307.414Z" class="fill-layer-03"/>
  <path d="M523.556 289.962C523.556 287.954 521.928 286.326 519.92 286.326C517.912 286.326 516.284 287.954 516.284 289.962C516.284 291.97 517.912 293.598 519.92 293.598C521.928 293.598 523.556 291.97 523.556 289.962Z" class="fill-layer-03"/>
  <path d="M525.294 279.055H515.999C514.857 279.055 514.16 277.798 514.766 276.83L519.413 269.393C519.983 268.482 521.31 268.482 521.88 269.393L526.528 276.83C527.133 277.798 526.437 279.055 525.294 279.055Z" class="fill-layer-03"/>
  <path d="M214.512 215.065C216.52 215.065 218.148 216.693 218.148 218.701C218.148 220.709 216.52 222.336 214.512 222.336C212.504 222.336 210.876 220.709 210.876 218.701C210.876 216.693 212.504 215.065 214.512 215.065Z" class="fill-layer-03"/>
  <path d="M230.51 215.065C232.518 215.065 234.146 216.693 234.146 218.701C234.146 220.708 232.518 222.336 230.51 222.336C228.502 222.336 226.874 220.708 226.874 218.701C226.874 216.693 228.502 215.065 230.51 215.065Z" class="fill-layer-03"/>
  <path d="M231.237 393.946H158.521C152.899 393.946 148.341 398.504 148.341 404.126V404.126C148.341 409.749 152.899 414.307 158.521 414.307H231.237C236.86 414.307 241.418 409.749 241.418 404.126V404.126C241.418 398.504 236.86 393.946 231.237 393.946Z" fill="#A7F0BA"/>
  <path d="M230.059 408.918V400.309H230.989V403.892H231.036C231.327 403.217 231.839 402.775 232.735 402.775C233.968 402.775 234.747 403.613 234.747 405.067V408.918H233.817V405.23C233.817 404.16 233.351 403.613 232.455 403.613C231.711 403.613 230.989 403.985 230.989 404.753V408.918H230.059Z" fill="black"/>
  <path d="M225.976 409.058C224.289 409.058 223.3 407.836 223.3 405.916C223.3 403.997 224.289 402.775 225.976 402.775C227.163 402.775 227.872 403.357 228.221 404.183L227.442 404.579C227.221 403.962 226.709 403.601 225.976 403.601C224.871 403.601 224.3 404.357 224.3 405.405V406.428C224.3 407.476 224.871 408.232 225.976 408.232C226.732 408.232 227.279 407.871 227.605 407.185L228.28 407.638C227.896 408.499 227.116 409.058 225.976 409.058Z" fill="black"/>
  <path d="M219.992 408.918H219.061V402.915H219.992V404.02H220.05C220.259 403.45 220.806 402.915 221.783 402.915H222.144V403.846H221.597C220.597 403.846 219.992 404.276 219.992 404.846V408.918Z" fill="black"/>
  <path d="M217.267 408.918H216.744C216.057 408.918 215.778 408.499 215.708 407.941H215.65C215.394 408.674 214.754 409.058 213.917 409.058C212.648 409.058 211.904 408.36 211.904 407.243C211.904 406.114 212.718 405.486 214.463 405.486H215.65V404.893C215.65 404.043 215.185 403.578 214.231 403.578C213.509 403.578 213.032 403.927 212.707 404.474L212.148 403.95C212.474 403.31 213.195 402.775 214.277 402.775C215.72 402.775 216.581 403.531 216.581 404.8V408.104H217.267V408.918ZM214.068 408.267C214.987 408.267 215.65 407.79 215.65 407.173V406.184H214.417C213.358 406.184 212.881 406.51 212.881 407.092V407.336C212.881 407.929 213.346 408.267 214.068 408.267Z" fill="black"/>
  <path d="M207.787 409.058C206.158 409.058 205.088 407.825 205.088 405.916C205.088 404.008 206.158 402.775 207.787 402.775C209.393 402.775 210.382 404.008 210.382 405.707V406.149H206.065V406.428C206.065 407.464 206.728 408.243 207.845 408.243C208.602 408.243 209.183 407.871 209.497 407.208L210.161 407.685C209.777 408.499 208.916 409.058 207.787 409.058ZM207.787 403.555C206.775 403.555 206.065 404.323 206.065 405.37V405.451H209.381V405.323C209.381 404.264 208.741 403.555 207.787 403.555Z" fill="black"/>
  <path d="M201.199 409.058C200.093 409.058 199.36 408.592 198.825 407.883L199.488 407.348C199.954 407.929 200.512 408.267 201.268 408.267C202.06 408.267 202.525 407.906 202.525 407.289C202.525 406.824 202.269 406.463 201.478 406.347L201.001 406.277C199.896 406.114 199.07 405.661 199.07 404.544C199.07 403.357 199.989 402.775 201.21 402.775C202.176 402.775 202.816 403.136 203.305 403.741L202.688 404.299C202.42 403.927 201.908 403.566 201.14 403.566C200.373 403.566 199.965 403.927 199.965 404.497C199.965 405.079 200.373 405.311 201.117 405.428L201.583 405.498C202.909 405.695 203.421 406.277 203.421 407.185C203.421 408.348 202.572 409.058 201.199 409.058Z" fill="black"/>
  <path d="M188.966 408.918V400.309H189.897V403.892H189.943C190.257 403.136 190.874 402.775 191.7 402.775C193.201 402.775 194.143 403.997 194.143 405.917C194.143 407.836 193.201 409.058 191.7 409.058C190.874 409.058 190.304 408.686 189.943 407.941H189.897V408.918H188.966ZM191.444 408.22C192.491 408.22 193.143 407.499 193.143 406.429V405.405C193.143 404.334 192.491 403.613 191.444 403.613C190.595 403.613 189.897 404.102 189.897 404.765V406.999C189.897 407.778 190.595 408.22 191.444 408.22Z" fill="black"/>
  <path d="M184.372 409.058C182.743 409.058 181.673 407.825 181.673 405.916C181.673 404.008 182.743 402.775 184.372 402.775C185.978 402.775 186.967 404.008 186.967 405.707V406.149H182.65V406.428C182.65 407.464 183.313 408.243 184.43 408.243C185.186 408.243 185.768 407.871 186.082 407.208L186.746 407.685C186.362 408.499 185.501 409.058 184.372 409.058ZM184.372 403.555C183.36 403.555 182.65 404.323 182.65 405.37V405.451H185.966V405.323C185.966 404.264 185.326 403.555 184.372 403.555Z" fill="black"/>
  <path d="M173.761 408.918H172.679L170.702 400.797H171.737L172.61 404.707L173.284 407.743H173.308L174.064 404.707L175.088 400.797H176.205L177.194 404.707L177.95 407.732H177.985L178.683 404.707L179.602 400.797H180.603L178.52 408.918H177.438L176.379 404.869L175.635 401.891H175.611L174.843 404.869L173.761 408.918Z" fill="black"/>
  <path d="M158.749 398.309C157.877 398.306 157.024 398.559 156.295 399.036L159.203 401.945C159.3 402.028 159.38 402.129 159.437 402.243C159.494 402.356 159.528 402.481 159.536 402.608C159.545 402.735 159.528 402.862 159.486 402.982C159.444 403.103 159.379 403.214 159.294 403.308C159.199 403.393 159.089 403.459 158.968 403.5C158.848 403.542 158.72 403.559 158.593 403.55C158.466 403.542 158.342 403.508 158.228 403.451C158.115 403.394 158.013 403.314 157.931 403.218L154.931 400.309C154.413 401.072 154.143 401.977 154.159 402.899C154.163 404.115 154.649 405.28 155.508 406.14C156.368 407 157.533 407.485 158.749 407.49C159.147 407.492 159.543 407.446 159.93 407.353L162.975 410.398C163.403 410.826 163.984 411.067 164.589 411.067C165.194 411.067 165.774 410.826 166.202 410.398C166.63 409.97 166.871 409.39 166.871 408.785C166.871 408.18 166.63 407.599 166.202 407.171L163.157 404.127C163.25 403.74 163.296 403.343 163.294 402.945C163.306 402.34 163.197 401.74 162.974 401.178C162.751 400.616 162.418 400.104 161.995 399.672C161.572 399.241 161.067 398.898 160.509 398.664C159.952 398.43 159.353 398.309 158.749 398.309ZM162.385 402.899C162.384 403.222 162.338 403.544 162.248 403.854L162.112 404.354L162.476 404.717L165.521 407.762C165.65 407.885 165.753 408.033 165.824 408.197C165.894 408.361 165.93 408.538 165.93 408.717C165.935 408.896 165.901 409.074 165.83 409.239C165.759 409.404 165.654 409.551 165.521 409.671C165.397 409.8 165.249 409.903 165.085 409.974C164.921 410.044 164.745 410.08 164.566 410.08C164.388 410.08 164.211 410.044 164.047 409.974C163.883 409.903 163.735 409.8 163.612 409.671L160.567 406.626L160.203 406.263L159.703 406.399C159.393 406.489 159.072 406.535 158.749 406.535C157.783 406.533 156.855 406.158 156.158 405.49C155.806 405.158 155.527 404.756 155.339 404.31C155.151 403.864 155.058 403.383 155.068 402.899C155.068 402.562 155.114 402.225 155.204 401.9L157.204 403.899C157.373 404.083 157.576 404.232 157.803 404.336C158.03 404.44 158.276 404.498 158.525 404.507C158.775 404.515 159.024 404.474 159.257 404.385C159.491 404.296 159.704 404.162 159.885 403.99C160.057 403.809 160.191 403.596 160.28 403.362C160.369 403.129 160.41 402.88 160.401 402.63C160.393 402.381 160.335 402.135 160.231 401.909C160.126 401.682 159.978 401.478 159.794 401.309L157.794 399.309C158.088 399.216 158.395 399.17 158.703 399.173C159.669 399.175 160.597 399.55 161.294 400.218C161.992 400.936 162.383 401.898 162.385 402.899Z" fill="#161616"/>
  <path d="M239.963 213.326V222.621C239.963 223.763 241.219 224.46 242.188 223.854L249.624 219.207C250.536 218.637 250.536 217.31 249.624 216.74L242.188 212.093C241.219 211.487 239.963 212.184 239.963 213.326Z" class="fill-layer-03"/>
  <path d="M358.49 222.336C356.482 222.336 354.854 220.708 354.854 218.7C354.854 216.692 356.482 215.065 358.49 215.065C360.498 215.065 362.126 216.692 362.126 218.7C362.126 220.708 360.498 222.336 358.49 222.336Z" class="fill-layer-03"/>
  <path d="M374.487 222.336C372.479 222.336 370.852 220.708 370.852 218.7C370.852 216.692 372.479 215.065 374.487 215.065C376.495 215.065 378.123 216.692 378.123 218.7C378.123 220.708 376.495 222.336 374.487 222.336Z" class="fill-layer-03"/>
  <path d="M406.483 222.336C404.475 222.336 402.847 220.708 402.847 218.7C402.847 216.692 404.475 215.065 406.483 215.065C408.491 215.065 410.118 216.692 410.118 218.7C410.118 220.708 408.491 222.336 406.483 222.336Z" class="fill-layer-03"/>
  <path d="M342.493 222.336C340.485 222.336 338.857 220.708 338.857 218.7C338.857 216.692 340.485 215.065 342.493 215.065C344.501 215.065 346.128 216.692 346.128 218.7C346.128 220.708 344.501 222.336 342.493 222.336Z" class="fill-layer-03"/>
  <path d="M386.849 218.7C386.849 216.692 388.477 215.065 390.485 215.065C392.493 215.065 394.121 216.692 394.121 218.7C394.121 220.708 392.493 222.336 390.485 222.336C388.477 222.336 386.849 220.708 386.849 218.7Z" class="fill-layer-03"/>
  <path d="M410.119 236.152C410.119 238.16 408.491 239.788 406.483 239.788C404.475 239.788 402.847 238.16 402.847 236.152C402.847 234.144 404.475 232.516 406.483 232.516C408.491 232.516 410.119 234.144 410.119 236.152Z" class="fill-layer-03"/>
  <path d="M411.857 247.06H402.562C401.42 247.06 400.723 248.316 401.329 249.285L405.976 256.721C406.546 257.633 407.873 257.633 408.443 256.721L413.091 249.285C413.696 248.316 413 247.06 411.857 247.06Z" class="fill-layer-03"/>
  <path d="M229.782 89.9931C229.782 83.5676 234.991 78.3586 241.417 78.3586H351.945C358.371 78.3586 363.58 83.5676 363.58 89.9931V153.983C363.58 160.409 358.371 165.618 351.945 165.618H241.417C234.991 165.618 229.782 160.409 229.782 153.983V89.9931Z" class="fill-layer-00"/>
  <path d="M353.4 94.356C353.4 93.5528 354.051 92.9017 354.854 92.9017C355.658 92.9017 356.309 93.5528 356.309 94.356V111.808C356.309 112.611 355.658 113.262 354.854 113.262C354.051 113.262 353.4 112.611 353.4 111.808V94.356Z" class="fill-text-muted"/>
  <path d="M280.513 103.082H279.989C279.303 103.082 279.023 102.663 278.954 102.104H278.896C278.64 102.837 278 103.221 277.162 103.221C275.894 103.221 275.149 102.523 275.149 101.406C275.149 100.278 275.964 99.6496 277.709 99.6496H278.896V99.0562C278.896 98.2069 278.43 97.7415 277.476 97.7415C276.755 97.7415 276.278 98.0906 275.952 98.6374L275.393 98.1138C275.719 97.4739 276.441 96.9387 277.523 96.9387C278.965 96.9387 279.826 97.695 279.826 98.9632V102.267H280.513V103.082ZM277.313 102.43C278.232 102.43 278.896 101.953 278.896 101.337V100.348H277.662C276.603 100.348 276.126 100.673 276.126 101.255V101.499C276.126 102.093 276.592 102.43 277.313 102.43Z" class="fill-text-helper"/>
  <path d="M265.934 103.082H265.003V97.0784H265.934V98.0557H265.98C266.248 97.439 266.667 96.9387 267.598 96.9387C268.389 96.9387 269.11 97.2994 269.436 98.1604H269.459C269.68 97.5088 270.262 96.9387 271.286 96.9387C272.507 96.9387 273.24 97.7764 273.24 99.2307V103.082H272.31V99.3936C272.31 98.3349 271.902 97.7764 270.995 97.7764C270.262 97.7764 269.587 98.1487 269.587 98.9166V103.082H268.656V99.3936C268.656 98.3232 268.249 97.7764 267.365 97.7764C266.632 97.7764 265.934 98.1487 265.934 98.9166V103.082Z" class="fill-text-helper"/>
  <path d="M263.209 103.082H262.686C261.999 103.082 261.72 102.663 261.65 102.104H261.592C261.336 102.837 260.696 103.221 259.858 103.221C258.59 103.221 257.846 102.523 257.846 101.406C257.846 100.278 258.66 99.6496 260.405 99.6496H261.592V99.0562C261.592 98.2069 261.127 97.7415 260.173 97.7415C259.451 97.7415 258.974 98.0906 258.648 98.6374L258.09 98.1138C258.416 97.4739 259.137 96.9387 260.219 96.9387C261.662 96.9387 262.523 97.695 262.523 98.9632V102.267H263.209V103.082ZM260.01 102.43C260.929 102.43 261.592 101.953 261.592 101.337V100.348H260.359C259.3 100.348 258.823 100.673 258.823 101.255V101.499C258.823 102.093 259.288 102.43 260.01 102.43Z" class="fill-text-helper"/>
  <path d="M256.502 103.082H255.676C255.037 103.082 254.688 102.675 254.688 102.116V94.4726H255.618V102.268H256.502V103.082Z" class="fill-text-helper"/>
  <path d="M252.924 103.082H252.098C251.458 103.082 251.109 102.675 251.109 102.116V94.4726H252.04V102.268H252.924V103.082Z" class="fill-text-helper"/>
  <path d="M245.536 103.222C243.442 103.222 242.092 101.744 242.092 99.0216C242.092 96.2991 243.442 94.8215 245.536 94.8215C247.63 94.8215 248.98 96.2991 248.98 99.0216C248.98 101.744 247.63 103.222 245.536 103.222ZM245.536 102.349C246.944 102.349 247.933 101.302 247.933 99.6964V98.3468C247.933 96.7412 246.944 95.6941 245.536 95.6941C244.128 95.6941 243.139 96.7412 243.139 98.3468V99.6964C243.139 101.302 244.128 102.349 245.536 102.349Z" class="fill-text-helper"/>
  <path d="M283.138 119.08H279.88V118.265H281.02V111.773H279.88V110.959H283.138V111.773H281.997V118.265H283.138V119.08Z" class="fill-white"/>
  <path d="M278.454 119.08H277.43L276.615 116.683H273.334L272.52 119.08H271.531L274.37 110.959H275.615L278.454 119.08ZM276.371 115.822L274.998 111.866H274.94L273.567 115.822H276.371Z" class="fill-white"/>
  <path d="M266.105 119.079H265.174V113.076H266.105V114.053H266.151C266.442 113.378 266.954 112.936 267.85 112.936C269.083 112.936 269.863 113.774 269.863 115.228V119.079H268.932V115.391C268.932 114.321 268.466 113.774 267.571 113.774C266.826 113.774 266.105 114.146 266.105 114.914V119.079Z" class="fill-white"/>
  <path d="M260.581 119.219C258.952 119.219 257.881 117.986 257.881 116.078C257.881 114.17 258.952 112.936 260.581 112.936C262.186 112.936 263.175 114.17 263.175 115.868V116.31H258.859V116.59C258.859 117.625 259.522 118.405 260.639 118.405C261.395 118.405 261.977 118.032 262.291 117.369L262.954 117.846C262.57 118.661 261.709 119.219 260.581 119.219ZM260.581 113.716C259.568 113.716 258.859 114.484 258.859 115.531V115.612H262.175V115.484C262.175 114.426 261.535 113.716 260.581 113.716Z" class="fill-white"/>
  <path d="M251.109 121.406V113.076H252.04V114.053H252.086C252.4 113.297 253.017 112.936 253.843 112.936C255.344 112.936 256.286 114.158 256.286 116.078C256.286 117.997 255.344 119.219 253.843 119.219C253.017 119.219 252.447 118.847 252.086 118.102H252.04V121.406H251.109ZM253.587 118.381C254.634 118.381 255.286 117.66 255.286 116.59V115.566C255.286 114.495 254.634 113.774 253.587 113.774C252.738 113.774 252.04 114.263 252.04 114.926V117.16C252.04 117.939 252.738 118.381 253.587 118.381Z" class="fill-white"/>
  <path d="M245.536 119.219C243.442 119.219 242.092 117.742 242.092 115.019C242.092 112.297 243.442 110.819 245.536 110.819C247.63 110.819 248.98 112.297 248.98 115.019C248.98 117.742 247.63 119.219 245.536 119.219ZM245.536 118.347C246.944 118.347 247.933 117.299 247.933 115.694V114.344C247.933 112.739 246.944 111.692 245.536 111.692C244.128 111.692 243.139 112.739 243.139 114.344V115.694C243.139 117.299 244.128 118.347 245.536 118.347Z" class="fill-white"/>
  <path d="M283.824 135.077L286.476 130.947L283.894 126.956H285.069L287.105 130.191H287.128L289.211 126.956H290.327L287.721 130.912L290.397 135.077H289.222L287.093 131.668H287.07L284.941 135.077H283.824Z" class="fill-text-helper"/>
  <path d="M278.386 135.077H277.455V129.074H278.386V130.051H278.433C278.723 129.376 279.235 128.934 280.131 128.934C281.365 128.934 282.144 129.772 282.144 131.226V135.077H281.213V131.389C281.213 130.318 280.748 129.772 279.852 129.772C279.107 129.772 278.386 130.144 278.386 130.912V135.077Z" class="fill-text-helper"/>
  <path d="M272.748 135.217C271.143 135.217 270.038 133.983 270.038 132.075C270.038 130.167 271.143 128.934 272.748 128.934C274.354 128.934 275.459 130.167 275.459 132.075C275.459 133.983 274.354 135.217 272.748 135.217ZM272.748 134.391C273.749 134.391 274.459 133.774 274.459 132.506V131.645C274.459 130.377 273.749 129.76 272.748 129.76C271.748 129.76 271.038 130.377 271.038 131.645V132.506C271.038 133.774 271.748 134.391 272.748 134.391Z" class="fill-text-helper"/>
  <path d="M266.148 135.217C265.043 135.217 264.31 134.751 263.774 134.042L264.438 133.506C264.903 134.088 265.461 134.425 266.218 134.425C267.009 134.425 267.474 134.065 267.474 133.448C267.474 132.983 267.218 132.622 266.427 132.506L265.95 132.436C264.845 132.273 264.019 131.819 264.019 130.702C264.019 129.516 264.938 128.934 266.16 128.934C267.125 128.934 267.765 129.295 268.254 129.9L267.637 130.458C267.369 130.086 266.858 129.725 266.09 129.725C265.322 129.725 264.915 130.086 264.915 130.656C264.915 131.238 265.322 131.47 266.066 131.587L266.532 131.656C267.858 131.854 268.37 132.436 268.37 133.343C268.37 134.507 267.521 135.217 266.148 135.217Z" class="fill-text-helper"/>
  <path d="M262.29 135.077H261.127C260.487 135.077 260.138 134.67 260.138 134.088V129.888H259.149V129.074H259.707C260.103 129.074 260.231 128.934 260.231 128.527V127.41H261.069V129.074H262.383V129.888H261.069V134.263H262.29V135.077Z" class="fill-text-helper"/>
  <path d="M258.007 135.077H257.483C256.797 135.077 256.517 134.658 256.448 134.1H256.389C256.133 134.833 255.494 135.217 254.656 135.217C253.388 135.217 252.643 134.519 252.643 133.402C252.643 132.273 253.457 131.645 255.203 131.645H256.389V131.051C256.389 130.202 255.924 129.737 254.97 129.737C254.249 129.737 253.772 130.086 253.446 130.633L252.887 130.109C253.213 129.469 253.935 128.934 255.017 128.934C256.459 128.934 257.32 129.69 257.32 130.958V134.263H258.007V135.077ZM254.807 134.425C255.726 134.425 256.389 133.948 256.389 133.332V132.343H255.156C254.097 132.343 253.62 132.669 253.62 133.25V133.495C253.62 134.088 254.086 134.425 254.807 134.425Z" class="fill-text-helper"/>
  <path d="M244.71 135.077H243.628L241.65 126.956H242.685L243.558 130.865L244.233 133.902H244.256L245.012 130.865L246.036 126.956H247.153L248.142 130.865L248.898 133.89H248.933L249.631 130.865L250.55 126.956H251.551L249.468 135.077H248.386L247.328 131.028L246.583 128.05H246.56L245.792 131.028L244.71 135.077Z" class="fill-text-helper"/>
  <path d="M293.504 151.214C291.817 151.214 290.828 149.992 290.828 148.073C290.828 146.153 291.817 144.931 293.504 144.931C294.691 144.931 295.4 145.513 295.749 146.339L294.97 146.735C294.749 146.118 294.237 145.758 293.504 145.758C292.399 145.758 291.828 146.514 291.828 147.561V148.585C291.828 149.632 292.399 150.388 293.504 150.388C294.26 150.388 294.807 150.027 295.133 149.341L295.807 149.795C295.424 150.656 294.644 151.214 293.504 151.214Z" class="fill-layer-03"/>
  <path d="M288.361 143.664C287.966 143.664 287.791 143.454 287.791 143.14V142.989C287.791 142.675 287.966 142.465 288.361 142.465C288.757 142.465 288.931 142.675 288.931 142.989V143.14C288.931 143.454 288.757 143.664 288.361 143.664ZM287.896 151.075V145.071H288.827V151.075H287.896Z" class="fill-layer-03"/>
  <path d="M280.682 153.401V145.071H281.613V146.048H281.659C281.973 145.292 282.59 144.931 283.416 144.931C284.917 144.931 285.859 146.153 285.859 148.073C285.859 149.992 284.917 151.214 283.416 151.214C282.59 151.214 282.02 150.842 281.659 150.097H281.613V153.401H280.682ZM283.16 150.376C284.207 150.376 284.859 149.655 284.859 148.585V147.561C284.859 146.49 284.207 145.769 283.16 145.769C282.311 145.769 281.613 146.258 281.613 146.921V149.155C281.613 149.934 282.311 150.376 283.16 150.376Z" class="fill-layer-03"/>
  <path d="M275.975 151.214C274.369 151.214 273.264 149.981 273.264 148.073C273.264 146.165 274.369 144.931 275.975 144.931C277.58 144.931 278.686 146.165 278.686 148.073C278.686 149.981 277.58 151.214 275.975 151.214ZM275.975 150.388C276.975 150.388 277.685 149.771 277.685 148.503V147.642C277.685 146.374 276.975 145.758 275.975 145.758C274.974 145.758 274.264 146.374 274.264 147.642V148.503C274.264 149.771 274.974 150.388 275.975 150.388Z" class="fill-layer-03"/>
  <path d="M269.956 151.075H269.025V145.071H269.956V146.177H270.014C270.224 145.606 270.771 145.071 271.748 145.071H272.109V146.002H271.562C270.561 146.002 269.956 146.433 269.956 147.003V151.075Z" class="fill-layer-03"/>
  <path d="M261.947 151.075V142.465H262.878V146.049H262.925C263.215 145.374 263.727 144.932 264.623 144.932C265.856 144.932 266.636 145.769 266.636 147.224V151.075H265.705V147.387C265.705 146.316 265.24 145.769 264.344 145.769C263.599 145.769 262.878 146.142 262.878 146.91V151.075H261.947Z" class="fill-layer-03"/>
  <path d="M259.893 151.075H258.73C258.09 151.075 257.741 150.668 257.741 150.086V145.886H256.752V145.071H257.31C257.706 145.071 257.834 144.932 257.834 144.524V143.408H258.671V145.071H259.986V145.886H258.671V150.26H259.893V151.075Z" class="fill-layer-03"/>
  <path d="M251.256 151.075H250.325V145.071H251.256V146.048H251.302C251.593 145.374 252.105 144.931 253.001 144.931C254.234 144.931 255.014 145.769 255.014 147.223V151.075H254.083V147.386C254.083 146.316 253.618 145.769 252.722 145.769C251.977 145.769 251.256 146.141 251.256 146.909V151.075Z" class="fill-layer-03"/>
  <path d="M248.608 151.075H247.584L246.769 148.678H243.488L242.674 151.075H241.685L244.524 142.954H245.769L248.608 151.075ZM246.525 147.817L245.152 143.861H245.094L243.721 147.817H246.525Z" class="fill-layer-03"/>
  <path d="M455.203 351.771C455.203 345.345 460.412 340.136 466.837 340.136H577.366C583.791 340.136 589 345.345 589 351.771V415.761C589 422.187 583.791 427.396 577.366 427.396H466.837C460.412 427.396 455.203 422.187 455.203 415.761V351.771Z" class="fill-layer-00"/>
  <path d="M509.244 364.86L511.896 360.73L509.313 356.739H510.489L512.525 359.973H512.548L514.63 356.739H515.747L513.141 360.695L515.817 364.86H514.642L512.513 361.451H512.49L510.361 364.86H509.244Z" class="fill-text-helper"/>
  <path d="M503.806 364.86H502.875V358.856H503.806V359.833H503.852C504.143 359.159 504.655 358.717 505.551 358.717C506.784 358.717 507.564 359.554 507.564 361.009V364.86H506.633V361.171C506.633 360.101 506.168 359.554 505.272 359.554C504.527 359.554 503.806 359.927 503.806 360.694V364.86Z" class="fill-text-helper"/>
  <path d="M498.168 364.999C496.563 364.999 495.457 363.766 495.457 361.858C495.457 359.95 496.563 358.717 498.168 358.717C499.774 358.717 500.879 359.95 500.879 361.858C500.879 363.766 499.774 364.999 498.168 364.999ZM498.168 364.173C499.169 364.173 499.878 363.557 499.878 362.288V361.427C499.878 360.159 499.169 359.543 498.168 359.543C497.168 359.543 496.458 360.159 496.458 361.427V362.288C496.458 363.557 497.168 364.173 498.168 364.173Z" class="fill-text-helper"/>
  <path d="M491.568 364.999C490.463 364.999 489.73 364.534 489.194 363.824L489.858 363.289C490.323 363.871 490.881 364.208 491.638 364.208C492.429 364.208 492.894 363.847 492.894 363.231C492.894 362.765 492.638 362.405 491.847 362.288L491.37 362.219C490.265 362.056 489.439 361.602 489.439 360.485C489.439 359.298 490.358 358.717 491.579 358.717C492.545 358.717 493.185 359.077 493.674 359.682L493.057 360.241C492.789 359.868 492.277 359.508 491.51 359.508C490.742 359.508 490.335 359.868 490.335 360.438C490.335 361.02 490.742 361.253 491.486 361.369L491.952 361.439C493.278 361.637 493.79 362.219 493.79 363.126C493.79 364.289 492.941 364.999 491.568 364.999Z" class="fill-text-helper"/>
  <path d="M487.71 364.86H486.547C485.907 364.86 485.558 364.453 485.558 363.871V359.671H484.569V358.856H485.127C485.523 358.856 485.651 358.717 485.651 358.31V357.193H486.489V358.856H487.803V359.671H486.489V364.045H487.71V364.86Z" class="fill-text-helper"/>
  <path d="M483.427 364.86H482.903C482.217 364.86 481.937 364.441 481.867 363.882H481.809C481.553 364.615 480.913 364.999 480.076 364.999C478.808 364.999 478.063 364.301 478.063 363.184C478.063 362.056 478.877 361.427 480.623 361.427H481.809V360.834C481.809 359.985 481.344 359.519 480.39 359.519C479.669 359.519 479.192 359.868 478.866 360.415L478.307 359.892C478.633 359.252 479.354 358.717 480.436 358.717C481.879 358.717 482.74 359.473 482.74 360.741V364.045H483.427V364.86ZM480.227 364.208C481.146 364.208 481.809 363.731 481.809 363.114V362.125H480.576C479.517 362.125 479.04 362.451 479.04 363.033V363.277C479.04 363.871 479.506 364.208 480.227 364.208Z" class="fill-text-helper"/>
  <path d="M470.129 364.86H469.047L467.07 356.739H468.105L468.978 360.648L469.652 363.685H469.676L470.432 360.648L471.456 356.739H472.573L473.562 360.648L474.318 363.673H474.353L475.051 360.648L475.97 356.739H476.971L474.888 364.86H473.806L472.747 360.811L472.003 357.833H471.979L471.211 360.811L470.129 364.86Z" class="fill-text-helper"/>
  <path d="M518.924 380.997C517.237 380.997 516.248 379.775 516.248 377.855C516.248 375.936 517.237 374.714 518.924 374.714C520.11 374.714 520.82 375.296 521.169 376.122L520.39 376.517C520.169 375.901 519.657 375.54 518.924 375.54C517.818 375.54 517.248 376.296 517.248 377.343V378.367C517.248 379.414 517.818 380.171 518.924 380.171C519.68 380.171 520.227 379.81 520.553 379.124L521.227 379.577C520.843 380.438 520.064 380.997 518.924 380.997Z" class="fill-white"/>
  <path d="M513.781 373.446C513.385 373.446 513.211 373.237 513.211 372.923V372.771C513.211 372.457 513.385 372.248 513.781 372.248C514.177 372.248 514.351 372.457 514.351 372.771V372.923C514.351 373.237 514.177 373.446 513.781 373.446ZM513.316 380.857V374.854H514.246V380.857H513.316Z" class="fill-white"/>
  <path d="M506.101 383.184V374.854H507.032V375.831H507.079C507.393 375.075 508.009 374.714 508.835 374.714C510.336 374.714 511.279 375.936 511.279 377.855C511.279 379.775 510.336 380.997 508.835 380.997C508.009 380.997 507.439 380.624 507.079 379.88H507.032V383.184H506.101ZM508.579 380.159C509.627 380.159 510.278 379.438 510.278 378.367V377.343C510.278 376.273 509.627 375.552 508.579 375.552C507.73 375.552 507.032 376.04 507.032 376.704V378.937C507.032 379.717 507.73 380.159 508.579 380.159Z" class="fill-white"/>
  <path d="M501.395 380.997C499.789 380.997 498.684 379.763 498.684 377.855C498.684 375.947 499.789 374.714 501.395 374.714C503 374.714 504.106 375.947 504.106 377.855C504.106 379.763 503 380.997 501.395 380.997ZM501.395 380.171C502.395 380.171 503.105 379.554 503.105 378.286V377.425C503.105 376.157 502.395 375.54 501.395 375.54C500.394 375.54 499.684 376.157 499.684 377.425V378.286C499.684 379.554 500.394 380.171 501.395 380.171Z" class="fill-white"/>
  <path d="M495.376 380.857H494.445V374.854H495.376V375.959H495.434C495.643 375.389 496.19 374.854 497.167 374.854H497.528V375.785H496.981C495.981 375.785 495.376 376.215 495.376 376.785V380.857Z" class="fill-white"/>
  <path d="M487.367 380.857V372.248H488.298V375.831H488.344C488.635 375.156 489.147 374.714 490.043 374.714C491.276 374.714 492.056 375.552 492.056 377.006V380.857H491.125V377.169C491.125 376.099 490.66 375.552 489.764 375.552C489.019 375.552 488.298 375.924 488.298 376.692V380.857H487.367Z" class="fill-white"/>
  <path d="M485.312 380.857H484.149C483.509 380.857 483.16 380.45 483.16 379.868V375.668H482.171V374.854H482.73C483.125 374.854 483.253 374.714 483.253 374.307V373.19H484.091V374.854H485.406V375.668H484.091V380.043H485.312V380.857Z" class="fill-white"/>
  <path d="M476.676 380.857H475.745V374.854H476.676V375.831H476.722C477.013 375.156 477.525 374.714 478.421 374.714C479.654 374.714 480.434 375.552 480.434 377.006V380.857H479.503V377.169C479.503 376.099 479.037 375.552 478.142 375.552C477.397 375.552 476.676 375.924 476.676 376.692V380.857Z" class="fill-white"/>
  <path d="M474.027 380.857H473.003L472.189 378.461H468.908L468.094 380.857H467.105L469.944 372.736H471.188L474.027 380.857ZM471.945 377.6L470.572 373.644H470.514L469.141 377.6H471.945Z" class="fill-white"/>
  <path d="M503.36 396.994C501.731 396.994 500.661 395.761 500.661 393.853C500.661 391.945 501.731 390.711 503.36 390.711C504.966 390.711 505.955 391.945 505.955 393.643V394.086H501.638V394.365C501.638 395.4 502.301 396.18 503.418 396.18C504.175 396.18 504.756 395.807 505.07 395.144L505.734 395.621C505.35 396.436 504.489 396.994 503.36 396.994ZM503.36 391.491C502.348 391.491 501.638 392.259 501.638 393.306V393.387H504.954V393.259C504.954 392.201 504.314 391.491 503.36 391.491Z" class="fill-text-helper"/>
  <path d="M497.353 396.855H496.422V390.851H497.353V391.957H497.411C497.62 391.387 498.167 390.851 499.144 390.851H499.505V391.782H498.958C497.958 391.782 497.353 392.213 497.353 392.783V396.855Z" class="fill-text-helper"/>
  <path d="M491.828 396.994C490.199 396.994 489.129 395.761 489.129 393.853C489.129 391.945 490.199 390.711 491.828 390.711C493.434 390.711 494.423 391.945 494.423 393.643V394.086H490.106V394.365C490.106 395.4 490.769 396.18 491.886 396.18C492.643 396.18 493.224 395.807 493.538 395.144L494.202 395.621C493.818 396.436 492.957 396.994 491.828 396.994ZM491.828 391.491C490.816 391.491 490.106 392.259 490.106 393.306V393.387H493.422V393.259C493.422 392.201 492.782 391.491 491.828 391.491Z" class="fill-text-helper"/>
  <path d="M482.493 396.855V388.245H483.424V391.829H483.47C483.761 391.154 484.273 390.712 485.169 390.712C486.402 390.712 487.182 391.549 487.182 393.004V396.855H486.251V393.167C486.251 392.096 485.786 391.549 484.89 391.549C484.145 391.549 483.424 391.922 483.424 392.69V396.855H482.493Z" class="fill-text-helper"/>
  <path d="M477.787 396.994C476.181 396.994 475.076 395.761 475.076 393.853C475.076 391.945 476.181 390.711 477.787 390.711C479.392 390.711 480.497 391.945 480.497 393.853C480.497 395.761 479.392 396.994 477.787 396.994ZM477.787 396.168C478.787 396.168 479.497 395.551 479.497 394.283V393.422C479.497 392.154 478.787 391.538 477.787 391.538C476.786 391.538 476.076 392.154 476.076 393.422V394.283C476.076 395.551 476.786 396.168 477.787 396.168Z" class="fill-text-helper"/>
  <path d="M470.781 396.994C468.734 396.994 467.512 395.552 467.512 392.841C467.512 390.13 468.734 388.594 470.781 388.594C472.131 388.594 473.062 389.246 473.574 390.374L472.782 390.851C472.457 390.014 471.782 389.467 470.781 389.467C469.385 389.467 468.559 390.572 468.559 392.236V393.446C468.559 395.11 469.385 396.122 470.781 396.122C471.817 396.122 472.526 395.54 472.852 394.656L473.632 395.145C473.12 396.285 472.131 396.994 470.781 396.994Z" class="fill-text-helper"/>
  <path d="M504.894 412.852H504.068C503.428 412.852 503.079 412.445 503.079 411.887V404.243H504.01V412.038H504.894V412.852Z" class="fill-layer-03"/>
  <path d="M501.285 412.852H500.762C500.075 412.852 499.796 412.433 499.726 411.875H499.668C499.412 412.608 498.772 412.992 497.935 412.992C496.666 412.992 495.922 412.294 495.922 411.177C495.922 410.048 496.736 409.42 498.481 409.42H499.668V408.827C499.668 407.977 499.203 407.512 498.249 407.512C497.527 407.512 497.05 407.861 496.725 408.408L496.166 407.884C496.492 407.244 497.213 406.709 498.295 406.709C499.738 406.709 500.599 407.465 500.599 408.733V412.038H501.285V412.852ZM498.086 412.201C499.005 412.201 499.668 411.724 499.668 411.107V410.118H498.435C497.376 410.118 496.899 410.444 496.899 411.025V411.27C496.899 411.863 497.365 412.201 498.086 412.201Z" class="fill-layer-03"/>
  <path d="M492.638 412.852H491.707V406.849H492.638V407.954H492.696C492.905 407.384 493.452 406.849 494.429 406.849H494.79V407.78H494.243C493.243 407.78 492.638 408.21 492.638 408.78V412.852Z" class="fill-layer-03"/>
  <path d="M489.652 412.852H488.489C487.849 412.852 487.5 412.445 487.5 411.863V407.663H486.511V406.849H487.069C487.465 406.849 487.593 406.709 487.593 406.302V405.185H488.431V406.849H489.745V407.663H488.431V412.038H489.652V412.852Z" class="fill-layer-03"/>
  <path d="M482.91 412.992C481.805 412.992 481.072 412.526 480.537 411.817L481.2 411.281C481.665 411.863 482.224 412.201 482.98 412.201C483.771 412.201 484.237 411.84 484.237 411.223C484.237 410.758 483.981 410.397 483.19 410.281L482.713 410.211C481.607 410.048 480.781 409.594 480.781 408.477C480.781 407.291 481.7 406.709 482.922 406.709C483.888 406.709 484.528 407.07 485.016 407.675L484.4 408.233C484.132 407.861 483.62 407.5 482.852 407.5C482.084 407.5 481.677 407.861 481.677 408.431C481.677 409.013 482.084 409.245 482.829 409.362L483.294 409.432C484.621 409.629 485.133 410.211 485.133 411.119C485.133 412.282 484.283 412.992 482.91 412.992Z" class="fill-layer-03"/>
  <path d="M478.198 405.441C477.803 405.441 477.628 405.232 477.628 404.918V404.766C477.628 404.452 477.803 404.243 478.198 404.243C478.594 404.243 478.768 404.452 478.768 404.766V404.918C478.768 405.232 478.594 405.441 478.198 405.441ZM477.733 412.852V406.849H478.664V412.852H477.733Z" class="fill-layer-03"/>
  <path d="M467.919 412.852V404.731H469.222L471.549 409.106H471.607L473.946 404.731H475.202V412.852H474.248V406.011H474.19L473.504 407.372L471.561 410.909L469.618 407.372L468.931 406.011H468.873V412.852H467.919Z" class="fill-layer-03"/>
  <path d="M580.274 382.312C580.274 381.508 580.925 380.857 581.728 380.857C582.532 380.857 583.183 381.508 583.183 382.312V399.763C583.183 400.567 582.532 401.218 581.728 401.218C580.925 401.218 580.274 400.567 580.274 399.763V382.312Z" class="fill-text-muted"/>
  <path d="M559.914 248.514V251.423H488.652V248.514H559.914ZM568.64 239.788V152.529C568.64 147.71 564.733 143.803 559.914 143.803H488.652C483.833 143.803 479.926 147.71 479.926 152.529V239.788C479.926 244.607 483.833 248.514 488.652 248.514V251.423L488.053 251.407C482.104 251.105 477.335 246.336 477.033 240.387L477.018 239.788V152.529C477.018 146.103 482.227 140.894 488.652 140.894H559.914C566.339 140.894 571.548 146.103 571.548 152.529V239.788L571.533 240.387C571.231 246.336 566.462 251.105 560.513 251.407L559.914 251.423V248.514C564.733 248.514 568.64 244.607 568.64 239.788Z" class="fill-layer-03"/>
  <path d="M550.303 171.435H548.558C547.598 171.435 547.074 170.824 547.074 169.952V163.652H545.591V162.43H546.429C547.022 162.43 547.214 162.221 547.214 161.61V159.935H548.471V162.43H550.443V163.652H548.471V170.214H550.303V171.435Z" class="fill-white"/>
  <path d="M541.023 171.435H539.627V162.43H541.023V164.088H541.11C541.424 163.233 542.245 162.43 543.711 162.43H544.252V163.826H543.431C541.931 163.826 541.023 164.472 541.023 165.327V171.435Z" class="fill-white"/>
  <path d="M532.799 171.645C530.391 171.645 528.733 169.795 528.733 166.933C528.733 164.071 530.391 162.221 532.799 162.221C535.208 162.221 536.866 164.071 536.866 166.933C536.866 169.795 535.208 171.645 532.799 171.645ZM532.799 170.406C534.3 170.406 535.365 169.481 535.365 167.578V166.287C535.365 164.385 534.3 163.46 532.799 163.46C531.299 163.46 530.234 164.385 530.234 166.287V167.578C530.234 169.481 531.299 170.406 532.799 170.406Z" class="fill-white"/>
  <path d="M518.807 174.926V162.43H520.204V163.896H520.273C520.745 162.762 521.669 162.221 522.909 162.221C525.16 162.221 526.573 164.053 526.573 166.933C526.573 169.812 525.16 171.645 522.909 171.645C521.669 171.645 520.814 171.086 520.273 169.969H520.204V174.926H518.807ZM522.525 170.388C524.095 170.388 525.073 169.306 525.073 167.701V166.165C525.073 164.559 524.095 163.477 522.525 163.477C521.251 163.477 520.204 164.21 520.204 165.205V168.556C520.204 169.725 521.251 170.388 522.525 170.388Z" class="fill-white"/>
  <path d="M512.149 171.645C509.706 171.645 508.101 169.795 508.101 166.933C508.101 164.071 509.706 162.221 512.149 162.221C514.558 162.221 516.041 164.071 516.041 166.619V167.282H509.567V167.701C509.567 169.254 510.561 170.423 512.237 170.423C513.371 170.423 514.244 169.865 514.715 168.87L515.71 169.585C515.134 170.807 513.842 171.645 512.149 171.645ZM512.149 163.39C510.631 163.39 509.567 164.542 509.567 166.112V166.235H514.54V166.043C514.54 164.454 513.58 163.39 512.149 163.39Z" class="fill-white"/>
  <path d="M498.996 166.2V171.435H497.531V159.254H502.382C504.511 159.254 505.785 160.493 505.785 162.709C505.785 164.489 504.93 165.693 503.342 166.06L506.134 171.435H504.476L501.841 166.2H498.996ZM498.996 164.943H502.382C503.534 164.943 504.215 164.315 504.215 163.198V162.29C504.215 161.173 503.534 160.545 502.382 160.545H498.996V164.943Z" class="fill-white"/>
  <path d="M487.198 190.341C487.198 188.735 488.5 187.433 490.106 187.433H559.914C561.52 187.433 562.822 188.735 562.822 190.341C562.822 191.948 561.52 193.25 559.914 193.25H490.106C488.5 193.25 487.198 191.948 487.198 190.341Z" class="fill-layer-03"/>
  <path d="M487.198 206.339C487.198 204.732 488.5 203.43 490.106 203.43H559.914C561.52 203.43 562.822 204.732 562.822 206.339C562.822 207.945 561.52 209.247 559.914 209.247H490.106C488.5 209.247 487.198 207.945 487.198 206.339Z" class="fill-layer-03"/>
  <path d="M487.198 222.336C487.198 220.73 488.5 219.428 490.106 219.428H516.284C517.89 219.428 519.193 220.73 519.193 222.336C519.193 223.943 517.89 225.245 516.284 225.245H490.106C488.5 225.245 487.198 223.943 487.198 222.336Z" class="fill-layer-03"/>
</svg>