<?xml version="1.0" encoding="UTF-8"?>
<svg xmlns="http://www.w3.org/2000/svg" xmlns:xlink="http://www.w3.org/1999/xlink" version="1.1" viewBox="0 0 770 540">
  <g >
    <g>
      <path class="fill-layer-03" d="M497,0h-32c-4.4,0-8,3.6-8,8v32c0,4.4,3.6,8,8,8h32c4.4,0,8-3.6,8-8V8c0-4.4-3.6-8-8-8Z"/>
      <g>
        <g class="st8">
          <path fill="none" d="M489,16h-16v16h16v-16Z"/>
        </g>
        <path class="fill-text" d="M487,25.5l-7.5-7.5c-1.2-1.3-3.3-1.3-4.6,0-1.3,1.2-1.3,3.3,0,4.6h0c0,0,1.4,1.5,1.4,1.5l.7-.7-1.5-1.5c-.9-.9-.9-2.3,0-3.1s2.3-.9,3.1,0h0s7.4,7.5,7.4,7.5c.9.8.9,2.3,0,3.1-.9.9-2.3.9-3.1,0h0s-3.7-3.8-3.7-3.8c-.5-.5-.5-1.3,0-1.8.5-.4,1.2-.4,1.8,0l2,2.1.7-.7-2.1-2.1c-.9-.9-2.3-.8-3.1.1-.8.9-.8,2.2,0,3.1l3.8,3.8c1.2,1.3,3.3,1.3,4.6,0,1.3-1.2,1.3-3.4,0-4.6Z"/>
      </g>
    </g>
  </g>
  <path class="stroke-layer-03" d="M660,60.5h-195c-4.1,0-7.5,3.4-7.5,7.5v9c0,4.1,3.4,7.5,7.5,7.5h195c4.1,0,7.5-3.4,7.5-7.5v-9c0-4.1-3.4-7.5-7.5-7.5Z"/>
  <path fill="none" d="M481,64.5h-16v16h16v-16Z"/>
  <path class="fill-disabled" d="M480,70v-1h-4v7h1v-3h2.5v-1h-2.5v-2h3Z"/>
  <path class="fill-disabled" d="M469,69h-3v7h1v-2.5h2c.3,0,.5-.1.7-.3.2-.2.3-.4.3-.7v-2.5c0-.3-.1-.5-.3-.7-.2-.2-.4-.3-.7-.3ZM469,72.5h-2v-2.5h2v2.5Z"/>
  <path class="fill-disabled" d="M473,76h-2v-7h2c.5,0,1,.2,1.4.6s.6.9.6,1.4v3c0,.5-.2,1-.6,1.4s-.9.6-1.4.6ZM472,75h1c.3,0,.5-.1.7-.3.2-.2.3-.4.3-.7v-3c0-.3-.1-.5-.3-.7-.2-.2-.4-.3-.7-.3h-1v5Z"/>
  <path class="fill-disabled" d="M633.2,76.3v-6.2h-1.2v-1h1.2v-1.5c0-1,.5-1.7,1.6-1.7h1.1v1h-1.6v2.2h1.6v1h-1.6v6.2h-1.1Z"/>
  <path class="fill-disabled" d="M629.3,76.3v-1.2h0c-.4.9-1.1,1.3-2.1,1.3-1.8,0-2.9-1.5-2.9-3.8s1.1-3.8,2.9-3.8,1.7.4,2.1,1.3h0v-4.3h1.1v10.4h-1.1ZM627.5,75.4c1,0,1.9-.5,1.9-1.5v-2.7c0-.8-.8-1.4-1.9-1.4s-2,.9-2,2.2v1.2c0,1.3.8,2.2,2,2.2Z"/>
  <path class="fill-disabled" d="M616.6,79.1v-10h1.1v1.2h0c.4-.9,1.1-1.3,2.1-1.3,1.8,0,2.9,1.5,2.9,3.8s-1.1,3.8-2.9,3.8-1.7-.4-2.1-1.3h0v4h-1.1ZM619.6,75.4c1.3,0,2-.9,2-2.2v-1.2c0-1.3-.8-2.2-2-2.2s-1.9.6-1.9,1.4v2.7c0,.9.8,1.5,1.9,1.5Z"/>
  <path class="fill-disabled" d="M613.5,76.4c-.6,0-.9-.3-.9-.8v-.2c0-.5.3-.8.9-.8s.9.3.9.8v.2c0,.5-.3.8-.9.8Z"/>
  <path class="fill-disabled" d="M605.4,76.3v-10.4h1.1v6.6h0l1.1-1.2,2-2.2h1.4l-2.7,2.9,2.9,4.4h-1.4l-2.4-3.7-1.1,1.1v2.6h-1.1Z"/>
  <path class="fill-disabled" d="M601.1,76.4c-2,0-3.2-1.5-3.2-3.8s1.2-3.8,3.2-3.8,2.3.7,2.7,1.7l-.9.5c-.3-.7-.9-1.2-1.8-1.2-1.3,0-2,.9-2,2.2v1.2c0,1.3.7,2.2,2,2.2s1.6-.4,2-1.3l.8.5c-.5,1-1.4,1.7-2.8,1.7Z"/>
  <path class="fill-disabled" d="M596.8,76.3h-.6c-.8,0-1.2-.5-1.2-1.2h0c-.3.9-1.1,1.3-2.1,1.3-1.5,0-2.4-.8-2.4-2.2s1-2.1,3.1-2.1h1.4v-.7c0-1-.6-1.6-1.7-1.6s-1.4.4-1.8,1.1l-.7-.6c.4-.8,1.3-1.4,2.6-1.4s2.8.9,2.8,2.4v4h.8v1ZM592.9,75.5c1.1,0,1.9-.6,1.9-1.3v-1.2h-1.5c-1.3,0-1.8.4-1.8,1.1v.3c0,.7.6,1.1,1.4,1.1Z"/>
  <path class="fill-disabled" d="M582.8,76.3v-10.4h1.1v4.3h0c.4-.9,1.1-1.3,2.1-1.3,1.8,0,2.9,1.5,2.9,3.8s-1.1,3.8-2.9,3.8-1.7-.4-2.1-1.3h0v1.2h-1.1ZM585.7,75.4c1.3,0,2-.9,2-2.2v-1.2c0-1.3-.8-2.2-2-2.2s-1.9.6-1.9,1.4v2.7c0,.9.8,1.5,1.9,1.5Z"/>
  <path class="fill-disabled" d="M579.3,76.3v-1.2h0c-.4.9-1.1,1.3-2.1,1.3-1.8,0-2.9-1.5-2.9-3.8s1.1-3.8,2.9-3.8,1.7.4,2.1,1.3h0v-4.3h1.1v10.4h-1.1ZM577.4,75.4c1,0,1.9-.5,1.9-1.5v-2.7c0-.8-.8-1.4-1.9-1.4s-2,.9-2,2.2v1.2c0,1.3.8,2.2,2,2.2Z"/>
  <path class="fill-disabled" d="M569.7,76.4c-2,0-3.2-1.5-3.2-3.8s1.3-3.8,3.2-3.8,3.1,1.5,3.1,3.5v.5h-5.2v.3c0,1.2.8,2.2,2.1,2.2s1.6-.4,2-1.2l.8.6c-.5,1-1.5,1.7-2.9,1.7ZM569.7,69.8c-1.2,0-2.1.9-2.1,2.2h0c0,0,4,0,4,0v-.2c0-1.3-.8-2.1-1.9-2.1Z"/>
  <path class="fill-disabled" d="M562,76.4c-2,0-3.2-1.5-3.2-3.8s1.3-3.8,3.2-3.8,3.1,1.5,3.1,3.5v.5h-5.2v.3c0,1.2.8,2.2,2.1,2.2s1.6-.4,2-1.2l.8.6c-.5,1-1.5,1.7-2.9,1.7ZM562,69.8c-1.2,0-2.1.9-2.1,2.2h0c0,0,4,0,4,0v-.2c0-1.3-.8-2.1-1.9-2.1Z"/>
  <path class="fill-disabled" d="M553.1,76.3h-1.2v-9.8h5.8v1h-4.6v3.3h4.2v1h-4.2v4.4Z"/>
  <path class="fill-disabled" d="M549.6,72.6h-3.7v-1.2h3.7v1.2Z"/>
  <path class="fill-disabled" d="M542.5,76.3h-1.1v-7.2h1.1v1.3h0c.3-.7.9-1.3,2.1-1.3h.4v1.1h-.7c-1.2,0-1.9.5-1.9,1.2v4.9Z"/>
  <path class="fill-disabled" d="M536.4,76.4c-2,0-3.2-1.5-3.2-3.8s1.3-3.8,3.2-3.8,3.1,1.5,3.1,3.5v.5h-5.2v.3c0,1.2.8,2.2,2.1,2.2s1.6-.4,2-1.2l.8.6c-.5,1-1.5,1.7-2.9,1.7ZM536.4,69.8c-1.2,0-2.1.9-2.1,2.2h0c0,0,4,0,4,0v-.2c0-1.3-.8-2.1-1.9-2.1Z"/>
  <path class="fill-disabled" d="M522.6,76.3h-1.1v-7.2h1.1v1.2h0c.3-.7.8-1.3,1.9-1.3s1.8.4,2.2,1.5h0c.3-.8,1-1.5,2.2-1.5s2.4,1,2.4,2.8v4.6h-1.1v-4.4c0-1.3-.5-1.9-1.6-1.9s-1.7.4-1.7,1.4v5h-1.1v-4.4c0-1.3-.5-1.9-1.6-1.9s-1.7.4-1.7,1.4v5Z"/>
  <path class="fill-disabled" d="M516.3,76.4c-1.9,0-3.3-1.5-3.3-3.8s1.3-3.8,3.3-3.8,3.3,1.5,3.3,3.8-1.3,3.8-3.3,3.8ZM516.3,75.5c1.2,0,2.1-.7,2.1-2.3v-1c0-1.5-.9-2.3-2.1-2.3s-2.1.7-2.1,2.3v1c0,1.5.9,2.3,2.1,2.3Z"/>
  <path class="fill-disabled" d="M511.8,76.3h-1.4c-.8,0-1.2-.5-1.2-1.2v-5.1h-1.2v-1h.7c.5,0,.6-.2.6-.7v-1.3h1v2h1.6v1h-1.6v5.3h1.5v1Z"/>
  <path class="fill-disabled" d="M504.2,76.4c-1.3,0-2.2-.6-2.9-1.4l.8-.6c.6.7,1.2,1.1,2.1,1.1s1.5-.4,1.5-1.2-.3-1-1.3-1.1h-.6c-1.3-.3-2.3-.8-2.3-2.2s1.1-2.1,2.6-2.1,1.9.4,2.5,1.2l-.7.7c-.3-.4-.9-.9-1.9-.9s-1.4.4-1.4,1.1.5,1,1.4,1.1h.6c1.6.3,2.2,1,2.2,2.1s-1,2.3-2.7,2.3Z"/>
  <path class="fill-disabled" d="M498.5,76.3v-1.2h0c-.3.7-.8,1.3-2,1.3s-2.4-1-2.4-2.8v-4.6h1.1v4.4c0,1.3.6,1.9,1.7,1.9s1.8-.4,1.8-1.4v-5h1.1v7.2h-1.1Z"/>
  <path class="fill-disabled" d="M488.9,76.4c-2.5,0-3.9-1.7-3.9-5s1.5-5.1,3.9-5.1,2.7.8,3.4,2.1l-1,.6c-.4-1-1.2-1.7-2.4-1.7s-2.7,1.3-2.7,3.3v1.5c0,2,1,3.2,2.7,3.2s2.1-.7,2.5-1.8l.9.6c-.6,1.4-1.8,2.2-3.4,2.2Z"/>
  <g class="st8">
    <path fill="none" d="M655.9,65h-16v16h16v-16Z"/>
  </g>
  <g class="st8">
    <path fill="none" d="M655.9,65h-16v16h16v-16Z"/>
  </g>
  <g class="spinner">
    <path class="stroke-layer-03" d="M641.4,73c0-1.7.7-3.4,1.9-4.6s2.9-1.9,4.6-1.9,3.4.7,4.6,1.9,1.9,2.9,1.9,4.6-.7,3.4-1.9,4.6-2.9,1.9-4.6,1.9-3.4-.7-4.6-1.9-1.9-2.9-1.9-4.6Z"/>
    <path class="stroke-blue" d="M641.4,73c0-1.4.4-2.7,1.2-3.8.8-1.1,1.9-1.9,3.2-2.4,1.3-.4,2.7-.4,4,0,1.3.4,2.4,1.3,3.2,2.4"/>
  </g>
  <path class="stroke-layer-03" d="M652.8,104.5h-187.8c-4.1,0-7.5,3.4-7.5,7.5v8c0,4.1,3.4,7.5,7.5,7.5h187.8c4.1,0,7.5-3.4,7.5-7.5v-8c0-4.1-3.4-7.5-7.5-7.5Z"/>
  <path fill="none" d="M481,108h-16v16h16v-16Z"/>
  <path d="M480,113.5v-1h-4v7h1v-3h2.5v-1h-2.5v-2h3Z"/>
  <path d="M469,112.5h-3v7h1v-2.5h2c.3,0,.5-.1.7-.3.2-.2.3-.4.3-.7v-2.5c0-.3-.1-.5-.3-.7-.2-.2-.4-.3-.7-.3ZM469,116h-2v-2.5h2v2.5Z"/>
  <path d="M473,119.5h-2v-7h2c.5,0,1,.2,1.4.6s.6.9.6,1.4v3c0,.5-.2,1-.6,1.4s-.9.6-1.4.6ZM472,118.5h1c.3,0,.5-.1.7-.3.2-.2.3-.4.3-.7v-3c0-.3-.1-.5-.3-.7-.2-.2-.4-.3-.7-.3h-1v5Z"/>
  <path d="M650.2,119.7v-6.2h-1.2v-1h1.2v-1.5c0-1,.5-1.7,1.6-1.7h1.1v1h-1.6v2.2h1.6v1h-1.6v6.2h-1.1Z"/>
  <path d="M646.3,119.7v-1.2h0c-.4.9-1.1,1.3-2.1,1.3-1.8,0-2.9-1.5-2.9-3.8s1.1-3.8,2.9-3.8,1.7.4,2.1,1.3h0v-4.3h1.1v10.4h-1.1ZM644.4,118.9c1,0,1.9-.5,1.9-1.5v-2.7c0-.8-.8-1.4-1.9-1.4s-2,.9-2,2.2v1.2c0,1.3.8,2.2,2,2.2Z"/>
  <path d="M633.5,122.5v-10h1.1v1.2h0c.4-.9,1.1-1.3,2.1-1.3,1.8,0,2.9,1.5,2.9,3.8s-1.1,3.8-2.9,3.8-1.7-.4-2.1-1.3h0v4h-1.1ZM636.5,118.9c1.3,0,2-.9,2-2.2v-1.2c0-1.3-.8-2.2-2-2.2s-1.9.6-1.9,1.4v2.7c0,.9.8,1.5,1.9,1.5Z"/>
  <path d="M630.4,119.9c-.6,0-.9-.3-.9-.8v-.2c0-.5.3-.8.9-.8s.9.3.9.8v.2c0,.5-.3.8-.9.8Z"/>
  <path d="M622.9,119.7h-1.1v-7.2h1.1v1.2h0c.4-.8,1-1.3,2-1.3s2.4,1,2.4,2.8v4.6h-1.1v-4.4c0-1.3-.6-1.9-1.6-1.9s-1.8.4-1.8,1.4v5Z"/>
  <path d="M616.8,119.9c-2,0-3.2-1.5-3.2-3.8s1.3-3.8,3.2-3.8,3.1,1.5,3.1,3.5v.5h-5.2v.3c0,1.2.8,2.2,2.1,2.2s1.6-.4,2-1.2l.8.6c-.5,1-1.5,1.7-2.9,1.7ZM616.8,113.2c-1.2,0-2.1.9-2.1,2.2h0c0,0,4,0,4,0v-.2c0-1.3-.8-2.1-1.9-2.1Z"/>
  <path d="M610.8,119.7v-1.4h0c-.2.9-1.2,1.6-2.7,1.6-2.4,0-4.1-1.8-4.1-5.1s1.7-5.1,4.2-5.1,2.9.9,3.6,2.1l-1,.6c-.4-1-1.4-1.7-2.6-1.7s-2.9,1.3-2.9,3.2v1.6c0,1.9,1.1,3.2,3,3.2s2.5-.7,2.5-2.1v-1h-2.2v-1h3.3v5h-1.1Z"/>
  <path d="M599.2,119.9c-1.9,0-3.3-1.5-3.3-3.8s1.3-3.8,3.3-3.8,3.3,1.5,3.3,3.8-1.3,3.8-3.3,3.8ZM599.2,118.9c1.2,0,2.1-.7,2.1-2.3v-1c0-1.5-.9-2.3-2.1-2.3s-2.1.7-2.1,2.3v1c0,1.5.9,2.3,2.1,2.3Z"/>
  <path d="M594.6,119.7h-1.4c-.8,0-1.2-.5-1.2-1.2v-5.1h-1.2v-1h.7c.5,0,.6-.2.6-.7v-1.3h1v2h1.6v1h-1.6v5.3h1.5v1Z"/>
  <path d="M588.1,119.7v-1.2h0c-.3.7-.8,1.3-2,1.3s-2.4-1-2.4-2.8v-4.6h1.1v4.4c0,1.3.6,1.9,1.7,1.9s1.8-.4,1.8-1.4v-5h1.1v7.2h-1.1Z"/>
  <path d="M582.2,119.7h-1.2l-1-2.9h-3.9l-1,2.9h-1.2l3.4-9.8h1.5l3.4,9.8ZM579.7,115.8l-1.7-4.8h0l-1.7,4.8h3.4Z"/>
  <path d="M572.8,116h-3.7v-1.2h3.7v1.2Z"/>
  <path d="M564.9,119.9c-1.3,0-2.2-.6-2.9-1.4l.8-.6c.6.7,1.2,1.1,2.1,1.1s1.5-.4,1.5-1.2-.3-1-1.3-1.1h-.6c-1.3-.3-2.3-.8-2.3-2.2s1.1-2.1,2.6-2.1,1.9.4,2.5,1.2l-.7.7c-.3-.4-.9-.9-1.9-.9s-1.4.4-1.4,1.1.5,1,1.4,1.1h.6c1.6.3,2.2,1,2.2,2.1s-1,2.3-2.7,2.3Z"/>
  <path d="M558.7,119.7h-1.3l-2.5-7.2h1.1l1.3,3.6.8,2.5h0l.8-2.5,1.3-3.6h1.1l-2.5,7.2Z"/>
  <path d="M553.8,116h-3.7v-1.2h3.7v1.2Z"/>
  <path d="M543.5,119.7h-1.1v-7.2h1.1v1.2h0c.4-.8,1-1.3,2-1.3s2.4,1,2.4,2.8v4.6h-1.1v-4.4c0-1.3-.6-1.9-1.6-1.9s-1.8.4-1.8,1.4v5Z"/>
  <path d="M539.5,110.8c-.5,0-.7-.3-.7-.6v-.2c0-.4.2-.6.7-.6s.7.3.7.6v.2c0,.4-.2.6-.7.6ZM538.9,119.7v-7.2h1.1v7.2h-1.1Z"/>
  <path d="M537.3,119.7h-.6c-.8,0-1.2-.5-1.2-1.2h0c-.3.9-1.1,1.3-2.1,1.3-1.5,0-2.4-.8-2.4-2.2s1-2.1,3.1-2.1h1.4v-.7c0-1-.6-1.6-1.7-1.6s-1.4.4-1.8,1.1l-.7-.6c.4-.8,1.3-1.4,2.6-1.4s2.8.9,2.8,2.4v4h.8v1ZM533.5,118.9c1.1,0,1.9-.6,1.9-1.3v-1.2h-1.5c-1.3,0-1.8.4-1.8,1.1v.3c0,.7.6,1.1,1.4,1.1Z"/>
  <path d="M523.5,119.7v-10.4h1.1v4.3h0c.4-.8,1-1.3,2-1.3s2.4,1,2.4,2.8v4.6h-1.1v-4.4c0-1.3-.6-1.9-1.6-1.9s-1.8.4-1.8,1.4v5h-1.1Z"/>
  <path d="M518.3,119.9c-2.5,0-3.9-1.7-3.9-5s1.5-5.1,3.9-5.1,2.7.8,3.4,2.1l-1,.6c-.4-1-1.2-1.7-2.4-1.7s-2.7,1.3-2.7,3.3v1.5c0,2,1,3.2,2.7,3.2s2.1-.7,2.5-1.8l.9.6c-.6,1.4-1.8,2.2-3.4,2.2Z"/>
  <path d="M513.4,120.5c0,1.5-1.2,2.2-3.5,2.2s-3.2-.6-3.2-1.8.4-1.2,1.1-1.4v-.2c-.4-.2-.6-.5-.6-1,0-.7.5-1.1,1.2-1.3h0c-.9-.5-1.4-1.3-1.4-2.3,0-1.5,1.1-2.5,2.7-2.5s1,0,1.4.3h0c0-.7.2-1.1.8-1.1h1.1v1h-1.4v.5c.5.4.8,1.1.8,1.9,0,1.5-1.1,2.5-2.7,2.5s-.5,0-.7,0c-.5.1-1,.4-1,.8s.4.5,1.1.5h1.5c1.8,0,2.6.7,2.6,1.9ZM512.4,120.6c0-.6-.4-1-1.5-1h-2.4c-.5.2-.7.5-.7,1s.4,1.1,1.6,1.1h1c1.2,0,2-.4,2-1.2ZM509.9,116.4c1,0,1.6-.4,1.6-1.4v-.4c0-1-.6-1.4-1.6-1.4s-1.6.4-1.6,1.4v.4c0,1,.6,1.4,1.6,1.4Z"/>
  <path d="M500.5,119.7h-1.1v-7.2h1.1v1.2h0c.4-.8,1-1.3,2-1.3s2.4,1,2.4,2.8v4.6h-1.1v-4.4c0-1.3-.6-1.9-1.6-1.9s-1.8.4-1.8,1.4v5Z"/>
  <path d="M497.8,119.7h-.6c-.8,0-1.2-.5-1.2-1.2h0c-.3.9-1.1,1.3-2.1,1.3-1.5,0-2.4-.8-2.4-2.2s1-2.1,3.1-2.1h1.4v-.7c0-1-.6-1.6-1.7-1.6s-1.4.4-1.8,1.1l-.7-.6c.4-.8,1.3-1.4,2.6-1.4s2.8.9,2.8,2.4v4h.8v1ZM493.9,118.9c1.1,0,1.9-.6,1.9-1.3v-1.2h-1.5c-1.3,0-1.8.4-1.8,1.1v.3c0,.7.6,1.1,1.4,1.1Z"/>
  <path d="M490.3,119.7h-5.3v-9.8h1.2v8.7h4.2v1Z"/>
  <path class="stroke-layer-03" d="M666.5,148.5h-201.5c-4.1,0-7.5,3.4-7.5,7.5v8c0,4.1,3.4,7.5,7.5,7.5h201.5c4.1,0,7.5-3.4,7.5-7.5v-8c0-4.1-3.4-7.5-7.5-7.5Z"/>
  <path fill="none" d="M481,152h-16v16h16v-16Z"/>
  <path d="M480,157.5v-1h-4v7h1v-3h2.5v-1h-2.5v-2h3Z"/>
  <path d="M469,156.5h-3v7h1v-2.5h2c.3,0,.5-.1.7-.3.2-.2.3-.4.3-.7v-2.5c0-.3-.1-.5-.3-.7-.2-.2-.4-.3-.7-.3ZM469,160h-2v-2.5h2v2.5Z"/>
  <path d="M473,163.5h-2v-7h2c.5,0,1,.2,1.4.6s.6.9.6,1.4v3c0,.5-.2,1-.6,1.4s-.9.6-1.4.6ZM472,162.5h1c.3,0,.5-.1.7-.3.2-.2.3-.4.3-.7v-3c0-.3-.1-.5-.3-.7-.2-.2-.4-.3-.7-.3h-1v5Z"/>
  <path d="M663.9,163.7v-6.2h-1.2v-1h1.2v-1.5c0-1,.5-1.7,1.6-1.7h1.1v1h-1.6v2.2h1.6v1h-1.6v6.2h-1.1Z"/>
  <path d="M660,163.7v-1.2h0c-.4.9-1.1,1.3-2.1,1.3-1.8,0-2.9-1.5-2.9-3.8s1.1-3.8,2.9-3.8,1.7.4,2.1,1.3h0v-4.3h1.1v10.4h-1.1ZM658.1,162.9c1,0,1.9-.5,1.9-1.5v-2.7c0-.8-.8-1.4-1.9-1.4s-2,.9-2,2.2v1.2c0,1.3.8,2.2,2,2.2Z"/>
  <path d="M647.2,166.5v-10h1.1v1.2h0c.4-.9,1.1-1.3,2.1-1.3,1.8,0,2.9,1.5,2.9,3.8s-1.1,3.8-2.9,3.8-1.7-.4-2.1-1.3h0v4h-1.1ZM650.2,162.9c1.3,0,2-.9,2-2.2v-1.2c0-1.3-.8-2.2-2-2.2s-1.9.6-1.9,1.4v2.7c0,.9.8,1.5,1.9,1.5Z"/>
  <path d="M644.1,163.9c-.6,0-.9-.3-.9-.8v-.2c0-.5.3-.8.9-.8s.9.3.9.8v.2c0,.5-.3.8-.9.8Z"/>
  <path d="M641.4,163.7h-3.9v-1h1.4v-7.8h-1.4v-1h3.9v1h-1.4v7.8h1.4v1Z"/>
  <path d="M636.3,163.7h-1.2l-1-2.9h-3.9l-1,2.9h-1.2l3.4-9.8h1.5l3.4,9.8ZM633.8,159.8l-1.7-4.8h0l-1.7,4.8h3.4Z"/>
  <path d="M622,163.7h-1.1v-7.2h1.1v1.2h0c.4-.8,1-1.3,2-1.3s2.4,1,2.4,2.8v4.6h-1.1v-4.4c0-1.3-.6-1.9-1.6-1.9s-1.8.4-1.8,1.4v5Z"/>
  <path d="M615.9,163.9c-2,0-3.2-1.5-3.2-3.8s1.3-3.8,3.2-3.8,3.1,1.5,3.1,3.5v.5h-5.2v.3c0,1.2.8,2.2,2.1,2.2s1.6-.4,2-1.2l.8.6c-.5,1-1.5,1.7-2.9,1.7ZM615.9,157.2c-1.2,0-2.1.9-2.1,2.2h0c0,0,4,0,4,0v-.2c0-1.3-.8-2.1-1.9-2.1Z"/>
  <path d="M605.1,166.5v-10h1.1v1.2h0c.4-.9,1.1-1.3,2.1-1.3,1.8,0,2.9,1.5,2.9,3.8s-1.1,3.8-2.9,3.8-1.7-.4-2.1-1.3h0v4h-1.1ZM608.1,162.9c1.3,0,2-.9,2-2.2v-1.2c0-1.3-.8-2.2-2-2.2s-1.9.6-1.9,1.4v2.7c0,.9.8,1.5,1.9,1.5Z"/>
  <path d="M598.9,163.9c-2.5,0-4.1-1.8-4.1-5.1s1.6-5.1,4.1-5.1,4.1,1.8,4.1,5.1-1.6,5.1-4.1,5.1ZM598.9,162.8c1.7,0,2.9-1.3,2.9-3.2v-1.6c0-1.9-1.2-3.2-2.9-3.2s-2.9,1.3-2.9,3.2v1.6c0,1.9,1.2,3.2,2.9,3.2Z"/>
  <path d="M592.8,160h-3.7v-1.2h3.7v1.2Z"/>
  <path d="M584.9,163.9c-1.3,0-2.2-.6-2.9-1.4l.8-.6c.6.7,1.2,1.1,2.1,1.1s1.5-.4,1.5-1.2-.3-1-1.3-1.1h-.6c-1.3-.3-2.3-.8-2.3-2.2s1.1-2.1,2.6-2.1,1.9.4,2.5,1.2l-.7.7c-.3-.4-.9-.9-1.9-.9s-1.4.4-1.4,1.1.5,1,1.4,1.1h.6c1.6.3,2.2,1,2.2,2.1s-1,2.3-2.7,2.3Z"/>
  <path d="M577.7,163.9c-2,0-3.2-1.5-3.2-3.8s1.3-3.8,3.2-3.8,3.1,1.5,3.1,3.5v.5h-5.2v.3c0,1.2.8,2.2,2.1,2.2s1.6-.4,2-1.2l.8.6c-.5,1-1.5,1.7-2.9,1.7ZM577.7,157.2c-1.2,0-2.1.9-2.1,2.2h0c0,0,4,0,4,0v-.2c0-1.3-.8-2.1-1.9-2.1Z"/>
  <path d="M570.4,163.9c-1.3,0-2.2-.6-2.9-1.4l.8-.6c.6.7,1.2,1.1,2.1,1.1s1.5-.4,1.5-1.2-.3-1-1.3-1.1h-.6c-1.3-.3-2.3-.8-2.3-2.2s1.1-2.1,2.6-2.1,1.9.4,2.5,1.2l-.7.7c-.3-.4-.9-.9-1.9-.9s-1.4.4-1.4,1.1.5,1,1.4,1.1h.6c1.6.3,2.2,1,2.2,2.1s-1,2.3-2.7,2.3Z"/>
  <path d="M566.6,163.7h-.6c-.8,0-1.2-.5-1.2-1.2h0c-.3.9-1.1,1.3-2.1,1.3-1.5,0-2.4-.8-2.4-2.2s1-2.1,3.1-2.1h1.4v-.7c0-1-.6-1.6-1.7-1.6s-1.4.4-1.8,1.1l-.7-.6c.4-.8,1.3-1.4,2.6-1.4s2.8.9,2.8,2.4v4h.8v1ZM562.7,162.9c1.1,0,1.9-.6,1.9-1.3v-1.2h-1.5c-1.3,0-1.8.4-1.8,1.1v.3c0,.7.6,1.1,1.4,1.1Z"/>
  <path d="M555.6,163.9c-2.5,0-3.9-1.7-3.9-5s1.5-5.1,3.9-5.1,2.7.8,3.4,2.1l-1,.6c-.4-1-1.2-1.7-2.4-1.7s-2.7,1.3-2.7,3.3v1.5c0,2,1,3.2,2.7,3.2s2.1-.7,2.5-1.8l.9.6c-.6,1.4-1.8,2.2-3.4,2.2Z"/>
  <path d="M547,163.9c-2,0-3.2-1.5-3.2-3.8s1.3-3.8,3.2-3.8,3.1,1.5,3.1,3.5v.5h-5.2v.3c0,1.2.8,2.2,2.1,2.2s1.6-.4,2-1.2l.8.6c-.5,1-1.5,1.7-2.9,1.7ZM547,157.2c-1.2,0-2.1.9-2.1,2.2h0c0,0,4,0,4,0v-.2c0-1.3-.8-2.1-1.9-2.1Z"/>
  <path d="M539.7,163.9c-1.3,0-2.2-.6-2.9-1.4l.8-.6c.6.7,1.2,1.1,2.1,1.1s1.5-.4,1.5-1.2-.3-1-1.3-1.1h-.6c-1.3-.3-2.3-.8-2.3-2.2s1.1-2.1,2.6-2.1,1.9.4,2.5,1.2l-.7.7c-.3-.4-.9-.9-1.9-.9s-1.4.4-1.4,1.1.5,1,1.4,1.1h.6c1.6.3,2.2,1,2.2,2.1s-1,2.3-2.7,2.3Z"/>
  <path d="M528.1,153.9h1.2v6c0,1.9.6,2.8,2.3,2.8s2.3-1,2.3-2.8v-6h1.2v5.8c0,2.8-1,4.2-3.6,4.2s-3.5-1.3-3.5-4.2v-5.8Z"/>
  <path d="M525.9,160h-3.7v-1.2h3.7v1.2Z"/>
  <path d="M520.8,163.7h-1.4c-.8,0-1.2-.5-1.2-1.2v-5.1h-1.2v-1h.7c.5,0,.6-.2.6-.7v-1.3h1v2h1.6v1h-1.6v5.3h1.5v1Z"/>
  <path d="M511,163.7h-1.1v-7.2h1.1v1.2h0c.4-.8,1-1.3,2-1.3s2.4,1,2.4,2.8v4.6h-1.1v-4.4c0-1.3-.6-1.9-1.6-1.9s-1.8.4-1.8,1.4v5Z"/>
  <path d="M504.9,163.9c-2,0-3.2-1.5-3.2-3.8s1.3-3.8,3.2-3.8,3.1,1.5,3.1,3.5v.5h-5.2v.3c0,1.2.8,2.2,2.1,2.2s1.6-.4,2-1.2l.8.6c-.5,1-1.5,1.7-2.9,1.7ZM504.9,157.2c-1.2,0-2.1.9-2.1,2.2h0c0,0,4,0,4,0v-.2c0-1.3-.8-2.1-1.9-2.1Z"/>
  <path d="M500.9,164.5c0,1.5-1.2,2.2-3.5,2.2s-3.2-.6-3.2-1.8.4-1.2,1.1-1.4v-.2c-.4-.2-.6-.5-.6-1,0-.7.5-1.1,1.2-1.3h0c-.9-.5-1.4-1.3-1.4-2.3,0-1.5,1.1-2.5,2.7-2.5s1,0,1.4.3h0c0-.7.2-1.1.8-1.1h1.1v1h-1.4v.5c.5.4.8,1.1.8,1.9,0,1.5-1.1,2.5-2.7,2.5s-.5,0-.7,0c-.5.1-1,.4-1,.8s.4.5,1.1.5h1.5c1.8,0,2.6.7,2.6,1.9ZM499.9,164.6c0-.6-.4-1-1.5-1h-2.4c-.5.2-.7.5-.7,1s.4,1.1,1.6,1.1h1c1.2,0,2-.4,2-1.2ZM497.4,160.4c1,0,1.6-.4,1.6-1.4v-.4c0-1-.6-1.4-1.6-1.4s-1.6.4-1.6,1.4v.4c0,1,.6,1.4,1.6,1.4Z"/>
  <path d="M493.3,163.7h-1.2l-1-2.9h-3.9l-1,2.9h-1.2l3.4-9.8h1.5l3.4,9.8ZM490.8,159.8l-1.7-4.8h0l-1.7,4.8h3.4Z"/>
</svg>